<svg id="Layer_1" data-name="Layer 1" xmlns="http://www.w3.org/2000/svg" viewBox="0 0 39.23 84.24"><defs><style>.cls-1{fill:#fbbc95;}.cls-2{fill:#7b483c;}.cls-3{opacity:0.3;}</style></defs><path class="cls-1" d="M2.25,83.32l24.13.23.48-12.1,9.91-17.63C34.34,46,32.82,40,33.64,30.61c-2-1.71-18.25-1.48-30.43,7L1.1,47.89c-1,7.31.13,10.86,1.24,16.42Z"/><path class="cls-2" d="M27,84.24,1.56,84l.09-19.62c-.15-.77-.3-1.49-.45-2.2-.95-4.47-1.7-8-.79-14.39L2.59,37.22l.23-.16c12.5-8.73,29.05-8.9,31.27-7l.27.23,0,.35c-.82,9.38.69,15.18,3.1,22.95l.09.28-10,17.74Zm-24.1-1.6,22.77.21.47-11.6L36,53.74C33.73,46.3,32.18,40.23,32.92,31,30.39,29.88,15.52,30,3.83,38L1.77,48c-.87,6.1-.15,9.53.77,13.87.16.73.32,1.48.48,2.28v.07Z"/><g class="cls-3"><path class="cls-2" d="M14.79,62.23c1.35-2.38.83-10.67,7.75-15.09-2.43-7.86-11.4-.21-11-5.94-2-1.71-5.53.65-8.42-3.36L1,48.1A135.09,135.09,0,0,1,14.79,62.23Z"/></g><path class="cls-1" d="M16.8,32.47,17.37,3.7A3.21,3.21,0,0,1,23.79,4l1.67,27.6Z"/><path class="cls-2" d="M16.8,33.16h0a.68.68,0,0,1-.67-.7l.57-28.77A3.9,3.9,0,0,1,24.48,4l1.66,27.53a.68.68,0,0,1-.64.73.67.67,0,0,1-.73-.64L23.1,4a2.52,2.52,0,0,0-4.19-2,2.46,2.46,0,0,0-.85,1.73l-.57,28.74A.69.69,0,0,1,16.8,33.16Z"/><path class="cls-1" d="M9.36,42.75,2.86,6.59A3.21,3.21,0,0,1,9.18,5.51l7.62,27Z"/><path class="cls-2" d="M9.36,43.44a.68.68,0,0,1-.67-.56L2.18,6.71A3.9,3.9,0,0,1,9.86,5.38l7.61,26.9a.69.69,0,0,1-1.33.38L8.52,5.7a2.52,2.52,0,0,0-5,.79L10,42.63a.68.68,0,0,1-.56.8Z"/><path class="cls-1" d="M25.65,31.71l6.69-25a3.16,3.16,0,0,1,6.11,1.65L33.54,33.67Z"/><path class="cls-2" d="M33.54,34.36h-.13a.7.7,0,0,1-.55-.81L37.77,8.21A2.47,2.47,0,0,0,33,6.89l-6.68,25A.69.69,0,1,1,25,31.53l6.68-25a3.85,3.85,0,0,1,7.45,2L34.21,33.8A.68.68,0,0,1,33.54,34.36Z"/><path class="cls-1" d="M15.38,61.71c.62-5.63,3.9-14.41,10.69-15.77Z"/><path class="cls-2" d="M15.38,62.4h-.07a.69.69,0,0,1-.61-.76c.55-5,3.6-14.84,11.23-16.37a.69.69,0,0,1,.81.54.68.68,0,0,1-.54.81c-6.35,1.28-9.54,9.77-10.13,15.17A.69.69,0,0,1,15.38,62.4Z"/><path class="cls-1" d="M13.18,48.53l-3.4-12.9a3.43,3.43,0,1,0-6.57,2s0,.07,0,.1L7.61,50.32a2.93,2.93,0,0,0,5.57-1.79Z"/><path class="cls-2" d="M10.39,53A3.62,3.62,0,0,1,7,50.55L2.55,37.82a4.12,4.12,0,0,1,2.74-5.13,4.1,4.1,0,0,1,5.14,2.74l3.42,12.92a3.6,3.6,0,0,1-2.31,4.46A3.55,3.55,0,0,1,10.39,53ZM6.5,33.88a2.72,2.72,0,0,0-.8.12,2.74,2.74,0,0,0-1.83,3.42L8.26,50.1a2.24,2.24,0,0,0,4.27-1.37v0L9.11,35.8a2.71,2.71,0,0,0-1.33-1.59A2.65,2.65,0,0,0,6.5,33.88Z"/><path class="cls-1" d="M24.54,48.62l-.44-.53a4,4,0,0,0-3.61-1.44c-.78.09-1.49.22-1.75.26-.57.06-1.21.07-1.8.1s-1.27-.08-1.88-.17-1.24-.26-1.81-.45-1.08-.44-1.6-.67a2.5,2.5,0,0,1-1.49-2.83A2.46,2.46,0,0,1,13,41l.36.06a6.69,6.69,0,0,0,4-.45c.38-.17.69-.28,1.12-.48l1.31-.58c.43-.21,1-.41,1.6-.61.28-.1.66-.17,1-.25a6.63,6.63,0,0,1,1.07-.18,8.88,8.88,0,0,1,2.41,0,9.4,9.4,0,0,1,1.22.23c.38.12.76.26,1.14.4a10.89,10.89,0,0,1,2,1,11.68,11.68,0,0,1,1.65,1.18,24.62,24.62,0,0,1,2.66,2.47c.77.84,1.45,1.67,2.18,2.52,2,2.31,1.47,4.91-.81,8.94Z"/><path class="cls-2" d="M35.93,56a.68.68,0,0,1-.34-.08.69.69,0,0,1-.26-.94c2.28-4,2.52-6.24.89-8.15l-.61-.72c-.51-.6-1-1.19-1.55-1.78-.19-.18-.4-.39-.6-.6a16.67,16.67,0,0,0-2-1.8l-.23-.18a9.17,9.17,0,0,0-1.33-.93l-.4-.24A7.28,7.28,0,0,0,28,39.85c-.39-.15-.76-.27-1.13-.39a4.41,4.41,0,0,0-.82-.16l-.3,0a8.51,8.51,0,0,0-2.25,0,3.16,3.16,0,0,0-.65.1l-.35.08-.28.07a2.88,2.88,0,0,0-.58.15l-.28.09c-.46.17-.94.33-1.28.49l-1.32.58c-.27.13-.5.23-.73.32l-.39.17a7.52,7.52,0,0,1-4.45.5l-.36-.07a1.79,1.79,0,0,0-2,1.36,1.83,1.83,0,0,0,1.09,2l1.58.66c.36.12.8.21,1.25.31l.46.11c.41.06.89.09,1.39.12l.38,0,.36,0c.45,0,.91,0,1.32-.08l.4-.06,1.35-.2a4.72,4.72,0,0,1,4.22,1.69l.44.54a.69.69,0,1,1-1.06.87l-.44-.54a3.35,3.35,0,0,0-3-1.19c-.5.06-1,.14-1.3.19l-.45.07c-.46,0-1,.07-1.44.09H17l-.46,0c-.51,0-1-.07-1.56-.15l-.49-.11A14.29,14.29,0,0,1,13,47c-.59-.23-1.13-.46-1.66-.69a3.21,3.21,0,0,1-1.88-3.61,3.16,3.16,0,0,1,3.63-2.4l.35.07A6.05,6.05,0,0,0,17.14,40l.41-.17.68-.3,1.32-.58c.39-.18.9-.36,1.4-.54l.26-.09a6.6,6.6,0,0,1,.75-.2l.29-.07.33-.07a4.84,4.84,0,0,1,.89-.13,9.67,9.67,0,0,1,2.56,0l.27,0a7.49,7.49,0,0,1,1,.2q.59.2,1.17.42a8.61,8.61,0,0,1,1.72.84l.37.22a9.58,9.58,0,0,1,1.52,1.06l.21.16a17.69,17.69,0,0,1,2.12,1.93l.61.6c.58.63,1.09,1.24,1.61,1.85l.6.72c2.38,2.78,1.43,5.89-.73,9.71A.68.68,0,0,1,35.93,56Z"/></svg>