<svg id="Layer_1" data-name="Layer 1" xmlns="http://www.w3.org/2000/svg" viewBox="0 0 39.58 77.55"><defs><style>.cls-1{fill:#fbbc95;}.cls-2{fill:#7b483c;}.cls-3{opacity:0.3;}</style></defs><path class="cls-1" d="M.69,76.86H24.78l0-14.7L35,52.58C33.6,42.25,22.21,47.75,22.13,30.65L4,26.26S1.11,37.76.69,60.84Z"/><path class="cls-2" d="M25.47,77.55H0V60.84C.42,37.93,3.25,26.21,3.28,26.09l.17-.66,19.37,4.68v.54c0,9.42,3.55,11.63,6.93,13.78,2.59,1.64,5.26,3.33,5.88,8.06l0,.35L25.43,62.45ZM1.38,76.86h0Zm0-.69H24.09l0-14.31,10.15-9.53c-.61-3.83-2.74-5.18-5.19-6.74-3.47-2.19-7.38-4.67-7.57-14.4l-17-4.1c-.59,2.77-2.73,14.1-3.09,33.76Z"/><g class="cls-3"><path class="cls-2" d="M31,46.05c-3.77-2.67-8.78-4.08-8.83-15.4L11.18,28l.4,11.26C18.75,45.32,25.12,47.07,31,46.05Z"/></g><path class="cls-1" d="M28.26,45.46A7.36,7.36,0,0,0,31,40.73a39.65,39.65,0,0,0,.72-5.67,26.23,26.23,0,0,1,.48-3.5,10.46,10.46,0,0,1,.68-2,6.78,6.78,0,0,1,1.52-2.08,2.25,2.25,0,0,1,3.18.15,2.27,2.27,0,0,1,.57,1.84l-.23,1.47-.07.5a8.74,8.74,0,0,0,0,.91,22,22,0,0,0,.3,2.59,44.37,44.37,0,0,1,.73,6.53,16.51,16.51,0,0,1-1.7,7.9A16.11,16.11,0,0,1,34.64,53c-1,1.07-2.27,1.9-3.33,3Z"/><path class="cls-2" d="M31.31,56.68a.69.69,0,0,1-.47-.18.68.68,0,0,1,0-1,19.19,19.19,0,0,1,1.78-1.64,16.22,16.22,0,0,0,1.54-1.41A15,15,0,0,0,36.57,49a15.79,15.79,0,0,0,1.63-7.57,41.21,41.21,0,0,0-.6-5.63L37.47,35a26.33,26.33,0,0,1-.31-2.68,9,9,0,0,1,0-.92l.08-.61.22-1.47a1.56,1.56,0,0,0-2.59-1.38,6.16,6.16,0,0,0-1.37,1.87,9.39,9.39,0,0,0-.62,1.9,22.89,22.89,0,0,0-.45,3.13l-.06.69a36.29,36.29,0,0,1-.7,5.36,8,8,0,0,1-3,5.1.69.69,0,0,1-1-.11.68.68,0,0,1,.11-1,6.7,6.7,0,0,0,2.51-4.35A35.4,35.4,0,0,0,31,35.41l.06-.7a26.4,26.4,0,0,1,.47-3.3,11.17,11.17,0,0,1,.73-2.18A7.4,7.4,0,0,1,34,26.92a2.94,2.94,0,0,1,4.89,2.6l-.3,2a6.53,6.53,0,0,0,0,.77,21.6,21.6,0,0,0,.29,2.53l.13.81a40.06,40.06,0,0,1,.61,5.81,17.06,17.06,0,0,1-1.78,8.23,16.47,16.47,0,0,1-2.65,3.78,21.49,21.49,0,0,1-1.66,1.52,18.45,18.45,0,0,0-1.67,1.53A.69.69,0,0,1,31.31,56.68Z"/><path class="cls-1" d="M15.48,30.37l.38-.57c1.11-4.58,1.78-7.64,2.5-12.19.36-2.28.64-4.54.78-6.81s.18-4.58.22-7a3.16,3.16,0,0,1,6.31,0v0c0,2.35.12,4.81,0,7.31s-.28,5-.57,7.44c-.59,4.91-2.91,9.35-2.91,15.52Z"/><path class="cls-2" d="M22.24,34.75a.69.69,0,0,1-.69-.69,35.78,35.78,0,0,1,1.66-9.89,38.75,38.75,0,0,0,1.25-5.71c.33-2.72.51-5.13.57-7.37s0-4.26,0-6.3l0-1a2.47,2.47,0,0,0-4.93,0l0,.9c0,2.13-.06,4.14-.2,6.14s-.39,4.33-.79,6.88c-.72,4.57-1.39,7.59-2.51,12.24l-.1.21-.37.58A.69.69,0,0,1,14.9,30l.32-.48C16.32,25,17,22,17.68,17.5c.39-2.5.65-4.71.78-6.75s.16-4,.2-6.07v-.9a3.85,3.85,0,0,1,7.69,0l0,1c0,2.06.09,4.19,0,6.37s-.25,4.73-.58,7.49a41.07,41.07,0,0,1-1.29,5.91,34.87,34.87,0,0,0-1.61,9.53A.69.69,0,0,1,22.24,34.75Z"/><g class="cls-3"><path class="cls-2" d="M18,19.69c-.6,3.49-1.22,6.27-2.15,10.11l-.38.57,6.76,3.69c0-5.68,2-9.9,2.72-14.37Z"/></g><path class="cls-1" d="M11.58,29.81A15,15,0,0,1,12,27.92L12.54,26l.77-1.92a6,6,0,0,1,.47-.95l.54-.95a11.32,11.32,0,0,1,1.33-1.85,11.73,11.73,0,0,1,3.88-3,10.58,10.58,0,0,1,4.94-.84,12.84,12.84,0,0,1,4.43,1.12,19.55,19.55,0,0,1,6.51,4.89,3.09,3.09,0,0,1-4.48,4.25l0,0a13.4,13.4,0,0,0-4.52-3.14,5,5,0,0,0-4-.09,6.58,6.58,0,0,0-2.58,3.41l-.46,1.29L19,29.61a11,11,0,0,0-.26,1.47l-.21,1.5,0,.29Z"/><path class="cls-2" d="M18.54,33.56h-.1a.69.69,0,0,1-.59-.78L18.1,31a10.22,10.22,0,0,1,.28-1.57L18.69,28l.48-1.37a7.3,7.3,0,0,1,2.9-3.79,5.68,5.68,0,0,1,4.54.06,14.14,14.14,0,0,1,4.77,3.3A2.4,2.4,0,0,0,34.9,23a18.71,18.71,0,0,0-6.28-4.72,12.06,12.06,0,0,0-4.18-1.06,9.85,9.85,0,0,0-4.65.79,10.86,10.86,0,0,0-3.61,2.8l-.23.28a8.82,8.82,0,0,0-1,1.44l-.56,1a5.13,5.13,0,0,0-.42.85l-.78,1.94-.52,1.84a13.69,13.69,0,0,0-.4,1.77l-.68-.07-.67-.17a15,15,0,0,1,.43-1.93l.54-1.89.8-2a6.26,6.26,0,0,1,.51-1l.53-.93a9.88,9.88,0,0,1,1.16-1.65l.23-.28a12.31,12.31,0,0,1,4.11-3.2,11.49,11.49,0,0,1,5.32-.91A13.92,13.92,0,0,1,29.16,17a20.39,20.39,0,0,1,6.76,5.07,3.77,3.77,0,0,1-.25,5.33,3.77,3.77,0,0,1-5.23-.13,12.59,12.59,0,0,0-4.32-3,4.34,4.34,0,0,0-3.41-.13,6.08,6.08,0,0,0-2.25,3.06L20,28.42l-.3,1.34a9,9,0,0,0-.24,1.33L19.22,33A.7.7,0,0,1,18.54,33.56Zm-7-3.75Z"/><g class="cls-3"><path class="cls-2" d="M35.2,23.87a3.08,3.08,0,0,1-4.27-.11l0,0a13.4,13.4,0,0,0-4.52-3.14c-1.64-.62-2.78-.2-4.36-.11-1.32.07-3.33.18-4.41-.69A1.86,1.86,0,0,1,17,19a10.67,10.67,0,0,0-1.39,1.38,11.32,11.32,0,0,0-1.33,1.85l-.54.95a6,6,0,0,0-.47.95L12.54,26,12,27.92a15,15,0,0,0-.42,1.89l7,3.06,0-.29.21-1.5A11,11,0,0,1,19,29.61l.32-1.42.46-1.29a6.58,6.58,0,0,1,2.58-3.41,5,5,0,0,1,4,.09,13.4,13.4,0,0,1,4.52,3.14l0,0a3.08,3.08,0,0,0,4.88-3.68A2.89,2.89,0,0,1,35.2,23.87Z"/></g><path class="cls-1" d="M6.7,28.56a83.21,83.21,0,0,1,3.84-8.69,10.81,10.81,0,0,1,3.84-3.57,9.79,9.79,0,0,1,5.38-1.08,16.36,16.36,0,0,1,4.47,1.11A44.71,44.71,0,0,1,31.16,20,3.13,3.13,0,0,1,28,25.43l0,0a38.53,38.53,0,0,0-6-2.95,9.46,9.46,0,0,0-2.6-.56,3,3,0,0,0-1.66.38c-.87.46-1.85,2.07-2.48,4a34.42,34.42,0,0,0-1.36,6.41h0Z"/><path class="cls-2" d="M13.83,33.38h-.07a.69.69,0,0,1-.62-.73,36.17,36.17,0,0,1,1.39-6.59c.56-1.69,1.59-3.74,2.82-4.38a3.44,3.44,0,0,1,2-.47,10,10,0,0,1,2.82.6,38.19,38.19,0,0,1,6.12,3,2.45,2.45,0,0,0,2.53-4.19A43.8,43.8,0,0,0,24,17a15.22,15.22,0,0,0-4.27-1.06,9.06,9.06,0,0,0-5,1,10.18,10.18,0,0,0-3.62,3.36,82.4,82.4,0,0,0-3.76,8.55.69.69,0,1,1-1.28-.49C6.41,27.4,9,21,10,19.48a11.55,11.55,0,0,1,4.09-3.79,10.48,10.48,0,0,1,5.75-1.15,16.17,16.17,0,0,1,4.66,1.15,44.68,44.68,0,0,1,7.05,3.76A3.83,3.83,0,0,1,27.62,26a37.12,37.12,0,0,0-5.92-2.92,8.34,8.34,0,0,0-2.4-.52,2.55,2.55,0,0,0-1.25.27,6.94,6.94,0,0,0-2.21,3.63,34.61,34.61,0,0,0-1.33,6.29A.69.69,0,0,1,13.83,33.38Z"/><g class="cls-3"><path class="cls-2" d="M32.17,21.35A3.13,3.13,0,0,1,28,22.43l0,0a38.53,38.53,0,0,0-6-2.95,9.46,9.46,0,0,0-2.6-.56c-1,0-1.54.38-2.58-.08a9.47,9.47,0,0,1-2.4-1.62c-.21-.19-.38-.37-.54-.54a11,11,0,0,0-3.27,3.21A83.21,83.21,0,0,0,6.7,28.56l7.13,4.14h0a34.42,34.42,0,0,1,1.36-6.41c.63-1.93,1.61-3.54,2.48-4a3,3,0,0,1,1.66-.38,9.46,9.46,0,0,1,2.6.56,38.53,38.53,0,0,1,6,2.95l0,0a3.13,3.13,0,0,0,4.29-4.22S32.2,21.31,32.17,21.35Z"/></g><path class="cls-1" d="M3.26,29.88a26.36,26.36,0,0,1,1.11-5.55,13.42,13.42,0,0,1,3.37-5.55,13.18,13.18,0,0,1,5.6-3.1,28.91,28.91,0,0,1,5.42-.93,3.21,3.21,0,0,1,.72,6.37h-.05a22.21,22.21,0,0,0-4.09.91,6.46,6.46,0,0,0-2.75,1.65,6.63,6.63,0,0,0-1.4,2.77,19.78,19.78,0,0,0-.56,4l0,2.5Z"/><path class="cls-2" d="M10.59,33.62h0a.68.68,0,0,1-.67-.7l0-2.5a19.43,19.43,0,0,1,.59-4.15,7.14,7.14,0,0,1,1.55-3.05,7,7,0,0,1,3-1.84,22.29,22.29,0,0,1,4.23-.94,2.51,2.51,0,0,0,2.2-2.72,2.42,2.42,0,0,0-.89-1.7,2.49,2.49,0,0,0-1.83-.58,26.81,26.81,0,0,0-5.29.91,12.19,12.19,0,0,0-5.31,2.92A12.82,12.82,0,0,0,5,24.54,26,26,0,0,0,3.94,30a.71.71,0,0,1-.76.61.69.69,0,0,1-.61-.76,27.42,27.42,0,0,1,1.14-5.7,14.3,14.3,0,0,1,3.55-5.83A13.82,13.82,0,0,1,13.14,15a28.77,28.77,0,0,1,5.56-.95,3.87,3.87,0,0,1,2.84.89,4,4,0,0,1,1.38,2.64,3.9,3.9,0,0,1-3.34,4.2,20.71,20.71,0,0,0-4,.88,5.78,5.78,0,0,0-2.46,1.45,5.94,5.94,0,0,0-1.26,2.5,18.87,18.87,0,0,0-.53,3.84l0,2.47A.69.69,0,0,1,10.59,33.62Z"/><path class="cls-1" d="M10.62,32.7a21.71,21.71,0,0,0,3.77,12.41c1.52,2.43,3.24,5.08,3.72,8,.59,3.66-.61,9.38-3.86,11.56Z"/><path class="cls-2" d="M14.25,65.34a.67.67,0,0,1-.57-.3.69.69,0,0,1,.19-1C16.74,62.15,18,56.9,17.43,53.2c-.43-2.63-1.94-5-3.4-7.37l-.22-.36A22.33,22.33,0,0,1,9.93,32.7a.69.69,0,0,1,.69-.69.68.68,0,0,1,.68.69,21.19,21.19,0,0,0,3.67,12l.22.35c1.47,2.33,3.12,5,3.6,7.88.66,4.1-.74,10-4.16,12.24A.66.66,0,0,1,14.25,65.34Z"/></svg>