<svg id="Layer_1" data-name="Layer 1" xmlns="http://www.w3.org/2000/svg" viewBox="0 0 39.23 83.15"><defs><style>.cls-1{fill:#fbbc95;}.cls-2{fill:#7b483c;}.cls-3{opacity:0.3;}</style></defs><path class="cls-1" d="M2.25,83.29l24.13.23.48-12.1a99.26,99.26,0,0,0,9.78-16.63c-2.43-7.85-3.82-14.77-3-24.21-2-1.71-13.44-.18-30.43,7L1.1,47.86c-1,7.31.13,10.86,1.24,16.43Z" transform="translate(0 -1.07)"/><path class="cls-2" d="M27,84.22,1.56,84l.09-19.63c-.15-.76-.31-1.49-.45-2.19-.95-4.47-1.7-8-.79-14.4l2.2-10.65L2.94,37c16.45-7,28.76-9,31.15-6.9l.27.23,0,.34c-.81,9.32.53,16.07,3,24l.08.25-.12.24a99.9,99.9,0,0,1-9.72,16.58ZM2.94,82.61l22.77.22.47-11.65L26.3,71a98.91,98.91,0,0,0,9.61-16.27c-2.4-7.81-3.74-14.58-3-23.8-2.17-1-12.37.1-29.11,7.15L1.77,48c-.87,6.11-.15,9.53.77,13.87.16.73.32,1.49.47,2.28l0,.07Z" transform="translate(0 -1.07)"/><g class="cls-3"><path class="cls-2" d="M14.84,62c1.35-2.38,1.2-9.7,8.12-14.13-2.43-7.85-6.25-6.39-5.81-12.11C15.19,34,20.2,30.4,3.21,37.6L1.1,47.86A135.47,135.47,0,0,1,14.84,62Z" transform="translate(0 -1.07)"/></g><path class="cls-1" d="M16.71,41.47,12.21,5.3a3.21,3.21,0,0,1,6.37-.77l6.1,26.86Z" transform="translate(0 -1.07)"/><path class="cls-2" d="M15,1.09a3.88,3.88,0,0,1,4.27,3.34l6.09,26.81a.67.67,0,0,1-.52.82.68.68,0,0,1-.82-.52L17.91,4.68a2.53,2.53,0,0,0-5,.55l4.5,36.16a.69.69,0,0,1-.59.77h-.09a.68.68,0,0,1-.68-.6L11.52,5.39A3.9,3.9,0,0,1,15,1.09" transform="translate(0 -1.07)"/><path class="cls-1" d="M24.9,31.69,32.34,6.92a3.16,3.16,0,0,1,6.11,1.64L33.54,33.65Z" transform="translate(0 -1.07)"/><path class="cls-2" d="M33.54,34.33H33.4a.69.69,0,0,1-.54-.81L37.77,8.43A2.47,2.47,0,0,0,33,7.11L25.55,31.88a.68.68,0,1,1-1.31-.39L31.68,6.72a3.85,3.85,0,0,1,7.44,2L34.21,33.78A.68.68,0,0,1,33.54,34.33Z" transform="translate(0 -1.07)"/><path class="cls-1" d="M15.38,61.68c.62-5.62,3.9-14.41,10.69-15.77Z" transform="translate(0 -1.07)"/><path class="cls-2" d="M15.38,62.37h-.07a.69.69,0,0,1-.61-.76c.55-5,3.6-14.84,11.23-16.37a.69.69,0,0,1,.27,1.35c-6.35,1.27-9.54,9.77-10.13,15.17A.69.69,0,0,1,15.38,62.37Z" transform="translate(0 -1.07)"/><path class="cls-1" d="M13.18,48.51,9.78,35.6a3.43,3.43,0,0,0-6.57,2l0,.1L7.61,50.3a2.93,2.93,0,0,0,5.57-1.79Z" transform="translate(0 -1.07)"/><path class="cls-2" d="M10.39,53A3.62,3.62,0,0,1,7,50.52l-4.4-12.7a4.12,4.12,0,1,1,7.87-2.42l3.42,12.92A3.65,3.65,0,0,1,10.39,53ZM6.5,33.86a2.84,2.84,0,0,0-.81.12,2.71,2.71,0,0,0-1.62,1.33,2.76,2.76,0,0,0-.2,2.09L8.26,50.07a2.24,2.24,0,0,0,4.26-1.36v0L9.11,35.78a2.73,2.73,0,0,0-1.33-1.6A2.76,2.76,0,0,0,6.5,33.86Z" transform="translate(0 -1.07)"/><path class="cls-1" d="M18.85,44.91l-2.68-14.5a3.79,3.79,0,0,0-7.4,1.66l0,.11,3.76,14.24a3.23,3.23,0,0,0,6.29-1.51Z" transform="translate(0 -1.07)"/><path class="cls-2" d="M15.69,49.53a3.9,3.9,0,0,1-3.79-2.94L8.1,32.21a4.48,4.48,0,0,1,8.74-1.95l2.68,14.51a3.9,3.9,0,0,1-2.85,4.64A4.17,4.17,0,0,1,15.69,49.53ZM12.48,28.14a3.08,3.08,0,0,0-3,3.78l3.78,14.32a2.54,2.54,0,0,0,4.95-1.18v0L15.49,30.54a3.09,3.09,0,0,0-3-2.4Z" transform="translate(0 -1.07)"/><path class="cls-1" d="M25,48.72l-.44-.54a4,4,0,0,0-3.6-1.43c-.79.09-1.49.22-1.75.26-.58.06-1.22.07-1.81.09s-1.26-.07-1.88-.16-1.23-.26-1.81-.46-1.08-.43-1.6-.66A2.5,2.5,0,0,1,10.61,43a2.45,2.45,0,0,1,2.83-1.87l.36.06a6.62,6.62,0,0,0,4.05-.46c.37-.16.69-.28,1.12-.48l1.3-.57c.44-.21,1.05-.41,1.61-.61a10,10,0,0,1,1-.25,6.8,6.8,0,0,1,1.07-.19,9,9,0,0,1,2.42.05,8.21,8.21,0,0,1,1.22.23c.38.12.75.25,1.13.4a10.39,10.39,0,0,1,2,1,11.53,11.53,0,0,1,1.64,1.17A25.86,25.86,0,0,1,35,44c.77.84,1.45,1.67,2.17,2.52,2,2.31,1.47,4.9-.8,8.93Z" transform="translate(0 -1.07)"/><path class="cls-2" d="M36.37,56.1A.66.66,0,0,1,36,56a.68.68,0,0,1-.26-.93c2.27-4,2.51-6.24.88-8.15l-.61-.72c-.5-.6-1-1.19-1.55-1.78l-.59-.6a18.4,18.4,0,0,0-2-1.8l-.23-.18a9.56,9.56,0,0,0-1.34-.94l-.4-.23A6.8,6.8,0,0,0,28.48,40c-.39-.15-.76-.28-1.12-.4a7,7,0,0,0-.82-.16l-.31,0a8.1,8.1,0,0,0-2.25,0,3.39,3.39,0,0,0-.65.1l-.34.08-.29.06c-.2.05-.42.09-.58.15l-.27.1a12.46,12.46,0,0,0-1.28.49l-1.32.58c-.27.13-.5.22-.74.32l-.39.16a7.43,7.43,0,0,1-4.45.51l-.35-.07a1.78,1.78,0,0,0-2,1.36,1.81,1.81,0,0,0,1.08,2l1.58.65a11,11,0,0,0,1.26.32l.46.11c.41.06.88.09,1.38.12l.39,0,.36,0c.45,0,.9,0,1.32-.08l.37-.06,1.38-.2a4.67,4.67,0,0,1,4.21,1.69l.45.54a.67.67,0,0,1-.1,1,.69.69,0,0,1-1-.09L24,48.62a3.33,3.33,0,0,0-3-1.19c-.51.06-1,.14-1.32.19l-.42.07c-.47.05-1,.07-1.44.08l-.43,0-.46,0a13.77,13.77,0,0,1-1.55-.15l-.5-.1c-.47-.11-1-.22-1.43-.37l-1.65-.69a3.2,3.2,0,0,1-1.88-3.62,3.15,3.15,0,0,1,3.62-2.39l.36.06a5.94,5.94,0,0,0,3.66-.41l.41-.17.68-.3L20,39c.38-.18.9-.36,1.39-.54l.26-.09a7.23,7.23,0,0,1,.75-.2l.3-.07.32-.07a4.21,4.21,0,0,1,.89-.13,9.26,9.26,0,0,1,2.56.05l.27,0a7.53,7.53,0,0,1,1,.21c.4.13.79.27,1.17.41a8.35,8.35,0,0,1,1.72.84l.38.22a10.29,10.29,0,0,1,1.52,1.07l.21.16a19.43,19.43,0,0,1,2.12,1.92c.19.21.39.41.6.61.58.63,1.1,1.24,1.61,1.85l.61.71c2.37,2.78,1.42,5.9-.74,9.72A.67.67,0,0,1,36.37,56.1Z" transform="translate(0 -1.07)"/></svg>