<svg id="Layer_1" data-name="Layer 1" xmlns="http://www.w3.org/2000/svg" viewBox="0 0 58.4 53.89"><defs><style>.cls-1{fill:#fbbc95;}.cls-2{fill:#7b483c;}.cls-3{opacity:0.3;}</style></defs><path class="cls-1" d="M27.26,28.89a33,33,0,0,1-3.5-1.7,15.32,15.32,0,0,1-3.51-2.68,7.45,7.45,0,0,1-.82-1,7.77,7.77,0,0,1-.73-1.15,8.52,8.52,0,0,1-.93-2.72A11.24,11.24,0,0,1,17.68,17c.07-.78.17-1.43.26-2v0a3.7,3.7,0,1,1,7.32,1.08,2.68,2.68,0,0,1-.05.3,9.24,9.24,0,0,0-.36,2.26,1.93,1.93,0,0,0,.54,1.25,7.86,7.86,0,0,0,1.88,1.63,24.06,24.06,0,0,0,2.62,1.52l.11.05a3.2,3.2,0,0,1-2.74,5.79Z"/><path class="cls-2" d="M28.51,29.83A3.82,3.82,0,0,1,27,29.52h0a32,32,0,0,1-3.57-1.74A15.82,15.82,0,0,1,19.76,25a9.17,9.17,0,0,1-.89-1.06,9.8,9.8,0,0,1-.78-1.22,9.53,9.53,0,0,1-1-2.95A11.33,11.33,0,0,1,17,17c.05-.7.14-1.29.22-1.82l0-.24A4.39,4.39,0,1,1,26,16.19c0,.12-.05.24-.07.36a9.84,9.84,0,0,0-.35,2c0,.23,0,.41.41.89A7.54,7.54,0,0,0,27.64,21a22.88,22.88,0,0,0,2.57,1.49l.11,0A3.9,3.9,0,0,1,32,27.73,3.9,3.9,0,0,1,28.51,29.83Zm-1-1.57a2.54,2.54,0,0,0,3.23-1.16,2.51,2.51,0,0,0,.16-1.92,2.47,2.47,0,0,0-1.24-1.47l-.11-.05a25.29,25.29,0,0,1-2.7-1.56,8.83,8.83,0,0,1-2-1.76,2.64,2.64,0,0,1-.7-1.69,9.22,9.22,0,0,1,.38-2.41c0-.08,0-.17,0-.25a3,3,0,1,0-6-.88l0,.28c-.07.5-.16,1.06-.21,1.71a9.61,9.61,0,0,0,.08,2.43,8,8,0,0,0,.85,2.52A6.49,6.49,0,0,0,20,23.1a6.42,6.42,0,0,0,.77.92,14.32,14.32,0,0,0,3.36,2.57A33.23,33.23,0,0,0,27.53,28.26Z"/><g class="cls-3"><path class="cls-2" d="M27.26,28.89a33,33,0,0,1-3.5-1.7,15.32,15.32,0,0,1-3.51-2.68,7.45,7.45,0,0,1-.82-1,7.77,7.77,0,0,1-.73-1.15,8.52,8.52,0,0,1-.93-2.72A11.24,11.24,0,0,1,17.68,17c.07-.78.17-1.43.26-2v0a3.7,3.7,0,1,1,7.32,1.08,2.68,2.68,0,0,1-.05.3,9.24,9.24,0,0,0-.36,2.26,1.93,1.93,0,0,0,.54,1.25,7.86,7.86,0,0,0,1.88,1.63,24.06,24.06,0,0,0,2.62,1.52l.11.05a3.2,3.2,0,0,1-2.74,5.79Z"/></g><path class="cls-1" d="M43.5,23.6a14.06,14.06,0,0,1-6.71,4.07,12.44,12.44,0,0,1-2.13.33,15.09,15.09,0,0,1-2.22-.12,10.21,10.21,0,0,1-4.22-1.77,10.55,10.55,0,0,1-.91-.71c-.27-.27-.53-.55-.79-.84a9.6,9.6,0,0,1-1.3-1.84,5,5,0,0,1-.48-1l-.4-1a16.35,16.35,0,0,1-.49-2,19,19,0,0,1,.57-7.61,3.69,3.69,0,1,1,7.16,1.82l0,.14-.06.17a11.89,11.89,0,0,0-.6,4.47,4.27,4.27,0,0,0,1.4,3,3.47,3.47,0,0,0,3,.66A7.67,7.67,0,0,0,39,19.23l.08-.07A3.13,3.13,0,0,1,43.5,23.6Z"/><path class="cls-2" d="M34.32,28.69a16.84,16.84,0,0,1-2-.13,11,11,0,0,1-4.55-1.9l-.22-.17a6.83,6.83,0,0,1-.74-.59c-.3-.3-.57-.59-.83-.88a7.52,7.52,0,0,1-1.13-1.54l-.24-.39A5.9,5.9,0,0,1,24.1,22l-.4-1a9.84,9.84,0,0,1-.4-1.55c0-.19-.07-.39-.12-.59a19.8,19.8,0,0,1,.57-7.93,4.39,4.39,0,0,1,8.5,2.16l-.1.34a11,11,0,0,0-.57,4.2,3.6,3.6,0,0,0,1.15,2.5,2.82,2.82,0,0,0,2.46.52,7,7,0,0,0,3.35-1.89l.08-.08A3.82,3.82,0,0,1,44,24.07h0a14.72,14.72,0,0,1-7,4.26,8.92,8.92,0,0,1-1.64.28l-.57.06ZM28,9a3,3,0,0,0-2.92,2.27,18,18,0,0,0-.55,7.34c0,.16.08.37.12.58A8.24,8.24,0,0,0,25,20.48l.39,1a4.6,4.6,0,0,0,.41.86l.26.42A6.77,6.77,0,0,0,27,24.07c.28.31.54.58.8.85a6.26,6.26,0,0,0,.6.46l.24.18a9.38,9.38,0,0,0,3.93,1.64,15,15,0,0,0,2.07.11l.53-.06A9.37,9.37,0,0,0,36.59,27,13.39,13.39,0,0,0,43,23.13h0a2.44,2.44,0,0,0-3.44-3.47l-.08.07a8.38,8.38,0,0,1-4,2.24,4.19,4.19,0,0,1-3.61-.82,4.92,4.92,0,0,1-1.64-3.41A12.35,12.35,0,0,1,30.83,13l.09-.29a3,3,0,0,0-2.18-3.66A3.18,3.18,0,0,0,28,9ZM43.5,23.6h0Z"/><g class="cls-3"><path class="cls-2" d="M43.5,23.6a14.06,14.06,0,0,1-6.71,4.07,12.44,12.44,0,0,1-2.13.33,15.09,15.09,0,0,1-2.22-.12,10.21,10.21,0,0,1-4.22-1.77,10.55,10.55,0,0,1-.91-.71c-.27-.27-.53-.55-.79-.84a9.6,9.6,0,0,1-1.3-1.84,5,5,0,0,1-.48-1l-.4-1a16.35,16.35,0,0,1-.49-2,19,19,0,0,1,.57-7.61,3.69,3.69,0,1,1,7.16,1.82l0,.14-.06.17a11.89,11.89,0,0,0-.6,4.47,4.27,4.27,0,0,0,1.4,3,3.47,3.47,0,0,0,3,.66A7.67,7.67,0,0,0,39,19.23l.08-.07A3.13,3.13,0,0,1,43.5,23.6Z"/></g><polygon class="cls-1" points="57.57 53.2 33.48 53.2 30.17 29.04 50.01 13.85 57.57 53.2"/><path class="cls-2" d="M58.4,53.89H32.88L29.44,28.74l21-16.11ZM34.08,52.52H56.74l-7.2-37.45L30.91,29.35Z"/><g class="cls-3"><path class="cls-2" d="M46.54,16.5,30.17,29,33.48,53.2h0A13.05,13.05,0,0,0,46.54,40.14Z"/></g><path class="cls-1" d="M35.91,25.78c-1.32-1.75-1.37-9.7-11.43-10-9.68-1.18-6.89-8.21-6.89-8.21S45.24-12,50.19,14.82Z"/><path class="cls-2" d="M35.91,26.47a.7.7,0,0,1-.55-.28,7.5,7.5,0,0,1-.87-2c-1-3-2.58-7.5-10-7.72-3.57-.43-5.95-1.66-7.13-3.65A6.75,6.75,0,0,1,17,7.32L17,7.13,17.2,7c.58-.42,14.48-10.1,24.57-6,4.72,1.92,7.78,6.52,9.1,13.68a.69.69,0,0,1-1.35.25C48.28,8.27,45.5,4,41.26,2.29,32.45-1.3,19.83,6.89,18.17,8a5.33,5.33,0,0,0,.35,4.12c1,1.6,3,2.6,6,3,8.34.24,10.22,5.71,11.23,8.64a7.42,7.42,0,0,0,.67,1.63.69.69,0,0,1-.13,1A.73.73,0,0,1,35.91,26.47Z"/><path class="cls-1" d="M22.49,13.93A50.9,50.9,0,0,0,23,19.61c.3,2.87.67,5.81.92,8.82s.37,6.06.33,9.09-.24,6-.52,9a3.09,3.09,0,0,1-6.16-.46v0c.17-2.85.25-5.69.2-8.51s-.27-5.63-.6-8.45-.79-5.68-1.21-8.62-1.3-8.06-1.3-8.06c-.14-2,.51-3.5,3.33-5.14Z"/><path class="cls-2" d="M20.68,50.05l-.35,0a3.76,3.76,0,0,1-3.42-4c.19-3.16.25-5.92.2-8.5s-.25-5.46-.6-8.38c-.23-2-.52-3.93-.82-6-.13-.86-.26-1.73-.38-2.6-.41-2.9-1.29-8-1.3-8-.18-2.6.85-4.22,3.67-5.85a.68.68,0,0,1,.94.25.7.7,0,0,1-.25.94c-2.67,1.55-3.11,2.77-3,4.49h0s.88,5.1,1.3,8c.13.88.25,1.74.38,2.6.31,2.08.6,4.05.83,6a85.09,85.09,0,0,1,.6,8.51c.06,2.61,0,5.42-.19,8.57a2.4,2.4,0,0,0,4.78.4c.31-3.29.48-6.23.52-9s-.07-5.93-.33-9c-.17-2.11-.41-4.2-.63-6.22-.1-.87-.2-1.73-.29-2.59s-.18-1.57-.25-2.1A29.11,29.11,0,0,1,21.8,14a.69.69,0,1,1,1.37,0,30.11,30.11,0,0,0,.28,3.5c.07.54.16,1.18.26,2.13s.19,1.72.28,2.58c.23,2,.47,4.14.64,6.26A89.62,89.62,0,0,1,25,37.53c0,2.79-.21,5.77-.52,9.1A3.78,3.78,0,0,1,20.68,50.05Z"/><g class="cls-3"><path class="cls-2" d="M17.73,35.5c.8-.85,1.61-1.69,2.46-2.5.88-1.19,1.75-2.4,2.65-3.6a5,5,0,0,1,1.1-1.06c-.25-3-.61-5.89-.91-8.73,0-.14,0-.27-.05-.4a7.73,7.73,0,0,1-1.34-.75,49.08,49.08,0,0,1-5,6.61c.19,1.36.38,2.7.54,4C17.45,31.24,17.63,33.36,17.73,35.5Z"/></g><path class="cls-1" d="M27.9,15.78C25.45,19.43,19.67,25,17.77,26.67a63.82,63.82,0,0,1-5.93,4.55A39.15,39.15,0,0,1,5.08,35,3.16,3.16,0,0,1,2.5,29.26l.12-.05a34.5,34.5,0,0,0,5.43-3.36,58.42,58.42,0,0,0,5.15-4.28,45,45,0,0,0,4.5-4.8,19.52,19.52,0,0,0,3.06-5l0-.07Z"/><path class="cls-2" d="M3.85,36a4.06,4.06,0,0,1-1.45-.28,3.85,3.85,0,0,1-.19-7l.11-.05a34.38,34.38,0,0,0,5.33-3.3,58.54,58.54,0,0,0,5.08-4.22,43.73,43.73,0,0,0,4.43-4.73,18.61,18.61,0,0,0,3-4.82l.67.17.64.24a20.36,20.36,0,0,1-3.2,5.27,45.38,45.38,0,0,1-4.56,4.87A59.76,59.76,0,0,1,8.46,26.4a34,34,0,0,1-5.55,3.43l-.11.05a2.47,2.47,0,0,0,2,4.51,39.58,39.58,0,0,0,6.65-3.74,64.47,64.47,0,0,0,5.87-4.5c1.87-1.61,7.6-7.18,10-10.76a.7.7,0,0,1,1-.18.68.68,0,0,1,.18.95c-2.51,3.73-8.27,9.33-10.25,11a65.82,65.82,0,0,1-6,4.6,39.78,39.78,0,0,1-6.89,3.86A3.72,3.72,0,0,1,3.85,36Z"/><path class="cls-1" d="M46.9,17.29c.62,6.3-2.22,13.07-2.57,13.36,0,0-6.44,3.59-8.06,4.67s-3.15,2-4.29,3a7.06,7.06,0,0,0-2.44,3A13.39,13.39,0,0,0,28.77,46v.12a2.49,2.49,0,0,1-4.9.53A19.58,19.58,0,0,1,23.26,40a13.48,13.48,0,0,1,.95-3.69A17.35,17.35,0,0,1,26.06,33c1.39-1.91,2.8-3.38,4-4.8a28.07,28.07,0,0,0,4.39-6.14Z"/><path class="cls-2" d="M26.28,49.22h-.06a3.18,3.18,0,0,1-3-2.43,20,20,0,0,1-.62-6.9,14.28,14.28,0,0,1,1-3.87,19,19,0,0,1,2-3.39,48.7,48.7,0,0,1,3.14-3.79c.32-.36.63-.7.92-1.05a27.79,27.79,0,0,0,4.29-6,.69.69,0,1,1,1.24.6,29,29,0,0,1-4.49,6.3l-.93,1.05a45.45,45.45,0,0,0-3.06,3.69,17,17,0,0,0-1.79,3.11A12.52,12.52,0,0,0,24,40a18.56,18.56,0,0,0,.59,6.44,1.8,1.8,0,0,0,3.54-.39V46a13.74,13.74,0,0,1,.83-4.92,7.74,7.74,0,0,1,2.64-3.3c.91-.73,2.06-1.49,3.27-2.29l1.06-.71c1.52-1,7-4.1,8-4.63a27.41,27.41,0,0,0,2.35-12.76.69.69,0,0,1,1.37-.13c.63,6.34-2.17,13.43-2.82,14l-.1.07c-.06,0-6.43,3.59-8,4.64l-1.07.71c-1.19.79-2.31,1.53-3.17,2.23a6.34,6.34,0,0,0-2.23,2.74A12.47,12.47,0,0,0,29.46,46v.11A3.17,3.17,0,0,1,26.28,49.22Zm18-18.57h0Zm0,0h0Z"/></svg>