<svg id="Layer_1" data-name="Layer 1" xmlns="http://www.w3.org/2000/svg" viewBox="0 0 42.67 59.41"><defs><style>.cls-1{fill:#fbbc95;}.cls-2{fill:#7b483c;}.cls-3{opacity:0.3;}</style></defs><path class="cls-1" d="M.69,58.72H24.78l0-14.7L35,34.44C33.6,24.11,22.21,29.61,22.13,12.51L5.75,10.66S.69,28,.69,42.7Z"/><path class="cls-2" d="M25.47,59.41H0V42.7C0,28.09,5,10.64,5.09,10.46l.16-.55,17.57,2v.61c0,9.42,3.55,11.63,6.93,13.78,2.59,1.64,5.26,3.33,5.88,8.06l0,.35L25.43,44.31ZM1.38,58H24.09l0-14.31,10.15-9.53C33.6,30.36,31.47,29,29,27.45c-3.46-2.19-7.37-4.66-7.57-14.32L6.26,11.4C5.4,14.49,1.38,29.75,1.38,42.7Z"/><g class="cls-3"><path class="cls-2" d="M28.49,26.29c-3.65-2.38-6.31-3.21-6.36-13.78l-8.66-1c.17,11.3,3.58,18.35,14.17,16Z"/></g><path class="cls-1" d="M28.1,27a8.4,8.4,0,0,0,4-3.91,35.77,35.77,0,0,0,1.88-5c.18-.51.36-1,.58-1.55a12.73,12.73,0,0,1,.81-1.67c.16-.28.32-.56.5-.83s.44-.55.67-.82a4.33,4.33,0,0,1,.75-.73c.28-.23.55-.45.83-.65a2.38,2.38,0,0,1,3.5,3.08l-.46.81a3.91,3.91,0,0,0-.62,1.48,8.48,8.48,0,0,0-.17,1l-.11,1.21a41.14,41.14,0,0,1-.63,6.1,18.27,18.27,0,0,1-2.91,6.83,42.47,42.47,0,0,1-5.38,5.44Z"/><path class="cls-2" d="M31.38,38.47a.69.69,0,0,1-.44-1.21A41.83,41.83,0,0,0,36.2,32,17.68,17.68,0,0,0,39,25.39a35,35,0,0,0,.56-5l.16-2.21c0-.17.05-.29.06-.41a5.1,5.1,0,0,1,.13-.7,4.22,4.22,0,0,1,.6-1.5l.56-1a1.7,1.7,0,0,0-2.5-2.2l-.8.64a3.92,3.92,0,0,0-.65.62l-.66.82c-.12.18-.25.41-.39.64l-.07.12a7.31,7.31,0,0,0-.56,1.12l-.22.49c-.18.46-.36.94-.53,1.42l-.28.87a28.87,28.87,0,0,1-1.66,4.31,9.16,9.16,0,0,1-4.4,4.24.69.69,0,0,1-.89-.39.68.68,0,0,1,.38-.89,7.71,7.71,0,0,0,3.69-3.59,27.83,27.83,0,0,0,1.57-4.11l.27-.81c.2-.58.38-1.08.59-1.6.08-.19.15-.34.22-.49a8.47,8.47,0,0,1,.64-1.28l.07-.11c.14-.25.29-.5.45-.74s.48-.61.72-.88a4.49,4.49,0,0,1,.85-.83c.27-.22.55-.45.84-.66a3.07,3.07,0,0,1,4.51,4l-.56,1a2.78,2.78,0,0,0-.44,1.09l0,.11a3.57,3.57,0,0,0-.08.49l-.06.42-.16,2.1a35.52,35.52,0,0,1-.58,5.22,19.06,19.06,0,0,1-3,7.09,42.77,42.77,0,0,1-5.49,5.56A.69.69,0,0,1,31.38,38.47Z"/><path class="cls-1" d="M22.35,16.1a8.84,8.84,0,0,1,1.85-5.63A5.75,5.75,0,0,1,27,8.06,2,2,0,0,1,28.1,8a4.57,4.57,0,0,1,1.53.75A7.88,7.88,0,0,1,32.15,12l.05.12A3.15,3.15,0,0,0,38.13,10a13,13,0,0,0-1.81-3.54,14.37,14.37,0,0,0-2.64-2.83,11.11,11.11,0,0,0-3.74-2,8.91,8.91,0,0,0-4.81-.1,10,10,0,0,0-4,2.21c-1.07.93-7,6-7.72,7Z"/><path class="cls-2" d="M22.35,16.79a.69.69,0,0,1-.69-.67,8.85,8.85,0,0,1,1.66-5.54l.29-.46A6.41,6.41,0,0,1,26.78,7.4a2.72,2.72,0,0,1,1.45-.06,5.41,5.41,0,0,1,1.8.87,8.65,8.65,0,0,1,2.77,3.52l0,.12a2.47,2.47,0,0,0,4.64-1.68,12.67,12.67,0,0,0-1.72-3.35,13.29,13.29,0,0,0-2.51-2.7,10.82,10.82,0,0,0-3.51-1.91,8.34,8.34,0,0,0-4.43-.08A9.13,9.13,0,0,0,21.6,4.18l-.8.69C19.25,6.2,14.52,10.25,14,11a.67.67,0,0,1-1,.18.68.68,0,0,1-.19-1,76.44,76.44,0,0,1,7-6.44l.79-.68A10.6,10.6,0,0,1,25,.8a9.74,9.74,0,0,1,5.19.1,11.79,11.79,0,0,1,4,2.15,14.89,14.89,0,0,1,2.77,3,13.93,13.93,0,0,1,1.9,3.72,3.84,3.84,0,0,1-7.22,2.6l0-.12a7.13,7.13,0,0,0-2.28-2.89,3.86,3.86,0,0,0-1.29-.64,1.42,1.42,0,0,0-.75,0,5.09,5.09,0,0,0-2.39,2.1l-.31.5A7.63,7.63,0,0,0,23,16.07a.69.69,0,0,1-.66.72Z"/><g class="cls-3"><path class="cls-2" d="M38,9.51a2.81,2.81,0,0,1-.82.44A3.15,3.15,0,0,1,33.2,8.09L33.15,8a7.88,7.88,0,0,0-2.52-3.2A4.57,4.57,0,0,0,29.1,4a2,2,0,0,0-1.11,0A5.75,5.75,0,0,0,25.2,6.47c-.8,1.33-6.38-.62-6.27,2.22L16.57,7.63a31.3,31.3,0,0,0-3.15,3l8.93,5.44a8.84,8.84,0,0,1,1.85-5.63A5.75,5.75,0,0,1,27,8.06,2,2,0,0,1,28.1,8a4.57,4.57,0,0,1,1.53.75A7.88,7.88,0,0,1,32.15,12l.05.12A3.15,3.15,0,0,0,38.13,10C38.08,9.8,38,9.66,38,9.51Z"/></g><path class="cls-1" d="M12.06,9.71a15.61,15.61,0,0,1,1.77-4,9.77,9.77,0,0,1,3.76-3.54,8.82,8.82,0,0,1,5.31-.87,12.3,12.3,0,0,1,4.36,1.52,16.82,16.82,0,0,1,3.33,2.49,20,20,0,0,1,4.62,6.53,3.09,3.09,0,0,1-5.61,2.59l0,0a13.83,13.83,0,0,0-3.34-4.28A8.05,8.05,0,0,0,22.09,8c-.58,0-2.36,2.84-3,6.4Z"/><path class="cls-2" d="M32.37,16.86A3.75,3.75,0,0,1,29,14.75a13,13,0,0,0-3.2-4.11,7.62,7.62,0,0,0-3.6-1.9,13,13,0,0,0-2.44,5.83.69.69,0,0,1-1.36-.25c.53-2.87,2.32-7.15,3.77-7A8.58,8.58,0,0,1,26.69,9.6a14.3,14.3,0,0,1,3.51,4.49,2.4,2.4,0,0,0,4.38-2,19.57,19.57,0,0,0-4.46-6.32,16.59,16.59,0,0,0-3.2-2.38A11.62,11.62,0,0,0,22.8,2a8.11,8.11,0,0,0-4.89.8,8.94,8.94,0,0,0-3.5,3.3,15.19,15.19,0,0,0-1.69,3.82.68.68,0,1,1-1.31-.4,16.3,16.3,0,0,1,1.84-4.16,10.29,10.29,0,0,1,4-3.78A9.54,9.54,0,0,1,23,.63a12.93,12.93,0,0,1,4.59,1.6,17.88,17.88,0,0,1,3.46,2.58,20.69,20.69,0,0,1,4.78,6.77,3.77,3.77,0,0,1-3.47,5.28ZM22.05,8.73h0Z"/><g class="cls-3"><path class="cls-2" d="M12.06,9.71a15.61,15.61,0,0,1,1.77-4,9.77,9.77,0,0,1,3.76-3.54,8.82,8.82,0,0,1,5.31-.87,12.3,12.3,0,0,1,4.36,1.52,16.82,16.82,0,0,1,3.33,2.49,20,20,0,0,1,4.62,6.53,3.09,3.09,0,0,1-5.61,2.59l0,0a13.83,13.83,0,0,0-3.34-4.28A8.05,8.05,0,0,0,22.09,8c-.58,0-2.36,2.84-3,6.4Z"/></g><path class="cls-1" d="M16.25,13.91c.58-3.4,1.57-8.75,7.16-5.8a7.59,7.59,0,0,1,3.26,3.21l0,.06a3.13,3.13,0,0,0,5.64-2.72,13.74,13.74,0,0,0-5.87-6.33A12.79,12.79,0,0,0,17.68.94c-3.09.64-8.55,6.16-9.47,9.72Z"/><path class="cls-2" d="M16.25,14.6h-.12a.7.7,0,0,1-.56-.8c.39-2.27,1-5.7,3.3-6.85,1.3-.64,2.94-.45,4.86.56A8.41,8.41,0,0,1,27.29,11a2.44,2.44,0,0,0,4.49-.19,2.43,2.43,0,0,0-.06-1.87,13,13,0,0,0-5.57-6,12.24,12.24,0,0,0-8.33-1.31c-2.91.6-8.09,5.93-9,9.21a.69.69,0,0,1-.84.49.69.69,0,0,1-.49-.84C8.53,6.7,14.13,1,17.54.27a13.56,13.56,0,0,1,9.28,1.46A14.41,14.41,0,0,1,33,8.38a3.82,3.82,0,0,1-6.88,3.32,6.91,6.91,0,0,0-3-3c-1.51-.8-2.72-1-3.61-.54C17.79,9,17.27,12,16.93,14A.7.7,0,0,1,16.25,14.6Z"/><g class="cls-3"><path class="cls-2" d="M31.78,9.8a3.11,3.11,0,0,1-4.07-1.42l0-.06a7.59,7.59,0,0,0-3.26-3.21c-5.59-2.95-11.76,1.2-12.35,4.6L9.54,7.89a9.65,9.65,0,0,0-1.33,2.77l8,3.25c.58-3.4,1.57-8.75,7.16-5.8a7.59,7.59,0,0,1,3.26,3.21l0,.06a3.13,3.13,0,0,0,5.84-2.09A3.12,3.12,0,0,1,31.78,9.8Z"/></g><path class="cls-1" d="M5.51,11.94a1.36,1.36,0,0,1,0-.2,13.51,13.51,0,0,1,2-6A7.41,7.41,0,0,1,8.63,4.29l.65-.65c.23-.2.49-.37.73-.55a7.84,7.84,0,0,1,1.58-.92,9.4,9.4,0,0,1,1.66-.59,12.7,12.7,0,0,1,6.26.06A17,17,0,0,1,24.76,4a3.2,3.2,0,0,1-3.38,5.44l-.05,0A10.39,10.39,0,0,0,18,8.13a5.76,5.76,0,0,0-2.93.1,2.58,2.58,0,0,0-1.55,1.29,6.67,6.67,0,0,0-.66,2.77v.12Z"/><path class="cls-2" d="M12.89,13.1h0a.7.7,0,0,1-.65-.73v-.12A7.73,7.73,0,0,1,13,9.18a3.33,3.33,0,0,1,1.91-1.6,6.66,6.66,0,0,1,3.3-.13,11.07,11.07,0,0,1,3.51,1.34,2.51,2.51,0,0,0,2.7-4.24,16.3,16.3,0,0,0-5-2.24,11.93,11.93,0,0,0-5.93-.06l-.3.09a6,6,0,0,0-1.21.44,7.35,7.35,0,0,0-1.47.85l-.13.09c-.2.15-.41.29-.59.45l-.6.61a6.83,6.83,0,0,0-1,1.3,13.05,13.05,0,0,0-1.88,5.74l0,.16a.67.67,0,0,1-.73.64.68.68,0,0,1-.64-.73c0-.07,0-.15,0-.23a14.34,14.34,0,0,1,2.1-6.33A8.33,8.33,0,0,1,8.15,3.79l.64-.64c.26-.21.48-.38.71-.54l.11-.08a8.32,8.32,0,0,1,1.69-1A7.29,7.29,0,0,1,12.73,1L13,.92a13.46,13.46,0,0,1,6.64,0A17.81,17.81,0,0,1,25.14,3.4,3.89,3.89,0,0,1,21,10a10.12,10.12,0,0,0-3.13-1.19,5.24,5.24,0,0,0-2.58.06,2,2,0,0,0-1.18,1,6.37,6.37,0,0,0-.57,2.48v.11A.7.7,0,0,1,12.89,13.1Z"/><path class="cls-1" d="M12.89,12.28a21.71,21.71,0,0,0,3.77,12.41c1.52,2.43,3.25,5.08,3.72,8,.6,3.67-.61,9.38-3.86,11.56Z"/><path class="cls-2" d="M16.52,44.92a.67.67,0,0,1-.57-.3.69.69,0,0,1,.19-1C19,41.73,20.3,36.48,19.7,32.78c-.43-2.63-1.94-5-3.4-7.38l-.22-.34A22.38,22.38,0,0,1,12.2,12.28a.69.69,0,0,1,1.38,0,21.11,21.11,0,0,0,3.67,12l.21.34c1.47,2.34,3.13,5,3.6,7.89.67,4.1-.73,9.95-4.15,12.25A.77.77,0,0,1,16.52,44.92Z"/></svg>