<svg id="Layer_1" data-name="Layer 1" xmlns="http://www.w3.org/2000/svg" viewBox="0 0 51.58 48.23"><defs><style>.cls-1{fill:#fbbc95;}.cls-2{fill:#7b483c;}</style></defs><path class="cls-1" d="M12.85,31.3l5.38-10.53a19,19,0,0,0,2.07-8.49l.07-8A3.79,3.79,0,0,1,28,4.43l.64,15,.7,11.08-7.62,11Z"/><path class="cls-2" d="M21.67,42.19a.63.63,0,0,1-.39-.13.68.68,0,0,1-.18-1l7.49-10.84L27.9,19.44l-.63-15a3.14,3.14,0,0,0-2.94-3.08,3.13,3.13,0,0,0-3.28,2.93l-.06,8a19.77,19.77,0,0,1-2.15,8.79L13.46,31.62A.69.69,0,1,1,12.24,31l5.38-10.54a18.55,18.55,0,0,0,2-8.17l.06-8a4.5,4.5,0,0,1,1.49-3.13A4.44,4.44,0,0,1,24.41,0a4.51,4.51,0,0,1,4.23,4.41l.64,14.94L30,30.66,22.23,41.89A.68.68,0,0,1,21.67,42.19Z"/><path class="cls-1" d="M6.1,42.86,6.23,42a4.07,4.07,0,0,0-1.39-3.7L3.06,36.77a3.37,3.37,0,0,1-.84-4.07l.22-.45a4.09,4.09,0,0,0-.75-4.68l0,0a3.37,3.37,0,0,1-.35-4.34l1.06-1.47A4.1,4.1,0,0,0,3,18.18H3a4.28,4.28,0,0,1,1.6-4.72C6.61,12,8.9,11.55,13.54,12l1.84,35.41a13.9,13.9,0,0,1-7.23-.93A3.4,3.4,0,0,1,6.1,42.86Z"/><path class="cls-2" d="M13.5,48.23a14.68,14.68,0,0,1-5.62-1.12,4.09,4.09,0,0,1-2.46-4.35h0l.13-.88A3.37,3.37,0,0,0,4.39,38.8L2.62,37.3a4.08,4.08,0,0,1-1-4.91l.23-.45a3.4,3.4,0,0,0-.63-3.88,4.06,4.06,0,0,1-.44-5.25l1.06-1.47a3.39,3.39,0,0,0,.48-3A5,5,0,0,1,4.16,12.9c2.26-1.62,4.73-2,9.44-1.59l.59.06L16.1,48l-.62.09A13,13,0,0,1,13.5,48.23ZM6.78,43a2.72,2.72,0,0,0,1.64,2.88,13.23,13.23,0,0,0,6.24,1L12.88,12.63C8.94,12.3,6.82,12.68,5,14a3.59,3.59,0,0,0-1.34,4,4.78,4.78,0,0,1-.69,4.16L1.88,23.61a2.68,2.68,0,0,0,.28,3.46,4.79,4.79,0,0,1,.9,5.48L2.84,33a2.7,2.7,0,0,0,.67,3.25l1.77,1.5a4.72,4.72,0,0,1,1.63,4.33Z"/><path class="cls-1" d="M12.51,11.89l35.23,3.83a3.8,3.8,0,0,1-1,7.52l-35.4-2.53Z"/><path class="cls-2" d="M47.09,24l-.43,0L11.27,21.39a.68.68,0,0,1-.64-.73.71.71,0,0,1,.74-.64l35.4,2.54A3.14,3.14,0,0,0,50.16,20a3.12,3.12,0,0,0-2.54-3.59L12.43,12.58a.69.69,0,0,1,.15-1.37L47.81,15a4.54,4.54,0,0,1,2.95,1.83A4.49,4.49,0,0,1,47.09,24Z"/><path class="cls-1" d="M11.08,20.81l.34,0L33,22.57s0,2-.19,4.05A3.72,3.72,0,0,1,29.07,30L11,29.71Z"/><path class="cls-2" d="M29.11,30.68h-.05L10.93,30.4A.69.69,0,0,1,11,29h0l18.12.28h0a3,3,0,0,0,3-2.75c.12-1.3.16-2.6.18-3.34l-21-1.69-.29,0a.69.69,0,0,1,0-1.38l.39,0,22.22,1.8v.63c0,.09,0,2.06-.19,4.11A4.44,4.44,0,0,1,29.11,30.68Z"/><path class="cls-1" d="M10.79,29.73h.32L29.79,30a2.32,2.32,0,0,1,2.28,2.31c0,.51,0,1.07,0,1.65a3.79,3.79,0,0,1-3.57,3.7l-17.22,1Z"/><path class="cls-2" d="M11.26,39.31a.69.69,0,0,1,0-1.38l17.22-1a3.09,3.09,0,0,0,2.92-3c0-.58,0-1.13,0-1.64a1.63,1.63,0,0,0-1.6-1.62L11.1,30.42h-.28a.7.7,0,0,1-.72-.65.69.69,0,0,1,.66-.72h.36l18.68.23a3,3,0,0,1,2.95,3c0,.52,0,1.08,0,1.67a4.48,4.48,0,0,1-4.22,4.36l-17.22,1Z"/><path class="cls-1" d="M11.73,38.58c.11,0,2.9,0,3,0L27,38.12a2.37,2.37,0,0,1,2.46,2.46c0,.37-.05.79-.09,1.24-.2,2-1.35,3.76-3.31,4L14.14,47.55Z"/><path class="cls-2" d="M14.14,48.23a.69.69,0,0,1-.68-.59.7.7,0,0,1,.59-.78L26,45.18c1.79-.25,2.58-1.94,2.73-3.43,0-.44.07-.84.08-1.2a1.63,1.63,0,0,0-.48-1.24,1.7,1.7,0,0,0-1.26-.5l-12.28.42h-1l-1.94,0a.69.69,0,0,1-.14-1.37l2.07,0h1L27,37.43a3.1,3.1,0,0,1,2.29.91,3,3,0,0,1,.88,2.27c0,.39-.05.81-.1,1.28-.24,2.52-1.77,4.35-3.89,4.65L14.24,48.23Z"/></svg>