<svg id="Layer_1" data-name="Layer 1" xmlns="http://www.w3.org/2000/svg" viewBox="0 0 43.84 55.65"><defs><style>.cls-1{fill:#fbbc95;}.cls-2{fill:#7b483c;}.cls-3{opacity:0.3;}</style></defs><path class="cls-1" d="M4.74,55h27l0-16.62,8-13.56C37,17,33.19,14.73,33,5.75L2.72,8.41l-2,15.77a22.06,22.06,0,0,0,4,14.36h0Z"/><path class="cls-2" d="M32.44,55.65H4.05V38.75a22.61,22.61,0,0,1-4-14.6L2.11,7.77,33.63,5l0,.73c.14,5.59,1.72,8.53,3.54,11.92a47.47,47.47,0,0,1,3.18,6.9l.11.3L32.41,38.53Zm-27-1.38H31.06l0-16.11L39,24.71a46.28,46.28,0,0,0-3-6.41C34.15,14.9,32.56,12,32.3,6.5l-29,2.55L1.4,24.27A21.3,21.3,0,0,0,5.32,38.16l.11.17Z"/><g class="cls-3"><path class="cls-2" d="M17.56,34.42c.05-.23-.06-.8,0-1a8.19,8.19,0,0,1,.93-2.14c2.24-5.29,7.12-6.75,12.67-9a5.83,5.83,0,0,1,3.95-.27c.07-.17.15-.33.22-.5.45-1.17.84-2.37,1.18-3.59-1.83-3.41-3.41-6.42-3.56-12.1L2.72,8.41l-1.3,10.2c-1.19,6.59,5.42,7.32,8.77,9.46C14.87,31.08,15.22,34.6,17.56,34.42Z"/></g><path class="cls-1" d="M23.92,20.28,25.45,4.74A3.79,3.79,0,0,1,33,5.48c0,.09,0,.19,0,.27L30.33,21.14a3.24,3.24,0,0,1-6.41-.86Z"/><path class="cls-2" d="M27.14,24.52a3.77,3.77,0,0,1-.66-.06,3.94,3.94,0,0,1-3.24-4.25h0L24.77,4.67a4.46,4.46,0,0,1,4.89-4,4.48,4.48,0,0,1,4,4.89c0,.1,0,.21,0,.31L31,21.26A3.93,3.93,0,0,1,27.14,24.52Zm-2.53-4.17a2.54,2.54,0,0,0,5,.68L32.28,5.64l0-.22A3.09,3.09,0,0,0,29.53,2a3,3,0,0,0-2.27.68,3.09,3.09,0,0,0-1.12,2.1L24.61,20.35Z"/><path class="cls-1" d="M17.54,20.62l.24-16.2a3.79,3.79,0,0,1,7.58.11c0,.1,0,.2,0,.3L23.86,21a3.17,3.17,0,0,1-6.32-.34Z"/><path class="cls-2" d="M20.71,24.52l-.36,0a3.88,3.88,0,0,1-3.5-3.89h0l.24-16.2a4.48,4.48,0,1,1,9,.14c0,.11,0,.23,0,.34L24.55,21A3.86,3.86,0,0,1,20.71,24.52Zm-2.48-3.89a2.48,2.48,0,0,0,4.95.26L24.66,4.76c0-.07,0-.16,0-.24a3.11,3.11,0,0,0-6.21-.09Z"/><path class="cls-1" d="M11,20.82,10.19,4.69a3.79,3.79,0,1,1,7.57-.4,2.44,2.44,0,0,1,0,.27l-.31,16.15a3.21,3.21,0,0,1-6.42.11Z"/><path class="cls-2" d="M14.25,24.55h-.07a3.92,3.92,0,0,1-3.82-3.7h0L9.5,4.73a4.48,4.48,0,0,1,9-.48c0,.11,0,.22,0,.32l-.3,16.15A3.9,3.9,0,0,1,14.25,24.55Zm-2.52-3.77a2.53,2.53,0,0,0,5.05-.09l.3-16.14a1.85,1.85,0,0,0,0-.23,3.1,3.1,0,1,0-6.19.33l.85,16.13Z"/><path class="cls-1" d="M4.46,20.82,2.72,8.41a3.79,3.79,0,1,1,7.51-1l0,.3L11,20.17a3.28,3.28,0,0,1-6.53.65Z"/><path class="cls-2" d="M7.72,24.33a4,4,0,0,1-3.94-3.42h0L2,8.51A4.48,4.48,0,0,1,5.85,3.45a4.48,4.48,0,0,1,5.06,3.81,2.19,2.19,0,0,1,0,.36l.74,12.51a3.93,3.93,0,0,1-1,2.87A4,4,0,0,1,8,24.33ZM5.14,20.72a2.6,2.6,0,0,0,4.51,1.37,2.56,2.56,0,0,0,.66-1.88L9.57,7.7a2.29,2.29,0,0,0,0-.25A3.12,3.12,0,0,0,6,4.81,3,3,0,0,0,4,6a3.09,3.09,0,0,0-.6,2.3Z"/><path class="cls-1" d="M30.33,21.14c.2-1.52,1.36-7.1,1.88-8.82a14.9,14.9,0,0,1,2.63-5.21,10.13,10.13,0,0,1,5.09-3.33,2.54,2.54,0,0,1,2,4.6l-.15.09A4.32,4.32,0,0,0,40,10.61a9.08,9.08,0,0,0-.51,3.1,57.11,57.11,0,0,0,.71,8.23c.35,2.7-2.68,6.8-4.38,9.45Z"/><path class="cls-2" d="M35.82,32.08A.69.69,0,0,1,35.24,31L36,29.89c1.61-2.44,3.81-5.78,3.54-7.86l0-.21a57.18,57.18,0,0,1-.69-8.13,9.74,9.74,0,0,1,.56-3.35,5,5,0,0,1,2.1-2.45l.14-.09a1.86,1.86,0,0,0-1.49-3.36,9.59,9.59,0,0,0-4.74,3.1,14.26,14.26,0,0,0-2.5,5c-.5,1.64-1.66,7.19-1.86,8.7a.69.69,0,0,1-1.36-.18c.21-1.59,1.38-7.19,1.9-8.93a15.6,15.6,0,0,1,2.76-5.45,10.94,10.94,0,0,1,5.44-3.56A3.24,3.24,0,0,1,42.34,9l-.15.09a3.72,3.72,0,0,0-1.56,1.81,8.69,8.69,0,0,0-.45,2.87,56.35,56.35,0,0,0,.67,7.91l0,.21c.34,2.59-1.93,6-3.75,8.8-.26.39-.51.76-.73,1.11A.67.67,0,0,1,35.82,32.08Z"/><path class="cls-2" d="M17.77,34.4h-.13a.68.68,0,0,1-.55-.8l0-.12c1-5.48,1.56-8.5,11.21-10.59a.69.69,0,0,1,.29,1.34c-8.75,1.9-9.19,4.28-10.15,9.5l0,.12A.68.68,0,0,1,17.77,34.4Z"/></svg>