<svg id="Layer_1" data-name="Layer 1" xmlns="http://www.w3.org/2000/svg" viewBox="0 0 40.17 74.63"><defs><style>.cls-1{fill:#fbbc95;}.cls-2{fill:#7b483c;}.cls-3{opacity:0.3;}</style></defs><path class="cls-1" d="M24.31,49.78a23.92,23.92,0,0,1-10-11.42,12.86,12.86,0,0,1-1-5.75,8.56,8.56,0,0,1,1-3.48,8.28,8.28,0,0,1,2.51-2.83,12.23,12.23,0,0,1,5.82-2,33.41,33.41,0,0,1,9.81.86,3.7,3.7,0,1,1-1.54,7.23l-.13,0a27.11,27.11,0,0,0-7.52-.94,5.77,5.77,0,0,0-2.44.62,1.22,1.22,0,0,0-.59,1.08,6.31,6.31,0,0,0,.48,2.77,15.82,15.82,0,0,0,1.65,3.18,16.63,16.63,0,0,0,5.07,5.06l.1.07a3.2,3.2,0,0,1-3.18,5.55Z"/><path class="cls-2" d="M25.86,50.87A3.85,3.85,0,0,1,24,50.38h0a23.64,23.64,0,0,1-7.71-7.11,23.31,23.31,0,0,1-2.56-4.65,13.64,13.64,0,0,1-1.09-6.06,9.23,9.23,0,0,1,1-3.75,8.92,8.92,0,0,1,2.71-3.07,12.79,12.79,0,0,1,6.15-2.09,34.22,34.22,0,0,1,10,.86,4.4,4.4,0,0,1,3.38,5.2,4.38,4.38,0,0,1-5.2,3.38l-.15,0a26.29,26.29,0,0,0-7.33-.92,5,5,0,0,0-2.09.5c-.24.2-.24.2-.29.6a5.76,5.76,0,0,0,.45,2.44,14.94,14.94,0,0,0,1.57,3,16.06,16.06,0,0,0,4.84,4.85l.11.06A3.89,3.89,0,0,1,29.23,49,3.9,3.9,0,0,1,25.86,50.87Zm-1.21-1.69a2.52,2.52,0,0,0,3.66-2.83,2.49,2.49,0,0,0-1.16-1.53L27,44.75a17.23,17.23,0,0,1-5.3-5.27A16.66,16.66,0,0,1,20,36.16a6.94,6.94,0,0,1-.53-3.11,1.85,1.85,0,0,1,.77-1.46l.13-.1a6.33,6.33,0,0,1,2.77-.73,27.64,27.64,0,0,1,7.74,1l.1,0a3,3,0,0,0,3.57-2.32,3,3,0,0,0-2.32-3.57A32.68,32.68,0,0,0,22.65,25a11.66,11.66,0,0,0-5.49,1.84,7.72,7.72,0,0,0-2.28,2.58,7.86,7.86,0,0,0-.89,3.2,12.41,12.41,0,0,0,1,5.47,21.69,21.69,0,0,0,2.4,4.36,22.22,22.22,0,0,0,7.26,6.71Z"/><path class="cls-1" d="M10.84,46.49a14.18,14.18,0,0,1-2.53-7.43,13,13,0,0,1,.14-2.15A16.31,16.31,0,0,1,9,34.76,10.27,10.27,0,0,1,11.67,31c.3-.25.58-.52.9-.74l1-.59a9.87,9.87,0,0,1,2.08-.87,5.21,5.21,0,0,1,1.07-.26l1.07-.17a16.43,16.43,0,0,1,2.1,0,18.93,18.93,0,0,1,7.31,2.19,3.7,3.7,0,1,1-3.32,6.61l-.12-.07L23.58,37a12.22,12.22,0,0,0-4.23-1.55,4.26,4.26,0,0,0-3.2.74A3.49,3.49,0,0,0,14.85,39a7.77,7.77,0,0,0,1.23,4l.05.09a3.13,3.13,0,0,1-5.29,3.36Z"/><path class="cls-2" d="M13.45,48.56a3.85,3.85,0,0,1-3.18-1.69h0a14.72,14.72,0,0,1-2.65-7.79,9.35,9.35,0,0,1,.08-1.67,5.62,5.62,0,0,0,.06-.56,16.4,16.4,0,0,1,.63-2.32,10.91,10.91,0,0,1,2.84-4l.22-.19a6.63,6.63,0,0,1,.72-.59c.36-.23.7-.43,1-.62A7.4,7.4,0,0,1,15,28.32l.43-.15a6.11,6.11,0,0,1,1.2-.29l1.07-.17a9.75,9.75,0,0,1,1.6-.06h.59a20,20,0,0,1,7.63,2.26,4.37,4.37,0,0,1,2,5.89,4.37,4.37,0,0,1-5.88,1.95l-.32-.17a11.06,11.06,0,0,0-4-1.46,3.58,3.58,0,0,0-2.69.59,2.81,2.81,0,0,0-1,2.29,7,7,0,0,0,1.13,3.67l.06.1A3.82,3.82,0,0,1,15.41,48,3.77,3.77,0,0,1,13.45,48.56Zm-2-2.46a2.44,2.44,0,0,0,4.12-2.61l-.06-.1A8.42,8.42,0,0,1,14.17,39a4.18,4.18,0,0,1,1.57-3.36,5,5,0,0,1,3.69-.87,12.62,12.62,0,0,1,4.48,1.63l.26.14a3,3,0,0,0,2.3.17,3,3,0,0,0,.4-5.55,17.85,17.85,0,0,0-7-2.11h-.59a8.76,8.76,0,0,0-1.36,0l-1.06.17a4.64,4.64,0,0,0-.93.22l-.46.16a6.92,6.92,0,0,0-1.49.65l-1,.6a5.64,5.64,0,0,0-.57.47l-.24.21A9.32,9.32,0,0,0,9.67,35a14,14,0,0,0-.55,2c0,.12,0,.32,0,.52A8.12,8.12,0,0,0,9,39,13.41,13.41,0,0,0,11.42,46.1Z"/><path class="cls-1" d="M14.21,42a21.2,21.2,0,0,1-3.66-8.17A14.84,14.84,0,0,1,10.33,29,8.87,8.87,0,0,1,13,23.62a9.58,9.58,0,0,1,5.36-2.36,16,16,0,0,1,4.88.21,26.62,26.62,0,0,1,8.23,3.19,3.7,3.7,0,0,1-3.69,6.41L27.62,31A19.57,19.57,0,0,0,21.8,28.4a9.09,9.09,0,0,0-2.7-.26,3,3,0,0,0-1.58.48A2.06,2.06,0,0,0,16.86,30a8,8,0,0,0,.05,2.7,14.83,14.83,0,0,0,2.31,5.75l0,0a3.09,3.09,0,0,1-5,3.56Z"/><path class="cls-2" d="M16.7,44a3.78,3.78,0,0,1-3-1.56h0A21.72,21.72,0,0,1,9.88,34a15,15,0,0,1-.23-5.13,9.54,9.54,0,0,1,2.86-5.77,10.15,10.15,0,0,1,5.75-2.53,16.7,16.7,0,0,1,5.09.22,26.74,26.74,0,0,1,8.44,3.27,4.38,4.38,0,1,1-4.37,7.6l-.17-.11a18.8,18.8,0,0,0-5.61-2.49,8.75,8.75,0,0,0-2.49-.25,2.6,2.6,0,0,0-1.19.32,1.58,1.58,0,0,0-.42.95,7.59,7.59,0,0,0,0,2.46A14.21,14.21,0,0,0,19.79,38a3.78,3.78,0,0,1-3.09,6Zm-1.94-2.37a2.4,2.4,0,0,0,3.92-2.76,15.69,15.69,0,0,1-2.45-6.08,8.53,8.53,0,0,1,0-2.93A2.77,2.77,0,0,1,17.14,28a3.66,3.66,0,0,1,1.9-.59,9.6,9.6,0,0,1,2.92.29,19.9,19.9,0,0,1,6,2.66l.12.08a3,3,0,0,0,3-5.22,25.77,25.77,0,0,0-8-3.11,14.93,14.93,0,0,0-4.67-.2,8.74,8.74,0,0,0-5,2.17A8.08,8.08,0,0,0,11,29.06a13.59,13.59,0,0,0,.21,4.67A20.31,20.31,0,0,0,14.76,41.62Z"/><g class="cls-3"><path class="cls-2" d="M10.84,46.49a14.18,14.18,0,0,1-2.53-7.43,13,13,0,0,1,.14-2.15A16.31,16.31,0,0,1,9,34.76,10.27,10.27,0,0,1,11.67,31c.3-.25.58-.52.9-.74l1-.59a9.87,9.87,0,0,1,2.08-.87,5.21,5.21,0,0,1,1.07-.26l1.07-.17a16.43,16.43,0,0,1,2.1,0,18.93,18.93,0,0,1,7.31,2.19,3.7,3.7,0,1,1-3.32,6.61l-.12-.07L23.58,37a12.22,12.22,0,0,0-4.23-1.55,4.26,4.26,0,0,0-3.2.74A3.49,3.49,0,0,0,14.85,39a7.77,7.77,0,0,0,1.23,4l.05.09a3.13,3.13,0,0,1-5.29,3.36Z"/></g><g class="cls-3"><path class="cls-2" d="M14.21,42a21.2,21.2,0,0,1-3.66-8.17A14.84,14.84,0,0,1,10.33,29,8.87,8.87,0,0,1,13,23.62a9.58,9.58,0,0,1,5.36-2.36,16,16,0,0,1,4.88.21,26.62,26.62,0,0,1,8.23,3.19,3.7,3.7,0,0,1-3.69,6.41L27.62,31A19.57,19.57,0,0,0,21.8,28.4a9.09,9.09,0,0,0-2.7-.26,3,3,0,0,0-1.58.48A2.06,2.06,0,0,0,16.86,30a8,8,0,0,0,.05,2.7,14.83,14.83,0,0,0,2.31,5.75l0,0a3.09,3.09,0,0,1-5,3.56Z"/></g><path class="cls-1" d="M39.48,73.94H15.39l.69-14.86c-6.94-7-3.87-13.61-5.37-21.28-.84-9.5,18.31,8.64,15.55-15l9.45,1.33s3,4.19,3.77,33.78Z"/><path class="cls-2" d="M40.17,74.63H14.67l.71-15.29c-4.75-5-4.8-9.64-4.84-14.61a37.15,37.15,0,0,0-.5-6.8,3.54,3.54,0,0,1,.83-3.12c1.2-1.1,3.23-.73,5.58-.31,2.65.47,5.66,1,7.47-.69s2.31-5.32,1.65-10.92l-.1-.89,10.62,1.5.17.24c.13.18,3.18,4.7,3.91,34.16ZM16.11,73.26H38.79V57.92C38.16,32.47,35.85,26,35.27,24.78L27,23.61c.56,5.64-.15,9.31-2.17,11.2-2.31,2.18-5.83,1.55-8.65,1-1.91-.34-3.72-.66-4.41,0a2.29,2.29,0,0,0-.4,1.91,37.23,37.23,0,0,1,.51,7C12,49.68,12,54,16.57,58.6l.21.21Z"/><path class="cls-1" d="M26.59,27.62c-1.19-4.81-2.16-7.52-5.38-10.9-1.6-1.7-3.31-3.36-5.06-5.11a41.15,41.15,0,0,1-5.2-6A3.15,3.15,0,0,1,16.1,2l.07.1a36.42,36.42,0,0,0,4.55,4.8c1.74,1.62,3.58,3.28,5.38,5,3.61,3.52,7.56,7.68,9.89,12.8Z"/><path class="cls-2" d="M26.59,28.3a.69.69,0,0,1-.67-.52c-1.17-4.7-2.06-7.28-5.2-10.58-1.21-1.28-2.45-2.51-3.77-3.82L15.51,12A41,41,0,0,1,10.38,6a3.84,3.84,0,0,1,6.27-4.44l.08.1a36.2,36.2,0,0,0,4.45,4.71L22.5,7.59c1.34,1.23,2.73,2.51,4.08,3.84,3.85,3.75,7.73,7.93,10,13a.7.7,0,0,1-.34.91.69.69,0,0,1-.91-.34c-2.22-4.88-6-8.94-9.75-12.6-1.34-1.32-2.72-2.58-4.05-3.81L20.25,7.38a36.17,36.17,0,0,1-4.64-4.9l-.07-.1a2.46,2.46,0,0,0-3.37-.57,2.5,2.5,0,0,0-1,1.57,2.47,2.47,0,0,0,.39,1.85,39.81,39.81,0,0,0,5,5.75l1.43,1.43c1.33,1.31,2.58,2.55,3.79,3.84,3.22,3.38,4.27,6.07,5.55,11.2a.69.69,0,0,1-.51.83A.44.44,0,0,1,26.59,28.3Z"/><path class="cls-1" d="M10.71,37.8C8.29,31.69,6,26.37,5,24.39a15.34,15.34,0,0,0-3.45-4.94l-.1-.09a2.48,2.48,0,0,1,2.9-4,21.11,21.11,0,0,1,6.07,5.56c1.59,2.06,2.91,4,4.29,5.91s2.78,3.63,4.27,5.32,3.06,3.27,4.66,4.83l.06,0Z"/><path class="cls-2" d="M10.71,38.49a.69.69,0,0,1-.64-.44c-2.37-6-4.68-11.36-5.65-13.36A14.69,14.69,0,0,0,1.12,20L1,19.86a3.17,3.17,0,0,1,3.71-5.08A21.83,21.83,0,0,1,11,20.53c1,1.23,1.81,2.45,2.65,3.62.55.78,1.09,1.55,1.65,2.29,1.39,1.9,2.77,3.62,4.22,5.28s3,3.22,4.63,4.78l-.43.55-.47.49C21.64,36,20,34.34,18.5,32.62s-2.89-3.44-4.3-5.36c-.56-.75-1.11-1.52-1.67-2.31-.82-1.16-1.68-2.37-2.62-3.59A20.4,20.4,0,0,0,4.05,16,1.79,1.79,0,0,0,2,18.85l.1.09A16.05,16.05,0,0,1,5.66,24.1c1,2,3.31,7.42,5.69,13.45a.69.69,0,0,1-.38.89A.8.8,0,0,1,10.71,38.49Z"/></svg>