<svg id="Layer_1" data-name="Layer 1" xmlns="http://www.w3.org/2000/svg" viewBox="0 0 34.25 50.58"><defs><style>.cls-1{fill:#fbbc95;}.cls-2{fill:#7b483c;}</style></defs><path class="cls-1" d="M5,5.67l.81.12A3.77,3.77,0,0,0,9.22,4.51l1.39-1.64a3.11,3.11,0,0,1,3.74-.77l.42.2a3.76,3.76,0,0,0,4.3-.69l0,0a3.11,3.11,0,0,1,4-.32l1.35,1a3.76,3.76,0,0,0,3.28.54h0a3.93,3.93,0,0,1,4.34,1.47c1.35,1.88,1.76,4,1.35,8.26L.81,14.21a12.75,12.75,0,0,1,.86-6.65A3.13,3.13,0,0,1,5,5.67Z"/><path class="cls-2" d="M.22,14.93l-.09-.62a13.43,13.43,0,0,1,.91-7A3.8,3.8,0,0,1,5.1,5l.81.12A3,3,0,0,0,8.69,4.06l1.39-1.63a3.8,3.8,0,0,1,4.58-1l.41.21a3.09,3.09,0,0,0,3.52-.57,3.79,3.79,0,0,1,4.9-.41l1.35,1a3.08,3.08,0,0,0,2.68.44,4.64,4.64,0,0,1,5.1,1.73c1.5,2.09,1.89,4.38,1.48,8.73l-.06.59Zm4.33-8.6A2.43,2.43,0,0,0,2.31,7.82a12,12,0,0,0-.89,5.67l31.36-1.63c.29-3.59-.06-5.51-1.28-7.21a3.23,3.23,0,0,0-3.58-1.21A4.47,4.47,0,0,1,24,2.8l-1.35-1a2.42,2.42,0,0,0-3.12.25,4.44,4.44,0,0,1-5.1.84l-.42-.2a2.41,2.41,0,0,0-2.92.6L9.74,5a4.38,4.38,0,0,1-4,1.52L4.9,6.35Z"/><path class="cls-1" d="M33.5,11.56,30.8,44a3.5,3.5,0,0,1-6.93-.93l1.52-32.59Z"/><path class="cls-2" d="M27.35,47.58a3.31,3.31,0,0,1-.7-.06A4.19,4.19,0,0,1,23.19,43l1.52-32.55a.69.69,0,0,1,1.37.07L24.56,43.09a2.81,2.81,0,0,0,5.56.78l2.7-32.36a.69.69,0,0,1,1.37.11L31.48,44.05A4.2,4.2,0,0,1,27.35,47.58Z"/><path class="cls-1" d="M25.3,10.25c0,.1,0,.21,0,.31L23.67,46.78a3.42,3.42,0,0,1-6.82-.36l.26-36.29Z"/><path class="cls-2" d="M20.28,50.58l-.39,0a4.13,4.13,0,0,1-3.73-4.15l.26-36.29a.69.69,0,0,1,.69-.68h0a.68.68,0,0,1,.68.69l-.25,36.29A2.75,2.75,0,0,0,20,49.19a2.66,2.66,0,0,0,2-.62,2.7,2.7,0,0,0,1-1.85l1.6-36.19c0-.11,0-.21,0-.29a.72.72,0,0,1,.7-.68.68.68,0,0,1,.67.7c0,.12,0,.25,0,.36l-1.6,36.19a4.11,4.11,0,0,1-4.08,3.77Z"/><path class="cls-1" d="M17.08,10c0,.1,0,.2,0,.3l-.24,19.27s-1.71,0-3.62,0a3.48,3.48,0,0,1-3.4-3.28L8.91,10.42Z"/><path class="cls-2" d="M15,30.26l-1.83,0A4.18,4.18,0,0,1,9.14,26.3L8.22,10.46a.69.69,0,0,1,.65-.73.67.67,0,0,1,.72.65l.92,15.85a2.79,2.79,0,0,0,2.73,2.63c1.17,0,2.26,0,2.93,0l.23-18.6V10A.69.69,0,0,1,17.77,10c0,.11,0,.23,0,.34l-.25,19.94h-.67S16.1,30.26,15,30.26Zm1.81-.71h0Z"/><path class="cls-1" d="M9,10.85c0,.1,0,2.67,0,2.78l.46,13.48A13.7,13.7,0,0,1,6,27.1c-1.85-.18-3.46-1.24-3.72-3l-1.55-11Z"/><path class="cls-2" d="M7.91,27.89a20.15,20.15,0,0,1-2-.1c-2.35-.23-4-1.66-4.33-3.64L0,13.17a.68.68,0,0,1,.58-.78.7.7,0,0,1,.78.59L2.92,24A3.17,3.17,0,0,0,6,26.42a16.53,16.53,0,0,0,2.7.07L8.29,13.65s0-.44,0-1c0-.73,0-1.65,0-1.8a.69.69,0,0,1,1.37-.15c0,.09,0,.2,0,1.94,0,.46,0,.84,0,.91l.48,14.08-.59.11A11.46,11.46,0,0,1,7.91,27.89Z"/></svg>