<svg id="Layer_1" data-name="Layer 1" xmlns="http://www.w3.org/2000/svg" viewBox="0 0 39.24 83.19"><defs><style>.cls-1{fill:#fbbc95;}.cls-2{fill:#7b483c;}.cls-3{opacity:0.3;}</style></defs><path class="cls-1" d="M3.25,82.27l24.13.23-.52-9.1,10.3-17.3c-2.42-7.85-3.91-17.75-5.24-26-2-1.71-12,4.94-28.71,1.9L1.1,49.84c-1,7.31.13,10.86,1.24,16.42Z"/><path class="cls-2" d="M28.1,83.19,2.6,83l-1-16.65c-.14-.69-.3-1.44-.45-2.17-.95-4.47-1.7-8-.79-14.39L2.61,31.2l.72.13A51.07,51.07,0,0,0,26.66,30c2.95-.76,4.74-1.22,5.71-.38l.19.16.37,2.34c1.26,7.81,2.68,16.66,4.89,23.81l.09.29L27.56,73.57ZM3.9,81.59l22.75.21-.49-8.57L36.42,56c-2.19-7.19-3.6-16-4.84-23.7l-.29-1.77c-.66-.18-2.5.3-4.28.76a52.27,52.27,0,0,1-23.2,1.51l-2,17.11c-.88,6.16-.16,9.59.76,13.93.16.73.32,1.48.47,2.28Z"/><g class="cls-3"><path class="cls-2" d="M14.77,63.66c3.43-11,7.51-15.48,12.06-15.3-2.43-7.86-2.75-3-4.08-11.22-2-1.71-2.88-2.09-19.54-5.13L1.55,46C11.27,48.28,14.77,63.66,14.77,63.66Z"/></g><path class="cls-1" d="M15.32,34.59l.45-30.7a3.21,3.21,0,0,1,6.42-.09l1.67,31.32Z"/><path class="cls-2" d="M23.86,35.81a.69.69,0,0,1-.69-.66L21.5,3.83A2.51,2.51,0,0,0,19,1.38h0a2.53,2.53,0,0,0-1.78.73,2.5,2.5,0,0,0-.74,1.78L16,34.6a.69.69,0,0,1-1.38,0l.45-30.7A3.91,3.91,0,0,1,19,0h0a3.88,3.88,0,0,1,3.89,3.77l1.66,31.31a.68.68,0,0,1-.65.72Z"/><path class="cls-1" d="M24.14,35.06,22.75,4a3.16,3.16,0,0,1,6.32,0l3,27.1Z"/><path class="cls-2" d="M24.14,35.74a.68.68,0,0,1-.69-.65L22.06,4A3.86,3.86,0,0,1,25.91.17H26A3.85,3.85,0,0,1,29.76,4l2.95,27a.69.69,0,0,1-1.37.15L28.39,4.06A2.49,2.49,0,0,0,26,1.55h-.05A2.47,2.47,0,0,0,23.44,4L24.83,35a.68.68,0,0,1-.66.71Z"/><path class="cls-1" d="M15.38,63.66C16,58,19.28,49.25,26.07,47.89Z"/><path class="cls-2" d="M15.38,64.35h-.07a.69.69,0,0,1-.61-.76c.55-5,3.6-14.84,11.23-16.37a.69.69,0,0,1,.81.54.68.68,0,0,1-.54.81c-6.35,1.28-9.54,9.77-10.13,15.17A.69.69,0,0,1,15.38,64.35Z"/><path class="cls-1" d="M13.18,42.92,9.78,30a3.43,3.43,0,1,0-6.57,2s0,.08,0,.1l4.37,12.6a2.93,2.93,0,0,0,5.57-1.79Z"/><path class="cls-2" d="M10.38,47.39A3.62,3.62,0,0,1,8.78,47,3.57,3.57,0,0,1,7,44.93L2.55,32.2a4.11,4.11,0,0,1,5.88-4.82,4.08,4.08,0,0,1,2,2.44l3.42,12.91a3.61,3.61,0,0,1-2.31,4.47A3.57,3.57,0,0,1,10.38,47.39ZM6.5,28.27a2.84,2.84,0,0,0-.81.12,2.73,2.73,0,0,0-1.82,3.42L8.26,44.49a2.23,2.23,0,0,0,2.84,1.4,2.24,2.24,0,0,0,1.43-2.77v0L9.11,30.19a2.73,2.73,0,0,0-1.33-1.6A2.76,2.76,0,0,0,6.5,28.27Z"/><path class="cls-1" d="M18.85,39.32,16.17,24.83a3.79,3.79,0,1,0-7.4,1.65l0,.11,3.76,14.24a3.23,3.23,0,0,0,6.29-1.51Z"/><path class="cls-2" d="M15.69,44a3.94,3.94,0,0,1-3.8-3L8.1,26.63a4.48,4.48,0,0,1,8.74-2l2.68,14.51a3.9,3.9,0,0,1-2.85,4.64A3.67,3.67,0,0,1,15.69,44Zm-3.21-21.4a3.12,3.12,0,0,0-3,3.78l0,.1,3.76,14.22a2.54,2.54,0,0,0,4.95-1.18v0L15.49,25a3.09,3.09,0,0,0-3-2.4Z"/><path class="cls-1" d="M26.83,48.36c-.15-.37-.3-.74-.44-1.13a8.46,8.46,0,0,0-3-3.66c-1.49-1.09-3.62-1.91-6.05-3.29l-.9-.54c-.3-.19-.62-.44-.92-.66a11.49,11.49,0,0,1-1.71-1.58,5.08,5.08,0,0,1-.73-.93l-.65-1c-.35-.68-.61-1.4-.89-2.09a2.45,2.45,0,0,1,4.4-2.15l.19.31A6.18,6.18,0,0,0,20,34.47c1.82.6,4.27,1,6.94,2.08a16.8,16.8,0,0,1,4,2.25,17.2,17.2,0,0,1,3.35,3.36l1.32,1.92,1,2a13.44,13.44,0,0,1,.84,2l.74,2c1,2.84-.36,4.91-2.24,8.07Z"/><path class="cls-2" d="M36,58.82a.64.64,0,0,1-.35-.1.68.68,0,0,1-.24-.94l.3-.51c1.71-2.86,2.75-4.59,1.88-7l-.77-2.11a12.76,12.76,0,0,0-.76-1.8l-1-2c-.39-.58-.82-1.21-1.26-1.84a16.69,16.69,0,0,0-7-5.37,32.36,32.36,0,0,0-4.63-1.43c-.81-.21-1.58-.4-2.27-.63A6.93,6.93,0,0,1,15.5,32l-.18-.32a1.77,1.77,0,0,0-3.17,1.55l.15.39c.22.55.45,1.12.71,1.65l.61.93a5.27,5.27,0,0,0,.63.81,10.94,10.94,0,0,0,1.63,1.51l.3.22c.2.15.4.3.6.43l.89.53c1,.55,1.88,1,2.76,1.45A23.39,23.39,0,0,1,23.76,43,9.1,9.1,0,0,1,27,47c.15.42.3.79.45,1.14a.7.7,0,0,1-.37.9.69.69,0,0,1-.9-.37c-.16-.37-.31-.75-.46-1.15A7.58,7.58,0,0,0,23,44.14a22.54,22.54,0,0,0-3.14-1.77C19,41.94,18,41.46,17,40.88l-.92-.55c-.24-.16-.47-.33-.7-.51l-.26-.19A11.59,11.59,0,0,1,13.28,38a5.44,5.44,0,0,1-.8-1l-.66-1c-.33-.66-.57-1.26-.8-1.84l-.15-.38A3.15,3.15,0,0,1,16.51,31l.18.32a5.54,5.54,0,0,0,3.56,2.51c.64.21,1.39.4,2.18.61a33.54,33.54,0,0,1,4.82,1.49,18,18,0,0,1,7.58,5.82c.47.66.91,1.31,1.35,2l1,2a14.29,14.29,0,0,1,.85,2l.76,2.11c1.1,3-.26,5.27-2,8.15l-.3.5A.69.69,0,0,1,36,58.82Z"/></svg>