<svg id="Layer_1" data-name="Layer 1" xmlns="http://www.w3.org/2000/svg" viewBox="0 0 37.78 76.5"><defs><style>.cls-1{fill:#fbbc95;}.cls-2{fill:#7b483c;}.cls-3{opacity:0.3;}</style></defs><path class="cls-1" d="M3.73,75.81h27l0-9.61,4.66-9.43c-2.73-7.76-2.29-13-3.31-21.83-9.73-1.59-19.69-.84-30.11,4.91l-1.11,13c-.62,6.05.79,10.37,2.9,13.56Z"/><path class="cls-2" d="M31.43,76.5H3V66.6C.57,62.77-.4,58.12.15,52.76L1.29,39.42l.32-.17c9.51-5.25,19.22-6.83,30.56-5l.51.09.06.51c.29,2.52.46,4.7.62,6.81.4,5.25.72,9.4,2.65,14.87l.1.27-4.72,9.55Zm-27-1.37H30.05L30,66l4.6-9.32c-1.9-5.51-2.24-9.89-2.63-14.95-.15-2-.31-4-.56-6.23C20.77,33.9,11.58,35.4,2.6,40.27L1.52,52.89C1,58.09,1.9,62.38,4.3,66l.12.17Z"/><path class="cls-1" d="M16.87,38.11l.6-34.29a3.16,3.16,0,0,1,6.32,0l.92,37.83Z"/><path class="cls-2" d="M24.71,42.3a.69.69,0,0,1-.68-.67L23.11,3.79a2.47,2.47,0,0,0-2.46-2.41,2.4,2.4,0,0,0-1.76.71,2.47,2.47,0,0,0-.74,1.74l-.59,34.29a.72.72,0,0,1-.7.68.68.68,0,0,1-.67-.7l.59-34.29a3.83,3.83,0,0,1,1.15-2.7A3.81,3.81,0,0,1,20.63,0h0a3.84,3.84,0,0,1,3.82,3.76L25.4,41.6a.68.68,0,0,1-.67.7Z"/><g class="cls-3"><path class="cls-2" d="M32.05,34.94a52.76,52.76,0,0,0-14.91-.28c-3.85,4.46,4.37,10.83,4.37,10.83S17.14,48.15,16.87,60c.55-1.32,1.19-1.52,2-2.67a11,11,0,0,1,4-3.49,13.53,13.53,0,0,1,6.63-4.12,8.85,8.85,0,0,1,4-.1C32.77,45.09,32.73,40.81,32.05,34.94Z"/></g><path class="cls-1" d="M30.33,7.13l2.24,34.33a3.79,3.79,0,0,1-7.56.48.53.53,0,0,0,0-.12L23.88,7.44a3.23,3.23,0,0,1,6.45-.31Z"/><path class="cls-2" d="M28.78,46.18A4.48,4.48,0,0,1,24.32,42v-.12L23.19,7.46a3.93,3.93,0,0,1,3.79-4,3.92,3.92,0,0,1,4,3.67l2.24,34.33a4.48,4.48,0,0,1-4.18,4.75ZM27.11,4.79H27a2.57,2.57,0,0,0-1.77.81,2.54,2.54,0,0,0-.69,1.82L25.69,41.8a3.15,3.15,0,0,0,1,2.23A3.08,3.08,0,0,0,29,44.8a3.14,3.14,0,0,0,2.13-1,3.08,3.08,0,0,0,.77-2.25L29.65,7.18A2.54,2.54,0,0,0,27.11,4.79Z"/><path class="cls-1" d="M9.44,38.56,10.72,7.65a3.21,3.21,0,0,1,6.42.16l-.27,30.3Z"/><path class="cls-2" d="M9.44,39.25h0a.69.69,0,0,1-.66-.72L10,7.62a3.9,3.9,0,0,1,7.8.19l-.27,30.31a.68.68,0,0,1-.69.68h0a.68.68,0,0,1-.68-.69L16.45,7.8A2.51,2.51,0,0,0,14,5.26a2.53,2.53,0,0,0-2.62,2.42L10.13,38.59A.69.69,0,0,1,9.44,39.25Z"/><path class="cls-1" d="M1.87,40.81c0-.05,0-.1,0-.15l2-25.21a3.29,3.29,0,0,1,6.56.37l-1,22.74Z"/><path class="cls-2" d="M1.87,41.5h0a.7.7,0,0,1-.66-.72v-.16l2-25.22a4,4,0,0,1,7.93.44l-1,22.75a.68.68,0,0,1-.71.66.69.69,0,0,1-.66-.72l1-22.74a2.59,2.59,0,0,0-4.28-2.06,2.55,2.55,0,0,0-.9,1.77l-2,25.34A.69.69,0,0,1,1.87,41.5Z"/><path class="cls-1" d="M17.27,59.49a25.49,25.49,0,0,1,9.47-12.37A13.49,13.49,0,0,0,25,43.24a9.26,9.26,0,0,0-1.41-1.58c-.61-.54-1.29-1.07-2.08-1.7A23.73,23.73,0,0,1,17,35.5a2.55,2.55,0,0,1,3.72-3.43l0,0a18.16,18.16,0,0,0,4.13,2.62c.77.38,1.68.82,2.61,1.35a16.66,16.66,0,0,1,2.85,2,21,21,0,0,1,4.24,5.49,24.19,24.19,0,0,1,2,4.15c1.8,3.94-1.2,9-4,14.65Z"/><path class="cls-2" d="M32.58,63.09a.7.7,0,0,1-.31-.07A.69.69,0,0,1,32,62.1c.3-.6.59-1.19.89-1.77,2.44-4.87,4.56-9.07,3.09-12.29a25.22,25.22,0,0,0-2-4.1,20,20,0,0,0-4.11-5.31,15.83,15.83,0,0,0-2.74-2c-.82-.46-1.64-.87-2.37-1.23l-.2-.1a18.28,18.28,0,0,1-4.28-2.72,1.87,1.87,0,0,0-3.08,1.1,1.88,1.88,0,0,0,.34,1.38,23.22,23.22,0,0,0,4.37,4.32c.84.67,1.51,1.2,2.11,1.73a10.18,10.18,0,0,1,1.53,1.72,13.77,13.77,0,0,1,1.85,4.06l.15.48-.4.28a24.77,24.77,0,0,0-9.22,12,.68.68,0,0,1-.88.41.7.7,0,0,1-.42-.88,26,26,0,0,1,9.31-12.39,12.11,12.11,0,0,0-1.52-3.22,8.81,8.81,0,0,0-1.33-1.49c-.55-.49-1.2-1-2-1.6a24.37,24.37,0,0,1-4.7-4.65,3.22,3.22,0,0,1,.69-4.51,3.26,3.26,0,0,1,4,.16,17.14,17.14,0,0,0,4,2.55l.2.1c.74.36,1.58.78,2.45,1.27a17.6,17.6,0,0,1,3,2.14,21.26,21.26,0,0,1,4.37,5.65,25.15,25.15,0,0,1,2,4.17c1.75,3.86-.61,8.55-3.1,13.51-.29.58-.59,1.17-.88,1.77A.7.7,0,0,1,32.58,63.09Z"/></svg>