<svg id="Layer_1" data-name="Layer 1" xmlns="http://www.w3.org/2000/svg" viewBox="0 0 54.79 75.73"><defs><style>.cls-1{fill:#fbbc95;}.cls-2{fill:#7b483c;}.cls-3{opacity:0.3;}</style></defs><path class="cls-1" d="M3.65,75h27l0-16.61L40.3,51.9C29,42.18,31.11,34.19,30,28.54L.87,33.79V44.73c0,7.52.66,10.7,2.78,13.89h0Z"/><path class="cls-2" d="M31.34,75.73H3V58.83C.83,55.53.18,52.19.18,44.73V33.21L30.5,27.75l.14.66a33.55,33.55,0,0,1,.45,3.83c.41,5.17.92,11.6,9.66,19.14l.68.59L31.31,58.79Zm-27-1.38H30l0-16.29,9.25-6.23c-8.52-7.66-9-14.2-9.46-19.48-.09-1.06-.17-2.07-.31-3l-27.86,5V44.73c0,7.27.63,10.43,2.67,13.51l.11.18Z"/><g class="cls-3"><path class="cls-2" d="M22.73,29.85.87,33.79,1,41.2c-.17,6.76,11.84,3.86,16.6,13,.7-4.75,2.75-7.28,5.46-8.69Z"/></g><path class="cls-1" d="M30.11,29.49,25.84,3.61A3.23,3.23,0,0,0,19.39,4l3.38,28.62Z"/><path class="cls-2" d="M22.77,33.31a.69.69,0,0,1-.68-.61L18.7,4.08A4,4,0,0,1,22.25,0a3.93,3.93,0,0,1,4.28,3.53l4.26,25.83a.69.69,0,0,1-.56.79.71.71,0,0,1-.8-.57L25.16,3.73A2.53,2.53,0,0,0,24.24,2a2.5,2.5,0,0,0-1.86-.57A2.56,2.56,0,0,0,20.08,4l3.38,28.55a.7.7,0,0,1-.61.77Z"/><path class="cls-1" d="M16.07,38.94l-.54-11.65a3.79,3.79,0,1,1,7.57-.39v.29l-.71,11.66a3.16,3.16,0,0,1-6.32.09Z"/><path class="cls-2" d="M19.23,42.63h-.1A3.89,3.89,0,0,1,15.38,39h0l-.54-11.65a4.48,4.48,0,0,1,9-.46v.34l-.71,11.69A3.86,3.86,0,0,1,19.23,42.63ZM16.76,38.9a2.49,2.49,0,0,0,2.41,2.35h.06a2.49,2.49,0,0,0,2.48-2.41l.71-11.69a1.86,1.86,0,0,0,0-.22A3.1,3.1,0,0,0,19.15,24,3,3,0,0,0,17,25a3.07,3.07,0,0,0-.8,2.24Z"/><path class="cls-1" d="M9.6,39.57,8,28.07a3.79,3.79,0,1,1,7.53-.91,2.45,2.45,0,0,1,0,.27L16,39a3.21,3.21,0,0,1-6.39.54Z"/><path class="cls-2" d="M12.79,43.09a3.91,3.91,0,0,1-3.87-3.43L7.29,28.16a4.47,4.47,0,0,1,3.91-5,4.48,4.48,0,0,1,5,3.91l0,.31L16.68,39A3.9,3.9,0,0,1,13,43.08Zm-1-18.58-.38,0A3.11,3.11,0,0,0,8.65,28l1.63,11.51a2.52,2.52,0,0,0,4.38,1.39,2.5,2.5,0,0,0,.65-1.81l-.48-11.61a1.64,1.64,0,0,0,0-.22A3.1,3.1,0,0,0,11.74,24.51Z"/><path class="cls-1" d="M3,40,.76,32.28a3.79,3.79,0,1,1,7.43-1.55c0,.09,0,.2.05.3l1.26,7.9A3.28,3.28,0,0,1,3,40Z"/><path class="cls-2" d="M6.25,43.31a4,4,0,0,1-3.89-3.13L.1,32.47a4.49,4.49,0,0,1,.63-3.42,4.42,4.42,0,0,1,2.83-1.93,4.49,4.49,0,0,1,5.3,3.46l.06.36,1.26,7.88a4,4,0,0,1-3.44,4.46A4,4,0,0,1,6.25,43.31ZM4.48,28.4a2.79,2.79,0,0,0-.64.07,3.09,3.09,0,0,0-2.4,3.67L3.7,39.87a2.6,2.6,0,0,0,4.6,1.06A2.59,2.59,0,0,0,8.82,39L7.56,31.14c0-.1,0-.19,0-.27A3.11,3.11,0,0,0,4.48,28.4Z"/><path class="cls-2" d="M18.18,54.49h-.12a.68.68,0,0,1-.55-.8l0-.12c1-5.49,1.55-8.51,11.2-10.6a.69.69,0,0,1,.82.53.69.69,0,0,1-.53.82c-8.75,1.89-9.18,4.28-10.14,9.5l0,.11A.69.69,0,0,1,18.18,54.49Z"/><path class="cls-1" d="M28.88,43.63c4.18-.23,10.09-1.7,11.43-2.76A59.5,59.5,0,0,1,45,37.18a18.5,18.5,0,0,1,6-2.54,2.49,2.49,0,0,1,1.73,4.61l-.1,0a12.85,12.85,0,0,0-3.59,2.84c-1,1.11-1.86,2.54-3.06,4.17a22.81,22.81,0,0,1-4.68,4.83c-1.9,1.44-3.95,2.66-5.87,4Z"/><path class="cls-2" d="M35.5,55.83a.69.69,0,0,1-.4-1.25c.76-.54,1.55-1,2.34-1.57,1.17-.77,2.39-1.56,3.52-2.42a22.36,22.36,0,0,0,4.53-4.69c.42-.57.8-1.11,1.16-1.63a26.85,26.85,0,0,1,2-2.59,13.44,13.44,0,0,1,3.77-3l.11-.06a1.8,1.8,0,0,0-1.26-3.33,17.71,17.71,0,0,0-5.81,2.44,33.45,33.45,0,0,0-3.3,2.53c-.48.41-.94.79-1.38,1.13-1.48,1.18-7.56,2.68-11.81,2.91a.7.7,0,0,1-.73-.65.68.68,0,0,1,.65-.72c4.21-.24,9.88-1.7,11-2.62.43-.34.88-.71,1.35-1.1a32,32,0,0,1,3.43-2.63A19.1,19.1,0,0,1,50.92,34a3.17,3.17,0,0,1,2.21,5.88l-.1.06a12.09,12.09,0,0,0-3.4,2.68,26.88,26.88,0,0,0-1.85,2.47c-.37.52-.75,1.08-1.18,1.65a23.39,23.39,0,0,1-4.82,5c-1.16.88-2.4,1.69-3.59,2.48-.78.5-1.55,1-2.3,1.53A.65.65,0,0,1,35.5,55.83Z"/></svg>