<svg id="Layer_1" data-name="Layer 1" xmlns="http://www.w3.org/2000/svg" viewBox="0 0 37.79 77.28"><defs><style>.cls-1{fill:#fbbc95;}.cls-2{fill:#7b483c;}.cls-3{opacity:0.3;}</style></defs><path class="cls-1" d="M5.65,76.59h27l-.1-18.39,3.66-8C33,42.62,32.12,29.25,31.3,20.31L1.58,24.77.69,46.11a22,22,0,0,0,5,14.06h0Z"/><path class="cls-2" d="M33.36,77.28H5V60.4A22.53,22.53,0,0,1,0,46.13l.91-22,31-4.65.07.73c.08,1,.17,2,.27,3,.74,8.43,1.75,20,4.59,26.62l.12.28-3.72,8.16Zm-27-1.38H32l-.1-17.85,3.6-7.89c-2.84-6.87-3.81-17.88-4.59-26.76-.06-.79-.13-1.56-.2-2.3L2.24,25.37,1.38,46.14A21.36,21.36,0,0,0,6.2,59.76l.14.18Z"/><g class="cls-3"><path class="cls-2" d="M17.67,54.64c.31-6.45,3.82-9.26,8.2-9.65,9.67-3.23,6.25-15.74,5.43-24.68L8.6,25.87s-.36,7.65.64,10C13.91,41,16.49,45.18,17.67,54.64Z"/></g><path class="cls-1" d="M22.89,30.12,23.69,19a3.79,3.79,0,0,1,7.58.25,2.65,2.65,0,0,1,0,.27l-1.91,11a3.23,3.23,0,0,1-6.45-.44Z"/><path class="cls-2" d="M26.13,34.15l-.41,0a4,4,0,0,1-3.52-4v0L23,19a4.38,4.38,0,0,1,1.41-3.09A4.48,4.48,0,0,1,32,19.31c0,.1,0,.21,0,.31L30,30.68a3.87,3.87,0,0,1-1.42,2.59A3.93,3.93,0,0,1,26.13,34.15Zm-2.55-4a2.54,2.54,0,0,0,4.15,2.05,2.53,2.53,0,0,0,.93-1.71l1.91-11s0-.1,0-.18a3.1,3.1,0,0,0-6.2-.19Z"/><path class="cls-1" d="M16.55,30.88,16,19.23a3.79,3.79,0,0,1,7.57-.39v.3L22.87,30.8a3.16,3.16,0,0,1-6.32.08Z"/><path class="cls-2" d="M19.71,34.57h-.1a3.88,3.88,0,0,1-3.75-3.65h0l-.53-11.65A4.43,4.43,0,0,1,16.48,16a4.48,4.48,0,0,1,7.8,2.77v.34l-.72,11.69a3.86,3.86,0,0,1-3.85,3.73Zm-2.48-3.73a2.51,2.51,0,0,0,2.41,2.36,2.47,2.47,0,0,0,1.78-.68,2.5,2.5,0,0,0,.77-1.74l.72-11.69a1.7,1.7,0,0,0,0-.21,3.1,3.1,0,0,0-6.2.32Z"/><path class="cls-1" d="M10.08,31.51,8.46,20A3.79,3.79,0,1,1,16,19.1a2.45,2.45,0,0,1,0,.27L16.47,31a3.21,3.21,0,0,1-6.39.54Z"/><path class="cls-2" d="M13.27,35A3.92,3.92,0,0,1,9.39,31.6L7.78,20.09A4.48,4.48,0,1,1,16.67,19l0,.32L17.16,31A3.9,3.9,0,0,1,13.45,35Zm-1-18.57a2.3,2.3,0,0,0-.37,0,3.11,3.11,0,0,0-2.72,3.45l1.62,11.5a2.52,2.52,0,0,0,5-.41L15.32,19.4c0-.07,0-.15,0-.22a3.11,3.11,0,0,0-3.08-2.73Z"/><path class="cls-1" d="M9.24,25.58,7.7,3.78a3.11,3.11,0,0,0-6.22-.2v24Z"/><path class="cls-2" d="M1.47,28.3h0a.69.69,0,0,1-.69-.69v-24A3.83,3.83,0,0,1,4.56,0h0A3.82,3.82,0,0,1,8.39,3.78L9.93,25.53a.68.68,0,0,1-.64.73.67.67,0,0,1-.73-.63L7,3.83A2.41,2.41,0,0,0,4.57,1.38,2.44,2.44,0,0,0,2.16,3.63v24A.69.69,0,0,1,1.47,28.3Z"/><path class="cls-2" d="M18.33,55.19h-.08a.69.69,0,0,1-.6-.76V54.3c.64-5.54,1-8.59,10.48-11.31a.68.68,0,0,1,.85.47.67.67,0,0,1-.47.85c-8.6,2.47-8.88,4.88-9.49,10.15v.12A.69.69,0,0,1,18.33,55.19Z"/><path class="cls-1" d="M25.87,45c-.13-.84-.21-1.68-.38-2.37a16.33,16.33,0,0,0-1.22-3.82,11.51,11.51,0,0,0-2.65-3.36A16.92,16.92,0,0,1,19.57,33c-.31-.45-.55-.94-.81-1.41s-.42-.95-.61-1.43a2.47,2.47,0,0,1,4.25-2.44l.14.19A8.57,8.57,0,0,0,25.6,30.4c.68.38,1.48.8,2.37,1.4A16.45,16.45,0,0,1,30.51,34a23.64,23.64,0,0,1,3.69,5.17c.52.89.89,1.75,1.34,2.64l1.15,2.62c1.21,2.78-.47,5.79-1.76,8.62Z"/><path class="cls-2" d="M34.93,53.69a.55.55,0,0,1-.28-.07.69.69,0,0,1-.35-.91l.4-.86c1.15-2.45,2.33-5,1.36-7.2L34.91,42c-.13-.25-.27-.54-.41-.83-.29-.6-.56-1.15-.89-1.73a23.53,23.53,0,0,0-3.59-5,16.53,16.53,0,0,0-2.44-2.05c-.73-.49-1.4-.86-2-1.19L25.27,31A9.27,9.27,0,0,1,22,28.29l-.14-.19a1.79,1.79,0,0,0-3.07,1.77l.08.19c.17.4.34.81.53,1.22l.2.37a9.85,9.85,0,0,0,.55.93,16.18,16.18,0,0,0,2,2.38,12.18,12.18,0,0,1,2.79,3.56,16.5,16.5,0,0,1,1.26,4c.12.48.2,1,.29,1.64,0,.25.06.5.1.75a.69.69,0,0,1-1.36.21c0-.26-.07-.51-.11-.77-.08-.56-.15-1.09-.26-1.53a15.45,15.45,0,0,0-1.17-3.7,11.08,11.08,0,0,0-2.52-3.16A16.94,16.94,0,0,1,19,33.34c-.23-.33-.43-.69-.62-1l-.22-.41c-.22-.47-.39-.89-.57-1.31l-.08-.19A3.16,3.16,0,0,1,23,27.28l.13.19a8,8,0,0,0,2.85,2.33l.31.17c.62.35,1.32.74,2.1,1.26A16,16,0,0,1,31,33.48a24.46,24.46,0,0,1,3.8,5.32c.35.6.64,1.21.93,1.8.13.28.27.56.42.85l1.16,2.65c1.22,2.79-.16,5.74-1.37,8.33l-.39.85A.69.69,0,0,1,34.93,53.69Z"/></svg>