<svg id="Layer_1" data-name="Layer 1" xmlns="http://www.w3.org/2000/svg" viewBox="0 0 45.4 81.36"><defs><style>.cls-1{fill:#fbbc95;}.cls-2{fill:#7b483c;}.cls-3{opacity:0.3;}.cls-4{fill:#8b8b8b;}</style></defs><path class="cls-1" d="M8.68,80.44l24.12.23.49-12.11,10.15-17c-2.43-7.85-4.88-13-4.73-22.2-2-1.71-12.08-1.79-29.07,5.41L7.53,45c-1,7.32.13,10.87,1.24,16.43Z"/><path class="cls-2" d="M33.47,81.36,8,81.12,8.08,61.5c-.15-.77-.31-1.5-.46-2.2-.94-4.47-1.69-8-.78-14.39L9,34.25l.33-.14c17.57-7.45,27.6-7.2,29.79-5.3l.24.21v.32c-.12,7.34,1.4,11.94,3.33,17.77.45,1.34.91,2.73,1.37,4.22l.09.29L34,68.77Zm-24.1-1.6L32.14,80l.47-11.61L42.69,51.44c-.43-1.36-.85-2.65-1.26-3.89C39.56,41.92,38,37.05,38,29.68c-2.29-1.32-12.13-1-27.78,5.56l-2,9.9C7.33,51.25,8.05,54.68,9,59c.16.73.32,1.49.47,2.29l0,.06v.07Z"/><g class="cls-3"><path class="cls-2" d="M21.19,58.83c.25-6.62,5.1-11.58,10.17-16.2-5,.47-12.28-11.89-21.72-7.89L7.53,45C12,49.43,19,52.06,21.19,58.83Z"/></g><path class="cls-1" d="M30.57,30.34,32.26,3.53a3.17,3.17,0,0,1,6.31.54l.09,26.69Z"/><path class="cls-2" d="M38.66,31.44a.67.67,0,0,1-.68-.68l-.1-26.68a2.49,2.49,0,0,0-2.22-2.69,2.46,2.46,0,0,0-1.81.54A2.41,2.41,0,0,0,33,3.6L31.26,30.38a.69.69,0,0,1-1.38-.08l1.7-26.81a3.85,3.85,0,0,1,7.67.63l.1,26.63a.68.68,0,0,1-.68.69Z"/><path class="cls-1" d="M21.81,58.83C22.43,53.2,25.71,45,32.5,43.6Z"/><path class="cls-2" d="M21.81,59.52h-.07a.69.69,0,0,1-.61-.76c.73-6.68,4.56-14.48,11.23-15.82a.69.69,0,1,1,.27,1.35C25.73,45.66,23,54.45,22.5,58.9A.7.7,0,0,1,21.81,59.52Z"/><path class="cls-1" d="M19.61,45.65,16.2,32.75a3.43,3.43,0,1,0-6.56,2l0,.11L14,47.44a2.93,2.93,0,0,0,5.57-1.79Z"/><path class="cls-2" d="M16.82,50.12a3.62,3.62,0,0,1-3.43-2.46L9,34.94a4.14,4.14,0,0,1,2.74-5.14,4.12,4.12,0,0,1,5.14,2.75l3.42,12.91A3.61,3.61,0,0,1,18,49.93,3.55,3.55,0,0,1,16.82,50.12ZM12.92,31a2.82,2.82,0,0,0-.8.12,2.73,2.73,0,0,0-1.82,3.42l4.39,12.68A2.24,2.24,0,0,0,19,45.85v0L15.54,32.92A2.73,2.73,0,0,0,12.92,31Z"/><path class="cls-1" d="M25.28,42.05,22.6,27.56a3.79,3.79,0,0,0-7.4,1.65s0,.08,0,.12L19,43.56a3.23,3.23,0,0,0,6.29-1.51Z"/><path class="cls-2" d="M22.12,46.68a3.92,3.92,0,0,1-3.79-3l-3.8-14.37a4.48,4.48,0,1,1,8.74-1.95L26,41.91a3.9,3.9,0,0,1-2.85,4.64A3.72,3.72,0,0,1,22.12,46.68Zm-3.21-21.4a3.12,3.12,0,0,0-3,3.78l3.78,14.32a2.54,2.54,0,0,0,4.95-1.18v0L21.92,27.68a3.13,3.13,0,0,0-3-2.4Z"/><path class="cls-1" d="M31.6,40.91,30.09,26.24a3.79,3.79,0,0,0-7.5,1.06.43.43,0,0,0,0,.11l2.6,14.49a3.23,3.23,0,0,0,6.39-1Z"/><path class="cls-2" d="M28.38,45.28A3.92,3.92,0,0,1,24.53,42L21.91,27.39a4.48,4.48,0,0,1,8.87-1.24l1.5,14.67a3.94,3.94,0,0,1-3.9,4.46Zm-2-21.61-.43,0a3.11,3.11,0,0,0-2.64,3.5l0,.1,2.59,14.48a2.52,2.52,0,0,0,1.05,1.65,2.46,2.46,0,0,0,1.9.43A2.53,2.53,0,0,0,30.91,41v0l-1.5-14.66A3.1,3.1,0,0,0,26.34,23.67Z"/><path class="cls-1" d="M32.5,43.94c-.27-.68-1.35-2.66-1.43-2.82s-.66-.24-1.52-.12-1.89.34-3.06.51a15.05,15.05,0,0,1-3.82.11,11.29,11.29,0,0,1-3.77-1.11,2.48,2.48,0,0,1,1.59-4.65l.18,0a6.81,6.81,0,0,0,4.25-.61c.78-.32,1.62-.75,2.73-1.18a12.59,12.59,0,0,1,1.9-.6,9.07,9.07,0,0,1,2.53-.22,8.06,8.06,0,0,1,2.81.69,8.91,8.91,0,0,1,1.23.64c.38.23.71.48,1.06.74a16.61,16.61,0,0,1,2.91,3.13,41,41,0,0,1,3.58,6l0,.09c1.36,2.71,1.6,4.26-.94,8Z"/><path class="cls-2" d="M42.77,53.34a.68.68,0,0,1-.38-.12.7.7,0,0,1-.19-1c2.4-3.57,2.15-4.84.9-7.34a41.58,41.58,0,0,0-3.56-6,16.29,16.29,0,0,0-2.79-3l-.1-.07c-.29-.22-.57-.43-.89-.63l-.23-.13a6.19,6.19,0,0,0-.89-.45A7.93,7.93,0,0,0,32,34a8.43,8.43,0,0,0-2.33.21,11,11,0,0,0-1.79.57c-.63.24-1.17.49-1.66.71s-.73.33-1.07.46a7.4,7.4,0,0,1-4.65.66l-.18,0a1.8,1.8,0,0,0-2.05,2.33,1.83,1.83,0,0,0,.9,1,10.84,10.84,0,0,0,3.55,1,14.68,14.68,0,0,0,3.64-.11c.56-.08,1.09-.18,1.59-.27s1.05-.19,1.49-.24c.77-.11,1.78-.14,2.16.4l.06.1s.08.16.18.33c.54,1,1.08,2.05,1.27,2.55a.69.69,0,0,1-.4.89.7.7,0,0,1-.89-.4c-.18-.49-.9-1.82-1.2-2.39a1,1,0,0,0-.08-.15,3.79,3.79,0,0,0-.92,0c-.43.06-.91.14-1.43.24s-1.06.19-1.64.27a16,16,0,0,1-4,.12,12.24,12.24,0,0,1-4-1.19,3.17,3.17,0,0,1-1.42-4.25,3.19,3.19,0,0,1,3.45-1.69l.18,0a6.12,6.12,0,0,0,3.86-.58c.33-.13.66-.28,1-.45.51-.22,1.07-.48,1.71-.73a12.61,12.61,0,0,1,2-.63,9.75,9.75,0,0,1,2.73-.24,9.22,9.22,0,0,1,3.06.75,7.79,7.79,0,0,1,1,.53l.24.14a11.87,11.87,0,0,1,1,.7l.12.09a17.42,17.42,0,0,1,3,3.26,41.19,41.19,0,0,1,3.64,6.16c1.59,3.15,1.67,4.93-.93,8.81A.7.7,0,0,1,42.77,53.34Z"/><path class="cls-4" d="M23.6,16.59l-20-.68a3.68,3.68,0,0,1-.35-7.33l19-2.45a1.41,1.41,0,0,0-.14-2.81L4.45,2.64,4.53.37l17.64.68a3.68,3.68,0,0,1,.35,7.33l-19,2.45a1.41,1.41,0,0,0,.14,2.81l20,.68Z"/><polygon class="cls-4" points="20.25 20.34 18.67 18.72 22.04 15.43 18.75 12.06 20.38 10.48 25.24 15.47 20.25 20.34"/></svg>