<svg id="Layer_1" data-name="Layer 1" xmlns="http://www.w3.org/2000/svg" viewBox="0 0 42.75 70.05"><defs><style>.cls-1{fill:#fbbc95;}.cls-2{fill:#7b483c;}.cls-3{opacity:0.3;}</style></defs><path class="cls-1" d="M.69,69.37H24.78l0-14.71L35,45.09C33.6,34.75,21.21,39.53,22.49,23.22L4,18.32a232.38,232.38,0,0,0-3.3,35Z"/><path class="cls-2" d="M25.47,70.05H0V53.34A235.2,235.2,0,0,1,3.32,18.19l.13-.73L23.22,22.7l0,.57c-.7,9,2.71,11.13,6.32,13.45C32.2,38.47,35,40.27,35.63,45l0,.35L25.43,55ZM1.38,69.37h0Zm0-.69H24.09l0-14.31,10.15-9.54c-.61-3.83-2.87-5.28-5.47-6.95-3.54-2.28-7.54-4.85-7-14.14L4.54,19.17A236.14,236.14,0,0,0,1.38,53.35Z"/><g class="cls-3"><path class="cls-2" d="M28.29,36.77c-3.32-2.19-6.48-4.91-5.8-13.55L10.7,20.09h0c0,.59,0,1.18,0,1.77,0,5.74,2.51,9.79,4.71,13.65C16.68,36.32,31.66,40.81,28.29,36.77Z"/></g><path class="cls-1" d="M16.6,23s-.75-.85-.74-.89a37.46,37.46,0,0,1,2.79-5.65,28.89,28.89,0,0,1,4.66-6.68,16,16,0,0,1,7.76-4.52,17.06,17.06,0,0,1,8.72.51,3.15,3.15,0,0,1-1.64,6.09l-.09,0a10.79,10.79,0,0,0-5.44-.17,9.18,9.18,0,0,0-4.33,2.83A22,22,0,0,0,25,19.63c-1,1.93-2.37,4-2.56,7.82Z"/><path class="cls-2" d="M22.44,28.14h0a.68.68,0,0,1-.65-.72,15.65,15.65,0,0,1,2.17-7.22c.16-.3.31-.59.45-.88A22.72,22.72,0,0,1,27.78,14a9.87,9.87,0,0,1,4.65-3,11.07,11.07,0,0,1,5.79.17l.1,0a2.46,2.46,0,0,0,3-1.7A2.46,2.46,0,0,0,39.6,6.38a16.27,16.27,0,0,0-8.37-.5,15.14,15.14,0,0,0-7.42,4.33,28.27,28.27,0,0,0-4.56,6.53c-.25.47-.48.88-.69,1.26a29.29,29.29,0,0,0-1.91,3.93l.1.12c.46.52.63.72.5,1.11a.69.69,0,0,1-.87.44.73.73,0,0,1-.38-.31L15.72,23c-.47-.52-.66-.74-.5-1.15a30.1,30.1,0,0,1,2.13-4.47c.21-.38.44-.79.69-1.26a29.49,29.49,0,0,1,4.78-6.82,16.48,16.48,0,0,1,8.1-4.72A17.53,17.53,0,0,1,40,5.06a3.84,3.84,0,0,1-2,7.42l-.1,0a10.13,10.13,0,0,0-5.08-.18,8.49,8.49,0,0,0-4,2.63,20.94,20.94,0,0,0-3.19,5c-.15.31-.31.61-.48.92a14.36,14.36,0,0,0-2,6.63A.69.69,0,0,1,22.44,28.14Z"/><g class="cls-3"><path class="cls-2" d="M41.38,6.8a3.71,3.71,0,0,1-.12.41A3.15,3.15,0,0,1,37.3,9l-.09,0c-3-1-6-.32-8.95-1.55a3,3,0,0,1-1.06-.72,17,17,0,0,0-3.89,3,28.89,28.89,0,0,0-4.66,6.68,37.46,37.46,0,0,0-2.79,5.65s.75.85.74.89l5.84,4.5c.19-3.85,1.6-5.89,2.56-7.82a22,22,0,0,1,3.29-5.19,9.18,9.18,0,0,1,4.33-2.83,10.79,10.79,0,0,1,5.44.17l.09,0a3.15,3.15,0,0,0,3.23-5Z"/></g><path class="cls-1" d="M11.08,21c1.12-2.86,5.13-11.2,7.56-13.51A17.51,17.51,0,0,1,27.46,3a22.2,22.2,0,0,1,9.39.38,3.09,3.09,0,0,1-1.34,6h0a15.93,15.93,0,0,0-6.73-.05,10.71,10.71,0,0,0-5.36,3A15.14,15.14,0,0,0,20.07,18a34.21,34.21,0,0,0-1.5,7.08v.1Z"/><path class="cls-2" d="M18.56,25.19l-.68-.08a34.68,34.68,0,0,1,1.54-7.33,15.8,15.8,0,0,1,3.49-5.94A11.43,11.43,0,0,1,28.6,8.66a16.68,16.68,0,0,1,7,.05A2.4,2.4,0,0,0,36.69,4a21.43,21.43,0,0,0-9.1-.37A16.89,16.89,0,0,0,19.12,8c-2.28,2.16-6.27,10.38-7.4,13.26a.7.7,0,0,1-.89.39.69.69,0,0,1-.39-.89C11.54,17.92,15.59,9.43,18.17,7a17.93,17.93,0,0,1,9.17-4.68A22.68,22.68,0,0,1,37,2.69a3.78,3.78,0,0,1-1.65,7.37A15.32,15.32,0,0,0,28.91,10a10.19,10.19,0,0,0-5,2.8,14.44,14.44,0,0,0-3.17,5.43,32.34,32.34,0,0,0-1.46,6.94Z"/><g class="cls-3"><path class="cls-2" d="M38.63,4.57a3.1,3.1,0,0,1-3.76,1.81,15.77,15.77,0,0,0-6.7-.66c-1,.14-2,.65-3,.76-.77.08-1.61-.12-2.41-.06a19,19,0,0,1-3.14.17c-.35.29-.69.58-1,.89C16.21,9.79,12.2,18.13,11.08,21l7.48,4.2v-.1A34.21,34.21,0,0,1,20.07,18a15.14,15.14,0,0,1,3.33-5.69,10.71,10.71,0,0,1,5.36-3,15.93,15.93,0,0,1,6.73.05h0a3.09,3.09,0,0,0,3.12-4.82Z"/></g><path class="cls-1" d="M7.29,19.46c1.06-3,3.9-10.39,6.25-13.06a21.32,21.32,0,0,1,1.92-1.88A21.44,21.44,0,0,1,17.72,3a15.1,15.1,0,0,1,2.46-1.13c.43-.14.85-.31,1.27-.43l1.28-.29a27.47,27.47,0,0,1,9.74,0,3.13,3.13,0,0,1-.85,6.21h0a21.27,21.27,0,0,0-7.47.2,9.52,9.52,0,0,0-5.43,3.34,19.36,19.36,0,0,0-3.24,6.47,52.71,52.71,0,0,0-1.63,7.85l0,.13Z"/><path class="cls-2" d="M13.81,26h-.1a.69.69,0,0,1-.58-.78l0-.13a53.29,53.29,0,0,1,1.66-8,20.14,20.14,0,0,1,3.36-6.7A10.22,10.22,0,0,1,24,6.86a21.45,21.45,0,0,1,7.72-.21A2.45,2.45,0,0,0,34,2.77a2.48,2.48,0,0,0-1.61-1,26.85,26.85,0,0,0-9.49,0l-1.27.28c-.24.07-.52.17-.79.27l-.4.14a12.6,12.6,0,0,0-2.1,1L18,3.59a13.92,13.92,0,0,0-1.67,1.12l-.51.37-.53.5a13.55,13.55,0,0,0-1.26,1.25c-2,2.23-4.52,8.32-6.13,12.86a.69.69,0,1,1-1.3-.46C7.24,17.54,10.36,9,13,5.94A15,15,0,0,1,14.4,4.56L15,4l.56-.42a15.92,15.92,0,0,1,1.84-1.23l.28-.14a14.64,14.64,0,0,1,2.31-1l.36-.12a8.45,8.45,0,0,1,.93-.31l1.31-.3a28.26,28.26,0,0,1,10,0A3.78,3.78,0,0,1,35.07,2a3.73,3.73,0,0,1,.7,2.83A3.81,3.81,0,0,1,31.54,8a20.45,20.45,0,0,0-7.24.17,8.94,8.94,0,0,0-5.06,3.11,18.71,18.71,0,0,0-3.12,6.24,51.92,51.92,0,0,0-1.61,7.75l0,.13A.68.68,0,0,1,13.81,26Z"/><g class="cls-3"><path class="cls-2" d="M34.57,2.45A3.12,3.12,0,0,1,31.18,4a21.33,21.33,0,0,0-7.45-.48,11.26,11.26,0,0,0-3.12.94c-1,.49-1.72,1.45-2.67,1.91a10.81,10.81,0,0,1-2.69.45,7.84,7.84,0,0,1-2.2.22c-2.24,3.05-4.78,9.66-5.76,12.44l6.52,5.86,0-.13a52.71,52.71,0,0,1,1.63-7.85,19.36,19.36,0,0,1,3.24-6.47,9.52,9.52,0,0,1,5.43-3.34,21.27,21.27,0,0,1,7.47-.2h0a3.12,3.12,0,0,0,3.47-2.64A3.07,3.07,0,0,0,34.57,2.45Z"/></g><path class="cls-1" d="M3.24,22.54c0-.05,0-.11,0-.15A36.37,36.37,0,0,1,4.42,16,26,26,0,0,1,7,9.76a17.45,17.45,0,0,1,4.82-5.39,14.21,14.21,0,0,1,7-2.58,3.2,3.2,0,0,1,.67,6.37,7.59,7.59,0,0,0-3.77,1.58A10.58,10.58,0,0,0,13,13.16a24,24,0,0,0-2.38,9.78h0Z"/><path class="cls-2" d="M10.63,23.63h0a.68.68,0,0,1-.65-.72A24.89,24.89,0,0,1,12.4,12.84,11.15,11.15,0,0,1,15.33,9.2a8.34,8.34,0,0,1,4.1-1.72,2.52,2.52,0,0,0,1.31-4.41,2.57,2.57,0,0,0-1.84-.59,13.34,13.34,0,0,0-6.67,2.45A16.32,16.32,0,0,0,7.6,10.11a25.32,25.32,0,0,0-2.52,6.07,36.52,36.52,0,0,0-1.14,6.27v.13a.69.69,0,1,1-1.37-.07v-.19a37.39,37.39,0,0,1,1.19-6.51,26.67,26.67,0,0,1,2.65-6.4,17.82,17.82,0,0,1,5-5.6,14.85,14.85,0,0,1,7.37-2.7,3.89,3.89,0,0,1,.82,7.74,6.82,6.82,0,0,0-3.43,1.43,9.72,9.72,0,0,0-2.56,3.2A23.32,23.32,0,0,0,11.32,23,.7.7,0,0,1,10.63,23.63Z"/><path class="cls-1" d="M28.27,37.64c2.1-.36,3.17-2.45,3.85-3.74a24,24,0,0,0,1.71-4.78l.44-1.48c.19-.54.35-1.05.6-1.62a9.31,9.31,0,0,1,2.29-3.34A2.4,2.4,0,0,1,41,25.31l-.33.84a5.51,5.51,0,0,0-.39,1.56c0,.31,0,.73-.08,1.1l0,1.3a31.92,31.92,0,0,1-.53,6.23,17.85,17.85,0,0,1-3,6.76,23.69,23.69,0,0,1-5.57,5.59Z"/><path class="cls-2" d="M31.11,49.37a.69.69,0,0,1-.54-.25.71.71,0,0,1,.11-1,23.1,23.1,0,0,0,5.43-5.43A17.15,17.15,0,0,0,39,36.2a30.3,30.3,0,0,0,.51-5.9l.07-1.93c0-.27,0-.54.06-.77A6.19,6.19,0,0,1,40,25.9l.33-.84a1.7,1.7,0,0,0-1.52-2.31,1.75,1.75,0,0,0-1.22.44,8.71,8.71,0,0,0-2.12,3.08c-.19.42-.31.79-.44,1.16l-.15.44-.43,1.44a26.12,26.12,0,0,1-1.76,4.92c-.73,1.39-1.93,3.67-4.34,4.09A.69.69,0,1,1,28.15,37c1.75-.3,2.71-2.13,3.34-3.34a24.82,24.82,0,0,0,1.68-4.69l.6-1.94c.14-.41.28-.81.47-1.25a9.9,9.9,0,0,1,2.46-3.56,3.08,3.08,0,0,1,4.95,3.38l-.32.84A4.44,4.44,0,0,0,41,27.77c0,.23,0,.45-.06.68l0,.42,0,1.45a31.84,31.84,0,0,1-.54,6.16,18.49,18.49,0,0,1-3.08,7,24.3,24.3,0,0,1-5.7,5.72A.65.65,0,0,1,31.11,49.37Z"/><path class="cls-1" d="M10.67,22.29c0,4.77,1.3,8.1,3.85,12.18,1.52,2.43,3.25,5.08,3.72,8,.59,3.66-.61,9.38-3.86,11.56Z"/><path class="cls-2" d="M14.38,54.7A.69.69,0,0,1,14,53.44c2.87-1.93,4.16-7.18,3.56-10.88-.43-2.63-1.94-5-3.4-7.38l-.22-.35c-2.44-3.9-4-7.36-4-12.54a.69.69,0,1,1,1.38,0c0,4.85,1.43,8.12,3.75,11.81l.21.35c1.47,2.34,3.13,5,3.6,7.89.66,4.1-.73,9.95-4.15,12.24A.71.71,0,0,1,14.38,54.7Z"/></svg>