<svg id="Layer_1" data-name="Layer 1" xmlns="http://www.w3.org/2000/svg" viewBox="0 0 60.96 70.57"><defs><style>.cls-1{fill:#fbbc95;}.cls-2{fill:#7b483c;}.cls-3{opacity:0.3;}</style></defs><path class="cls-1" d="M19.62,69.89h27L45,49l5.51-17.28C45.29,25.32,38.89,21.27,35.66,12.9L6,21.53c3.2,12,3.12,25.62,12.41,35.07Z"/><path class="cls-2" d="M47.37,70.57H19L17.77,56.9C10.89,49.78,9.11,40.37,7.39,31.26c-.59-3.17-1.21-6.45-2-9.55l-.17-.65,30.89-9,.23.59c2.14,5.54,5.68,9.12,9.42,12.91A74.77,74.77,0,0,1,51,31.27l.24.29L45.65,49.07ZM20.25,69.2H45.88L44.26,48.91,49.7,31.85c-1.58-1.91-3.29-3.64-5-5.32-3.56-3.6-7.23-7.31-9.5-12.8L6.85,22c.75,3,1.33,6,1.9,9,1.69,9,3.44,18.26,10.17,25.11l.17.17Z"/><path class="cls-1" d="M39.66,26.4l.13-.26a33.61,33.61,0,0,1,2.88-5,24.62,24.62,0,0,1,3.93-4.47A15.89,15.89,0,0,1,52,13.47a11.71,11.71,0,0,1,6.33-.33A2.49,2.49,0,0,1,58,18l-.18,0c-2.49.25-4.11,1.78-5.37,3.91s-.73,7.16-2.32,10.7Z"/><path class="cls-2" d="M50.17,33.35a.72.72,0,0,1-.29-.06.69.69,0,0,1-.34-.91,20.9,20.9,0,0,0,1.27-5.94,13.27,13.27,0,0,1,1.09-4.83c1.57-2.65,3.44-4,5.89-4.24l.18,0A1.8,1.8,0,0,0,59.53,16a1.72,1.72,0,0,0-.22-1.36,1.75,1.75,0,0,0-1.11-.8,11.08,11.08,0,0,0-6,.31,15,15,0,0,0-5.19,3.08,23.74,23.74,0,0,0-3.83,4.34,33.43,33.43,0,0,0-2.82,4.89l-.13.27A.69.69,0,0,1,39,26.1l.13-.26a35.24,35.24,0,0,1,2.93-5.09,25,25,0,0,1,4-4.58,16.5,16.5,0,0,1,5.66-3.36,12.35,12.35,0,0,1,6.7-.34,3.18,3.18,0,0,1-.4,6.25h-.19c-2,.21-3.49,1.31-4.84,3.58a13.2,13.2,0,0,0-.9,4.29,21.7,21.7,0,0,1-1.39,6.34A.67.67,0,0,1,50.17,33.35Z"/><path class="cls-1" d="M34.35,25.39,31.66,14.51c-.6-2,.87-4.09,3.28-4.59s4.86.73,5.46,2.76a2.5,2.5,0,0,1,.07.26L41.86,24c.37,1.76-1,3.44-3.12,3.75A3.91,3.91,0,0,1,34.35,25.39Z"/><path class="cls-2" d="M38.09,28.52a4.49,4.49,0,0,1-4.4-2.94v0L31,14.68a3.86,3.86,0,0,1,.42-3.13A5.1,5.1,0,0,1,34.8,9.24c2.75-.57,5.56.88,6.26,3.24,0,.1.06.22.08.32L42.54,24A3.42,3.42,0,0,1,42,26.63a4.56,4.56,0,0,1-3.11,1.84A4.73,4.73,0,0,1,38.09,28.52ZM35,25.2a3.24,3.24,0,0,0,3.63,1.91,3.27,3.27,0,0,0,2.19-1.26,2.14,2.14,0,0,0,.36-1.67L39.79,13a1.66,1.66,0,0,1,0-.16c-.5-1.69-2.59-2.71-4.66-2.28a3.74,3.74,0,0,0-2.48,1.66,2.53,2.53,0,0,0-.28,2.07Z"/><path class="cls-1" d="M29.06,30.38,24.75,16.79c-.8-2,.46-4.13,2.81-4.81s4.92.39,5.72,2.37l.1.28,3,11.41a4.29,4.29,0,0,1-2.45,4.82C31.53,31.88,29.69,31.92,29.06,30.38Z"/><path class="cls-2" d="M31.05,32.27a3.19,3.19,0,0,1-1.24-.22,2.46,2.46,0,0,1-1.38-1.41l0-.06L24.1,17a3.86,3.86,0,0,1,.13-3.17,5,5,0,0,1,3.14-2.51c2.68-.77,5.62.47,6.55,2.77,0,.11.08.22.11.33l3,11.45a5,5,0,0,1-2.85,5.62A8.12,8.12,0,0,1,31.05,32.27Zm-1.34-2.13a1.09,1.09,0,0,0,.62.64,4.84,4.84,0,0,0,3.29-.55,3.65,3.65,0,0,0,2.07-4l-3-11.45a1.6,1.6,0,0,0-.07-.19,4.06,4.06,0,0,0-4.89-2,3.56,3.56,0,0,0-2.28,1.79,2.49,2.49,0,0,0-.08,2.1Z"/><path class="cls-1" d="M13.91,19.23c2.16-1.42,4.38-3.79,6.67-4.59a4.83,4.83,0,0,1,5.89,2,2,2,0,0,1,.11.26l4.3,11c1.33,3.63-2.48,5.3-4.45,6-2.25.75-3.45.35-4.79-1.46s-3.13-3.78.1-5.7Z"/><path class="cls-2" d="M24.56,35a4.19,4.19,0,0,1-3.48-2.1l-.25-.33C20,31.38,19,30.09,19.28,28.66a3.9,3.9,0,0,1,2.1-2.49.69.69,0,0,1,.95.23.71.71,0,0,1-.24,1c-.87.51-1.36,1-1.46,1.57-.16.83.58,1.82,1.3,2.78l.26.35c1.18,1.59,2.08,1.86,4,1.21s3.47-1.64,4-2.74a2.87,2.87,0,0,0,0-2.32l-4.3-11a.88.88,0,0,0-.09-.2,4.13,4.13,0,0,0-5-1.69A15.41,15.41,0,0,0,16.69,18c-.79.63-1.6,1.29-2.4,1.81a.69.69,0,1,1-.76-1.15c.75-.49,1.5-1.09,2.3-1.73A16.31,16.31,0,0,1,20.35,14a5.55,5.55,0,0,1,6.74,2.38,2.71,2.71,0,0,1,.13.3l4.3,11a4.24,4.24,0,0,1-.06,3.41c-.71,1.46-2.32,2.62-4.81,3.45A6.67,6.67,0,0,1,24.56,35Z"/><g class="cls-3"><path class="cls-2" d="M32,45.94C31.84,36.15,35.82,30,41.73,25.6L40.79,21c.15,2.87-5.79,2.43-5.79,2.43.61,3.59-3.65,4.7-5.75,2.15.59,3.15-3,4.73-6.24,2.62-.48-2.5-4.64-1.66-2.34,4.13Z"/></g><path class="cls-1" d="M13.91,21.08,6.78,2.93a3.11,3.11,0,0,0-6,1.5l6,19.86Z"/><path class="cls-2" d="M6.69,25a.69.69,0,0,1-.66-.5L.08,4.63A3.84,3.84,0,0,1,2.72.15,3.82,3.82,0,0,1,7.44,2.74l7.11,18.09a.69.69,0,1,1-1.28.5L6.14,3.18a2.45,2.45,0,0,0-3-1.71A2.45,2.45,0,0,0,1.41,4.3L7.35,24.09a.69.69,0,0,1-.66.89Z"/><path class="cls-2" d="M32.53,46.23a.7.7,0,0,1-.68-.57,19,19,0,0,1,8.72-19.49.69.69,0,1,1,.73,1.17,17.64,17.64,0,0,0-8.09,18.1.68.68,0,0,1-.57.78Z"/><path class="cls-2" d="M23.29,30.25a.68.68,0,0,1-.62-.39S20.74,26,19.59,24a.69.69,0,0,1,.26-.94.68.68,0,0,1,.93.26c1.17,2.05,3,5.82,3.12,6a.7.7,0,0,1-.31.93A.82.82,0,0,1,23.29,30.25Z"/></svg>