<svg id="Layer_1" data-name="Layer 1" xmlns="http://www.w3.org/2000/svg" viewBox="0 0 42.51 60.19"><defs><style>.cls-1{fill:#fbbc95;}.cls-2{fill:#7b483c;}.cls-3{opacity:0.3;}</style></defs><path class="cls-1" d="M4.74,59.5h27l0-16.62,8-8.27C37,26.86,32.43,15.48,32.2,6.51L2.72,9.92l-2,18.8a22.06,22.06,0,0,0,4,14.36h0Z" transform="translate(0 0)"/><path class="cls-2" d="M32.44,60.19H4.05V43.28A22.56,22.56,0,0,1,0,28.69L2.09,9.3,32.87,5.74l0,.75c.2,7.68,3.59,17.09,6.32,24.64.41,1.14.8,2.23,1.16,3.25l.14.4-8.1,8.38Zm-27-1.38H31.06L31,42.6l7.9-8.16c-.32-.9-.66-1.85-1-2.84-2.67-7.41-6-16.58-6.37-24.32L3.35,10.54,1.4,28.79A21.33,21.33,0,0,0,5.32,42.7l.11.17Z" transform="translate(0 0)"/><g class="cls-3"><path class="cls-2" d="M17.12,38.37,18.73,33l17.19-9.61c-2.73-7.75-3.49-7.87-3.72-16.84L2.72,9.92,1.62,20.26C15.51,24,17.12,38.37,17.12,38.37Z" transform="translate(0 0)"/></g><path class="cls-1" d="M23.92,15.74l1.53-11A3.79,3.79,0,0,1,33,5.48c0,.09,0,.19,0,.27L30.33,16.6a3.24,3.24,0,0,1-6.41-.86Z" transform="translate(0 0)"/><path class="cls-2" d="M27.14,20a4.89,4.89,0,0,1-.66-.05,4,4,0,0,1-3.24-4.25v0l1.53-11a4.48,4.48,0,0,1,8.91.9c0,.1,0,.21,0,.31L31,16.77A3.92,3.92,0,0,1,27.14,20Zm-2.53-4.16a2.54,2.54,0,0,0,5,.67l2.64-10.9s0-.1,0-.17a3.06,3.06,0,0,0-.69-2.27A3,3,0,0,0,29.53,2a3.1,3.1,0,0,0-3.39,2.78Z" transform="translate(0 0)"/><path class="cls-1" d="M17.54,16.08l.24-11.66a3.79,3.79,0,0,1,7.58.11c0,.1,0,.2,0,.3L23.86,16.42a3.17,3.17,0,0,1-6.32-.34Z" transform="translate(0 0)"/><path class="cls-2" d="M20.72,20h-.37a3.88,3.88,0,0,1-3.49-3.9h0l.23-11.66A4.49,4.49,0,0,1,21.57,0h.07a4.48,4.48,0,0,1,4.41,4.54c0,.12,0,.24,0,.34L24.54,16.51A3.85,3.85,0,0,1,20.72,20Zm-2.49-3.89a2.5,2.5,0,0,0,2.25,2.51A2.45,2.45,0,0,0,22.29,18a2.5,2.5,0,0,0,.89-1.68L24.66,4.74s0-.14,0-.22a3.1,3.1,0,0,0-3.06-3.14h-.05a3.1,3.1,0,0,0-3.1,3.05Z" transform="translate(0 0)"/><path class="cls-1" d="M11,16.28,10.19,4.69a3.79,3.79,0,1,1,7.57-.4,2.44,2.44,0,0,1,0,.27l-.31,11.61a3.21,3.21,0,0,1-6.42.11Z" transform="translate(0 0)"/><path class="cls-2" d="M14.25,20h-.07a3.92,3.92,0,0,1-3.82-3.69L9.5,4.74a4.49,4.49,0,0,1,1.15-3.25,4.48,4.48,0,0,1,7.8,2.76c0,.1,0,.22,0,.32l-.3,11.62A3.89,3.89,0,0,1,14.25,20ZM14,1.39h-.17a3.09,3.09,0,0,0-2.93,3.26l.85,11.59a2.53,2.53,0,0,0,2.47,2.39,2.37,2.37,0,0,0,1.8-.7,2.54,2.54,0,0,0,.78-1.77l.3-11.62a1.55,1.55,0,0,0,0-.21A3.09,3.09,0,0,0,14,1.39Z" transform="translate(0 0)"/><path class="cls-1" d="M4.46,16.28,2.72,8.41a3.79,3.79,0,1,1,7.51-1l0,.3.73,8a3.28,3.28,0,0,1-6.53.65Z" transform="translate(0 0)"/><path class="cls-2" d="M7.72,19.79A4,4,0,0,1,3.78,16.4L2.05,8.56a4.48,4.48,0,1,1,8.86-1.3c0,.12,0,.24,0,.35l.73,8A4,4,0,0,1,8,19.79Zm-1.24-15a3.25,3.25,0,0,0-.44,0A3,3,0,0,0,4,6a3.1,3.1,0,0,0-.6,2.3l1.74,7.86a2.6,2.6,0,0,0,5.17-.51L9.57,7.73a2.46,2.46,0,0,0,0-.28A3.11,3.11,0,0,0,6.48,4.78Z" transform="translate(0 0)"/><path class="cls-2" d="M17.77,38.94h-.13a.68.68,0,0,1-.55-.8c1-5.43,2.14-8.87,12.7-11.15a.69.69,0,0,1,.29,1.35c-9.75,2.1-10.69,4.89-11.64,10.05A.68.68,0,0,1,17.77,38.94Z" transform="translate(0 0)"/><path class="cls-1" d="M29.94,27.66a21.39,21.39,0,0,0-1.1-2.4c-.06-.15-.1-.15-.15-.29s-.15-.18-.38-.23a8.16,8.16,0,0,0-2-.37l-.69-.09-.76-.15a13.11,13.11,0,0,1-1.53-.44c-.5-.2-1-.45-1.45-.69s-.85-.57-1.26-.86a2.46,2.46,0,0,1,2.22-4.33l.36.12a5.18,5.18,0,0,0,3.07,0,13.38,13.38,0,0,1,2.62-.35,8.06,8.06,0,0,1,3.82.78,9.13,9.13,0,0,1,1.67.95l.73.54c.25.18.41.36.62.54.37.35.83.75,1.13,1.1l1,1.1c.61.73,1.13,1.44,1.68,2.18L41,26.94c1.71,2.52.72,6.06-2.37,8.81Z" transform="translate(0 0)"/><path class="cls-2" d="M38.62,36.44a.71.71,0,0,1-.52-.23.68.68,0,0,1,.06-1c2.84-2.53,3.75-5.71,2.26-7.91l-1.69-2.47c-.45-.61-.9-1.2-1.4-1.81l-1-1.08c-.2-.24-.49-.5-.76-.76l-.53-.48c-.11-.1-.22-.2-.36-.31L34,19.89A8.68,8.68,0,0,0,32.44,19a7.24,7.24,0,0,0-1.55-.52l-.28-.08A8.86,8.86,0,0,0,29,18.28a11.29,11.29,0,0,0-2.13.26l-.42.09A5.78,5.78,0,0,1,23,18.58l-.36-.12a1.78,1.78,0,0,0-2,.65A1.77,1.77,0,0,0,21,21.58c.4.29.81.57,1.24.85l.12.06a11.56,11.56,0,0,0,1.19.55l.3.1a9.84,9.84,0,0,0,1.1.31l1.8.29a6.91,6.91,0,0,1,1.76.35,1.29,1.29,0,0,1,.51.3l.23.12,0,.2a1.25,1.25,0,0,1,.16.31l.11.2a18.07,18.07,0,0,1,1,2.2.69.69,0,0,1-1.29.47,17.15,17.15,0,0,0-.92-2l-.15-.29-.08-.14,0,0-.12,0a6.5,6.5,0,0,0-1.38-.25L25.55,25l-.8-.16a8.05,8.05,0,0,1-1.29-.36l-.32-.1a13.4,13.4,0,0,1-1.36-.62l-.19-.1c-.51-.33-.94-.62-1.35-.92a3.15,3.15,0,0,1,2.84-5.54l.36.12a4.5,4.5,0,0,0,2.72,0l.41-.08a13,13,0,0,1,2.33-.28,8.69,8.69,0,0,1,1.91.14l.43.09a8.73,8.73,0,0,1,1.82.63,9.79,9.79,0,0,1,1.76,1l.71.52a5.55,5.55,0,0,1,.49.42l.52.47a11.9,11.9,0,0,1,.87.87l1,1.08c.53.65,1,1.26,1.46,1.89l.25.33,1.48,2.19c1.89,2.8.89,6.7-2.49,9.71A.7.7,0,0,1,38.62,36.44Z" transform="translate(0 0)"/></svg>