<svg id="Layer_1" data-name="Layer 1" xmlns="http://www.w3.org/2000/svg" viewBox="0 0 47.47 82.82"><defs><style>.cls-1{fill:#fbbc95;}.cls-2{fill:#7b483c;}.cls-3{opacity:0.3;}</style></defs><path class="cls-1" d="M17.16,81.9l27.15.22L45.9,65.76l.76-21.44C40.75,38.6,35.89,31.05,27.62,23,23.33,16.74,10.09,28.8,3.34,38.6l7,16.44c2,4.46,5.55,9.26,9.2,13.61Z" transform="translate(0)"/><path class="cls-2" d="M44.93,82.82l-28.59-.24,2.44-13.74c-4.43-5.3-7.4-9.73-9.09-13.52L2.56,38.52l.22-.31c5-7.32,15-17.62,21.5-17.62h0a4.52,4.52,0,0,1,3.86,2A149.24,149.24,0,0,1,39.27,35a108.21,108.21,0,0,0,7.87,8.88l.22.21-.77,21.74ZM18,81.22l25.71.21,1.52-15.74L46,44.6a114,114,0,0,1-7.76-8.77A144.72,144.72,0,0,0,27.14,23.5l-.08-.1A3.15,3.15,0,0,0,24.28,22h0C19,22,9.78,30.58,4.12,38.68L11,54.77c1.66,3.72,4.63,8.12,9.09,13.43l.21.25Z" transform="translate(0)"/><g class="cls-3"><path class="cls-2" d="M17.88,49.62h0a5.23,5.23,0,0,1,6.52,1.83l3.66,5.42,3.42-15.75c-5.91-5.71-7.16-.59-14.16-5-4.29-6.27-7.23-7.29-14,2.51l7,16.44c2,4.46,6.21,9.26,9.86,13.61l-5-12.31A5.23,5.23,0,0,1,17.88,49.62Z" transform="translate(0)"/></g><path class="cls-1" d="M23.67,30.91,4.43,5.7A3.17,3.17,0,0,1,9.52,1.93L27.62,23Z" transform="translate(0)"/><path class="cls-2" d="M23.68,31.6a.7.7,0,0,1-.55-.27L3.89,6.11a3.85,3.85,0,0,1,6.18-4.59l18.08,21a.69.69,0,0,1-.08,1,.68.68,0,0,1-1-.07L9,2.38A2.48,2.48,0,0,0,5,5.3L24.22,30.49a.69.69,0,0,1-.54,1.11Z" transform="translate(0)"/><path class="cls-1" d="M17.32,36.09,1.23,12.76A3.21,3.21,0,0,1,6.51,9.11l17.16,21.8Z" transform="translate(0)"/><path class="cls-2" d="M17.32,36.78a.71.71,0,0,1-.57-.3L.66,13.15A3.9,3.9,0,0,1,7.07,8.71L24.22,30.48a.69.69,0,0,1-1.09.85L6,9.53A2.53,2.53,0,0,0,2.5,8.88a2.53,2.53,0,0,0-.7,3.5L17.89,35.7a.7.7,0,0,1-.18,1A.69.69,0,0,1,17.32,36.78Z" transform="translate(0)"/><path class="cls-1" d="M28.54,56.41a25.49,25.49,0,0,1,2.94-15.29Z" transform="translate(0)"/><path class="cls-2" d="M28.54,57.1a.69.69,0,0,1-.68-.61,26.13,26.13,0,0,1,3-15.69.69.69,0,0,1,.93-.29.7.7,0,0,1,.29.93,24.76,24.76,0,0,0-2.86,14.89.69.69,0,0,1-.61.76Z" transform="translate(0)"/><path class="cls-1" d="M17.19,43,8,33.36a3.43,3.43,0,0,0-4.8,4.91l.08.07,9.89,8.95a2.93,2.93,0,0,0,4-4.26Z" transform="translate(0)"/><path class="cls-2" d="M15.15,48.74a3.6,3.6,0,0,1-2.45-1l-10-9a4.12,4.12,0,1,1,5.76-5.89l9.2,9.68a3.61,3.61,0,0,1-2.53,6.19ZM5.61,33.07a2.74,2.74,0,0,0-1.93,4.7l10,9a2.24,2.24,0,0,0,3.08-3.25h0L7.5,33.83A2.7,2.7,0,0,0,5.61,33.07Z" transform="translate(0)"/><path class="cls-1" d="M21.73,38.36,12.41,26.94a3.79,3.79,0,1,0-5.69,5L6.8,32,16.94,42.71a3.24,3.24,0,0,0,4.79-4.35Z" transform="translate(0)"/><path class="cls-2" d="M19.3,44.42h-.12a4,4,0,0,1-2.74-1.24L6.21,32.41a4.47,4.47,0,0,1,.4-6.32,4.48,4.48,0,0,1,6.31.4l9.33,11.43a3.92,3.92,0,0,1-2.95,6.5ZM9.57,26.35a3.08,3.08,0,0,0-2.05.77,3,3,0,0,0-1,2.13,3.1,3.1,0,0,0,.77,2.25l10.2,10.73a2.55,2.55,0,0,0,3.77-3.42h0L11.87,27.38A3.06,3.06,0,0,0,9.57,26.35Z" transform="translate(0)"/><path class="cls-1" d="M32.76,42.94a8,8,0,0,0-4.5-1.61,35.07,35.07,0,0,0-6.64.71c-.65.1-1.29.2-2,.25-.35,0-.68.08-1,.09l-1.1,0a14.48,14.48,0,0,1-2.24-.18A19.55,19.55,0,0,1,13,41.64a2.45,2.45,0,0,1,1-4.8l.4,0a12.41,12.41,0,0,0,5.72-1.08,41,41,0,0,1,7.53-2.36c.77-.08,1.53-.21,2.33-.22a18.11,18.11,0,0,1,2.44.1,18.31,18.31,0,0,1,2.45.49,23.82,23.82,0,0,1,2.33.82A26.31,26.31,0,0,1,44.77,39c2.24,2,2.13,3.05,1.89,6.79Z" transform="translate(0)"/><path class="cls-2" d="M46.66,46.49h0a.68.68,0,0,1-.64-.73v-.22c.22-3.52.27-4.25-1.68-6a25.77,25.77,0,0,0-7.43-4.25,14.83,14.83,0,0,0-1.7-.61l-.58-.19A9.77,9.77,0,0,0,33,34.13L32.25,34a9.25,9.25,0,0,0-1.6-.09h-.74a14.2,14.2,0,0,0-1.54.14l-.69.09a30.81,30.81,0,0,0-5.95,1.78l-1.43.54a12.82,12.82,0,0,1-6,1.11l-.4,0a1.79,1.79,0,0,0-1.92,1.29A1.77,1.77,0,0,0,13.17,41l.61.17a11.48,11.48,0,0,0,1.56.39l.53.06a8.76,8.76,0,0,0,1.58.11l1.12,0,.63,0,.36,0c.68-.06,1.28-.14,2-.25l1.3-.2a25.83,25.83,0,0,1,5.5-.51,8.67,8.67,0,0,1,4.86,1.73.69.69,0,0,1-.81,1.12A7.25,7.25,0,0,0,28.22,42a24.84,24.84,0,0,0-5.2.5l-1.3.21c-.7.1-1.33.19-2,.25l-.34,0c-.24,0-.48.05-.73.06H17.49A11,11,0,0,1,15.7,43l-.53-.07a11.88,11.88,0,0,1-1.78-.43l-.58-.17a3.12,3.12,0,0,1-1.9-1.47A3.14,3.14,0,0,1,14,36.16l.41.05a11.8,11.8,0,0,0,5.39-1l1.41-.53a31.37,31.37,0,0,1,6.25-1.87l.71-.08a13.42,13.42,0,0,1,1.72-.15h.73a10.56,10.56,0,0,1,1.84.11l.69.11a11.2,11.2,0,0,1,1.86.39l.57.19c.6.2,1.23.4,1.82.66,3.17,1.37,5.59,2.5,7.8,4.48,2.45,2.21,2.36,3.55,2.13,7.13v.22A.69.69,0,0,1,46.66,46.49Z" transform="translate(0)"/></svg>