<svg id="Layer_1" data-name="Layer 1" xmlns="http://www.w3.org/2000/svg" viewBox="0 0 39.24 82.3"><defs><style>.cls-1{fill:#fbbc95;}.cls-2{fill:#7b483c;}.cls-3{opacity:0.3;}</style></defs><path class="cls-1" d="M3.25,81.38l24.12.22-.51-9.1,10.3-17.29c-2.42-7.85-2.74-16.16-6.13-25-2-1.71-11.16,4-27.82.93L1.1,48.94c-1,7.32.13,10.87,1.24,16.43Z"/><path class="cls-2" d="M28.1,82.3,2.6,82.06l-1-16.65c-.14-.7-.3-1.45-.45-2.17-.95-4.47-1.7-8-.79-14.39l2.2-18.54.72.13a54.52,54.52,0,0,0,22.55-.63c2.89-.61,4.62-1,5.6-.14l.13.12.06.16a84.29,84.29,0,0,1,3.82,14.86A92,92,0,0,0,37.82,55l.09.29L27.56,72.67ZM3.9,80.69l22.75.22-.49-8.58L36.42,55.12a96.76,96.76,0,0,1-2.28-10,84.08,84.08,0,0,0-3.68-14.43c-.6-.27-2.32.1-4.3.51a55.72,55.72,0,0,1-22.35.77L1.78,49c-.88,6.17-.16,9.6.76,13.93.16.73.32,1.49.48,2.29Z"/><path class="cls-1" d="M16.32,33.7,21.37,3.41a3.21,3.21,0,0,1,6.36.87L24.68,35.5Z"/><path class="cls-2" d="M24.68,36.19h-.06a.68.68,0,0,1-.62-.75L27,4.21a2.51,2.51,0,0,0-2.12-2.8,2.52,2.52,0,0,0-2.87,2.11L17,33.81a.69.69,0,0,1-.79.57.7.7,0,0,1-.57-.79L20.69,3.3A3.89,3.89,0,0,1,25.13.05a3.88,3.88,0,0,1,3.28,4.31l-3,31.2A.7.7,0,0,1,24.68,36.19Z"/><g class="cls-3"><path class="cls-2" d="M25.82,46.43H35.1c-13-11.48-14-19.11-16.17-24.74-2-1.7.94,12.46-15.72,9.43L1.1,48.94c3.24.56,11.24,2.17,12.7,9.22l.94,4.61Z"/></g><path class="cls-1" d="M24.9,36.55,13.29,7.67a3.16,3.16,0,0,1,6-2.07L31,30.19Z"/><path class="cls-2" d="M24.9,37.24a.7.7,0,0,1-.64-.43L12.65,7.92a3.89,3.89,0,0,1,.21-3,3.86,3.86,0,0,1,7.06.42L31.65,29.9a.68.68,0,0,1-.33.91.69.69,0,0,1-.92-.32L18.65,5.9a2.48,2.48,0,0,0-3.12-1.57A2.46,2.46,0,0,0,14,7.45L25.53,36.29a.68.68,0,0,1-.38.9A.74.74,0,0,1,24.9,37.24Z"/><path class="cls-1" d="M15.38,62.77C16,57.14,19.28,48.36,26.07,47Z"/><path class="cls-2" d="M15.38,63.45h-.07a.69.69,0,0,1-.61-.76c.55-5,3.6-14.84,11.23-16.37a.68.68,0,0,1,.81.54.69.69,0,0,1-.54.81c-6.35,1.27-9.54,9.77-10.14,15.17A.68.68,0,0,1,15.38,63.45Z"/><path class="cls-1" d="M13.18,42,9.78,29.12a3.43,3.43,0,0,0-6.57,2l0,.1,4.37,12.6A2.93,2.93,0,0,0,13.18,42Z"/><path class="cls-2" d="M10.39,46.49A3.62,3.62,0,0,1,7,44L2.55,31.32a4.12,4.12,0,0,1,7.88-2.4l3.42,12.92a3.59,3.59,0,0,1-2.31,4.46A3.55,3.55,0,0,1,10.39,46.49ZM6.5,27.38a2.84,2.84,0,0,0-.81.12,2.74,2.74,0,0,0-1.82,3.42L8.26,43.59a2.24,2.24,0,0,0,4.26-1.36v0L9.11,29.3a2.73,2.73,0,0,0-1.33-1.6A2.64,2.64,0,0,0,6.5,27.38Z"/><path class="cls-1" d="M18.85,38.42,16.17,23.93a3.79,3.79,0,0,0-7.4,1.65s0,.09,0,.12l3.76,14.23a3.23,3.23,0,0,0,6.29-1.51Z"/><path class="cls-2" d="M15.69,43.05a3.94,3.94,0,0,1-3.8-2.94L8.1,25.74a4.48,4.48,0,0,1,8.74-2l2.68,14.51a3.9,3.9,0,0,1-2.85,4.64A4.11,4.11,0,0,1,15.69,43.05ZM12.48,21.66a3.08,3.08,0,0,0-3,3.77l0,.09,3.76,14.24a2.55,2.55,0,0,0,4.95-1.19v0L15.49,24.06a3.09,3.09,0,0,0-3-2.4Z"/><path class="cls-1" d="M26.83,47.46c-.15-.36-.3-.73-.44-1.12a8.4,8.4,0,0,0-3-3.66c-1.49-1.09-3.62-1.91-6.05-3.29l-.9-.54c-.3-.2-.62-.45-.92-.67a10.9,10.9,0,0,1-1.71-1.57,5.14,5.14,0,0,1-.73-.94l-.65-1c-.35-.69-.61-1.4-.89-2.1a2.46,2.46,0,0,1,4.4-2.15l.19.32A6.16,6.16,0,0,0,20,33.57c1.82.6,4.27,1,6.94,2.08a17.15,17.15,0,0,1,4,2.25,17.48,17.48,0,0,1,3.35,3.36c.44.63.88,1.27,1.32,1.93l1,2a13.44,13.44,0,0,1,.84,2l.74,2c1,2.84-.36,4.91-2.24,8.06Z"/><path class="cls-2" d="M36,57.92a.8.8,0,0,1-.36-.09.69.69,0,0,1-.23-.95l.3-.5c1.71-2.87,2.75-4.6,1.88-7l-.77-2.11a14,14,0,0,0-.76-1.8l-1-2c-.39-.58-.82-1.22-1.26-1.84a16.39,16.39,0,0,0-3.2-3.2,16.16,16.16,0,0,0-3.81-2.17,34.27,34.27,0,0,0-4.63-1.44c-.82-.2-1.58-.4-2.27-.62A7,7,0,0,1,15.5,31.1l-.18-.32A1.77,1.77,0,0,0,13.14,30a1.77,1.77,0,0,0-1,2.3l.16.4c.21.54.44,1.11.7,1.64l.61.93a5.41,5.41,0,0,0,.63.81,11.51,11.51,0,0,0,1.63,1.5l.29.22c.2.15.41.31.6.43l.9.54c1,.55,1.88,1,2.77,1.45a23.25,23.25,0,0,1,3.32,1.87A9.19,9.19,0,0,1,27,46.06c.16.42.3.78.45,1.13a.7.7,0,0,1-.37.91.69.69,0,0,1-.9-.37c-.16-.37-.31-.76-.46-1.15A7.66,7.66,0,0,0,23,43.24a23,23,0,0,0-3.14-1.76C19,41.05,18,40.56,17,40l-.92-.55c-.24-.16-.48-.33-.71-.51l-.25-.19a11.42,11.42,0,0,1-1.81-1.66,5.79,5.79,0,0,1-.8-1l-.66-1A19.09,19.09,0,0,1,11,33.23l-.16-.39a3.15,3.15,0,0,1,5.64-2.75l.18.31a5.55,5.55,0,0,0,3.56,2.52c.64.21,1.39.4,2.18.6A35,35,0,0,1,27.25,35a18,18,0,0,1,7.58,5.82c.47.66.91,1.31,1.35,2l1,2a13.43,13.43,0,0,1,.84,2l.77,2.12c1.1,3-.27,5.27-2,8.15l-.3.51A.7.7,0,0,1,36,57.92Z"/></svg>