<svg id="Layer_1" data-name="Layer 1" xmlns="http://www.w3.org/2000/svg" viewBox="0 0 39.4 54.14"><defs><style>.cls-1{fill:#fbbc95;}.cls-2{fill:#7b483c;}.cls-3{opacity:0.3;}</style></defs><path class="cls-1" d="M3.27,53.45h27l0-16.62,6.85-8.91C34.37,20.17,29.45,17,29.22,8L1.27,7.79.75,23.42C.46,30.6,1.16,33.84,3.27,37h0Z"/><path class="cls-2" d="M31,54.14H2.58V37.23C.4,33.85-.22,30.44.06,23.4L.6,7.1l29.29.24V8c.14,5.41,2,8.56,4.14,12.2a40.41,40.41,0,0,1,3.71,7.48l.12.35-6.94,9ZM4,52.76H29.59l0-16.16,6.76-8.8a39.87,39.87,0,0,0-3.46-6.89c-2.07-3.51-4-6.83-4.3-12.2L1.94,8.49l-.5,15c-.27,6.83.31,10,2.4,13.2l.12.17Z"/><g class="cls-3"><path class="cls-2" d="M15.6,32.25C17.29,25.88,21.08,21.93,27.46,21c-2.73-7.76,2-4,1.76-13L1.27,7.79.75,23.42C14.57,23.26,15.6,32.25,15.6,32.25Z"/></g><path class="cls-1" d="M22.45,17.26,24,4.74a3.79,3.79,0,1,1,7.54.75l0,.26L28.86,18.12a3.24,3.24,0,0,1-6.41-.86Z"/><path class="cls-2" d="M25.68,21.5a3.71,3.71,0,0,1-.67-.06,3.94,3.94,0,0,1-3.25-4.25v0L23.3,4.66a4.48,4.48,0,0,1,8.91.89,3.06,3.06,0,0,1-.05.32L29.53,18.26a4,4,0,0,1-3.85,3.24Zm-2.55-4.17a2.56,2.56,0,0,0,2.11,2.75,2.52,2.52,0,0,0,1.9-.43,2.57,2.57,0,0,0,1-1.65L30.81,5.61s0-.12,0-.19a3.11,3.11,0,0,0-6.18-.61Z"/><path class="cls-1" d="M16.07,17.6l.24-13.18a3.79,3.79,0,0,1,7.58.12c0,.09,0,.19,0,.29l-1.48,13.1a3.17,3.17,0,0,1-6.32-.33Z"/><path class="cls-2" d="M19.24,21.5l-.36,0a3.87,3.87,0,0,1-3.5-3.89h0l.24-13.17a4.48,4.48,0,0,1,9,.14c0,.11,0,.23,0,.34L23.07,18A3.86,3.86,0,0,1,19.24,21.5Zm-2.48-3.9a2.48,2.48,0,0,0,4.94.27L23.19,4.75c0-.06,0-.15,0-.23A3.1,3.1,0,0,0,17,4.43Z"/><path class="cls-1" d="M9.57,17.79,8.72,4.69a3.79,3.79,0,0,1,7.57-.4v.27L16,17.68a3.21,3.21,0,0,1-6.42.11Z"/><path class="cls-2" d="M12.78,21.52H12.7a3.93,3.93,0,0,1-3.82-3.69L8,4.74A4.48,4.48,0,1,1,17,4.25c0,.11,0,.23,0,.33l-.3,13.12a3.91,3.91,0,0,1-3.9,3.82ZM12.5,1.39h-.16A3.11,3.11,0,0,0,9.4,4.65l.86,13.11a2.52,2.52,0,0,0,5-.09l.3-13.12V4.32A3.1,3.1,0,0,0,12.5,1.39Z"/><path class="cls-1" d="M3,17.79,1.25,8.41a3.79,3.79,0,1,1,7.5-1,1.6,1.6,0,0,1,0,.3l.74,9.48A3.28,3.28,0,0,1,3,17.79Z"/><path class="cls-2" d="M6.24,21.31a4,4,0,0,1-3.93-3.4L.57,8.54A4.48,4.48,0,1,1,9.44,7.26l0,.36.73,9.47A4,4,0,0,1,6.47,21.3ZM5,4.78A3.1,3.1,0,0,0,2.52,6a3.06,3.06,0,0,0-.59,2.3L3.67,17.7a2.6,2.6,0,0,0,5.16-.52L8.1,7.72l0-.26a3.05,3.05,0,0,0-1.2-2A3.09,3.09,0,0,0,5,4.78Z"/><path class="cls-2" d="M16.29,32.89h-.12a.68.68,0,0,1-.55-.8c.91-5,2.65-10,12.73-12.23a.69.69,0,0,1,.82.53.69.69,0,0,1-.53.82c-9.28,2-10.77,6.23-11.67,11.13A.69.69,0,0,1,16.29,32.89Z"/><path class="cls-1" d="M27.46,21c-.14-.74-.64-2.58-.8-3.16s-.37-1-.37-1.19-.43-.31-1.35-.14a13.42,13.42,0,0,1-3.5.28,7.36,7.36,0,0,1-3.79-1.44A2.47,2.47,0,0,1,19.87,11l.36.11a1.87,1.87,0,0,0,1.18,0A15.3,15.3,0,0,0,23,10.37a10.48,10.48,0,0,1,3.3-1.12,6.77,6.77,0,0,1,2.75.21,7.64,7.64,0,0,1,2.45,1.25,12.82,12.82,0,0,1,2.73,3,25.42,25.42,0,0,1,1.66,2.78c.94,1.81,1.7,3.56,2.41,5.31l0,.06c1.14,2.82-.5,5.09-2.58,7.8Z"/><path class="cls-2" d="M35.77,30.34a.71.71,0,0,1-.42-.14.7.7,0,0,1-.13-1c2.19-2.85,3.45-4.75,2.49-7.12-.65-1.6-1.43-3.43-2.41-5.31a25.85,25.85,0,0,0-1.61-2.71,12.54,12.54,0,0,0-2.59-2.84,7.1,7.1,0,0,0-2.22-1.13,6,6,0,0,0-2.46-.19,9,9,0,0,0-2.78.91l-.33.16a14.57,14.57,0,0,1-1.68.75,2.47,2.47,0,0,1-1.59,0l-.36-.1a1.78,1.78,0,0,0-1.6,3.11,6.6,6.6,0,0,0,3.41,1.3,12.23,12.23,0,0,0,3.17-.24l.16,0a2.18,2.18,0,0,1,2,.36l.26.31-.07.2a1,1,0,0,1,.07.19,7.82,7.82,0,0,1,.25.77c.17.58.67,2.44.81,3.21a.69.69,0,1,1-1.35.25c-.13-.68-.61-2.51-.79-3.09-.07-.27-.15-.5-.21-.69a1.46,1.46,0,0,1-.07-.19,2.28,2.28,0,0,0-.65,0l-.16,0a14.06,14.06,0,0,1-3.52.26,8.07,8.07,0,0,1-4.15-1.59,3.16,3.16,0,0,1,2.84-5.52l.36.11a1.16,1.16,0,0,0,.78,0,15.34,15.34,0,0,0,1.5-.68l.34-.16a10.23,10.23,0,0,1,3.17-1,7.39,7.39,0,0,1,3,.23,8.08,8.08,0,0,1,2.66,1.35,13.52,13.52,0,0,1,2.9,3.16,27.86,27.86,0,0,1,1.7,2.85c1,1.93,1.8,3.8,2.44,5.37,1.35,3.34-.68,6-2.65,8.54A.67.67,0,0,1,35.77,30.34Z"/></svg>