<svg id="Layer_1" data-name="Layer 1" xmlns="http://www.w3.org/2000/svg" viewBox="0 0 34.25 50.58"><defs><style>.cls-1{fill:#fbbc95;}.cls-2{fill:#7b483c;}</style></defs><path class="cls-1" d="M5,5.67l.81.12A3.77,3.77,0,0,0,9.22,4.51l1.39-1.64a3.12,3.12,0,0,1,3.75-.77l.41.2a3.76,3.76,0,0,0,4.3-.69l0,0a3.11,3.11,0,0,1,4-.32l1.35,1a3.76,3.76,0,0,0,3.28.54h0a3.93,3.93,0,0,1,4.34,1.47c1.35,1.88,1.76,4,1.35,8.26L.81,14.21a12.75,12.75,0,0,1,.86-6.65A3.13,3.13,0,0,1,5,5.67Z"/><path class="cls-2" d="M.22,14.93l-.09-.62a13.43,13.43,0,0,1,.91-7A3.8,3.8,0,0,1,5.11,5l.8.12A3,3,0,0,0,8.7,4.06l1.38-1.63a3.8,3.8,0,0,1,4.58-1l.42.21a3.06,3.06,0,0,0,3.51-.57,3.79,3.79,0,0,1,4.9-.41l1.35,1a3.09,3.09,0,0,0,2.68.44,4.64,4.64,0,0,1,5.1,1.73c1.5,2.1,1.89,4.38,1.47,8.73l-.05.59Zm4.33-8.6A2.43,2.43,0,0,0,2.31,7.82a12,12,0,0,0-.89,5.67l31.36-1.63c.29-3.59-.06-5.51-1.28-7.21a3.23,3.23,0,0,0-3.58-1.21A4.47,4.47,0,0,1,24,2.8l-1.35-1a2.41,2.41,0,0,0-3.11.25,4.45,4.45,0,0,1-5.11.84l-.42-.2a2.41,2.41,0,0,0-2.92.6L9.74,5a4.4,4.4,0,0,1-4,1.52L4.9,6.35Z"/><path class="cls-1" d="M33.5,11.56,30.8,44a3.5,3.5,0,0,1-6.93-.93l1.52-32.59Z"/><path class="cls-2" d="M27.35,47.59a4.14,4.14,0,0,1-.7-.06A4.21,4.21,0,0,1,23.19,43L24.7,10.44a.7.7,0,0,1,.72-.65.69.69,0,0,1,.66.72L24.56,43.09a2.84,2.84,0,0,0,2.32,3.08,2.81,2.81,0,0,0,3.24-2.3l2.7-32.36a.69.69,0,0,1,1.37.11L31.48,44.05A4.21,4.21,0,0,1,27.35,47.59Z"/><path class="cls-1" d="M25.3,10.25c0,.1,0,.21,0,.32L23.67,46.78a3.42,3.42,0,0,1-6.82-.36l.26-36.29Z"/><path class="cls-2" d="M20.27,50.58l-.38,0a4.13,4.13,0,0,1-3.73-4.15l.26-36.29a.69.69,0,0,1,.69-.68h0a.68.68,0,0,1,.68.69l-.25,36.29a2.73,2.73,0,0,0,5.45.3l1.6-36.19c0-.11,0-.2,0-.29a.69.69,0,0,1,.69-.68h0a.69.69,0,0,1,.68.7c0,.12,0,.25,0,.36l-1.6,36.19A4.13,4.13,0,0,1,20.27,50.58Z"/><path class="cls-1" d="M17.08,10c0,.1,0,.2,0,.3l-.33,33.78a3.47,3.47,0,0,1-6.93.12L8.91,10.42Z"/><path class="cls-2" d="M13.29,48.16h-.08a4.19,4.19,0,0,1-4.07-3.94L8.22,10.44a.69.69,0,0,1,.67-.71.66.66,0,0,1,.7.67l.92,33.76a2.79,2.79,0,0,0,5.57-.11l.32-33.78V10a.68.68,0,0,1,.65-.72.7.7,0,0,1,.72.65c0,.11,0,.23,0,.33l-.33,33.79A4.17,4.17,0,0,1,13.29,48.16Z"/><path class="cls-1" d="M9,10.85c0,.1,0,2.67,0,2.78l.46,13.48A13.7,13.7,0,0,1,6,27.1c-1.85-.18-3.46-1.24-3.72-3l-1.55-11Z"/><path class="cls-2" d="M7.91,27.89a20.15,20.15,0,0,1-2-.1c-2.35-.23-4-1.66-4.33-3.64L0,13.17a.68.68,0,0,1,.58-.78.7.7,0,0,1,.78.59L2.92,24A3.17,3.17,0,0,0,6,26.42a16.53,16.53,0,0,0,2.7.07L8.29,13.65s0-.47,0-1c0-.72,0-1.61,0-1.75a.69.69,0,0,1,.62-.73.68.68,0,0,1,.75.58c0,.09,0,.19,0,1.89,0,.48,0,.88,0,.95l.48,14.09-.58.11A11.88,11.88,0,0,1,7.91,27.89Z"/></svg>