<svg id="Layer_1" data-name="Layer 1" xmlns="http://www.w3.org/2000/svg" viewBox="0 0 56 74.58"><defs><style>.cls-1{fill:#fbbc95;}.cls-2{fill:#7b483c;}.cls-3{opacity:0.3;}.cls-4{fill:#8b8b8b;}</style></defs><path class="cls-1" d="M24.53,73.89h27L49.87,48.21l4.75-10.47C49.45,31.35,41.53,20.49,38.3,12.12L10.92,24.53l5,20.77a22,22,0,0,0,8.63,12.17h0Z"/><path class="cls-2" d="M52.27,74.58H23.84V57.81A22.45,22.45,0,0,1,15.25,45.5L10.12,24.14,38.68,11.19l.26.68c3.71,9.61,13.35,21.9,16.22,25.43l.26.33L50.56,48.34ZM25.21,73.2H50.8L49.17,48.09l4.65-10.25c-3.11-3.87-12-15.4-15.9-24.8L11.73,24.92l4.84,20.22a21.38,21.38,0,0,0,8.37,11.78l.27.2Z"/><g class="cls-3"><path class="cls-2" d="M34.85,48.88C34,41.71,37.3,37.51,42.74,34.8c-5.17-6.39-3.8-13.88-4.77-22.36L18.2,23.54C22,35.59,27.27,44.72,34.85,48.88Z"/></g><path class="cls-1" d="M32.89,23.85,30.63,13A3.79,3.79,0,1,1,38,11.14a2.38,2.38,0,0,1,0,.26l1.17,11.11a3.23,3.23,0,0,1-6.32,1.34Z"/><path class="cls-2" d="M36,27a4,4,0,0,1-3.81-3v0L30,13.12a4.4,4.4,0,0,1,.51-3.37,4.46,4.46,0,0,1,6.14-1.53,4.41,4.41,0,0,1,2,2.75c0,.1.05.21.07.31L39.9,22.44A3.92,3.92,0,0,1,36,27ZM33.56,23.7a2.57,2.57,0,0,0,2.91,1.88,2.52,2.52,0,0,0,1.64-1,2.57,2.57,0,0,0,.43-1.9L37.36,11.48s0-.1,0-.17a3.1,3.1,0,1,0-6,1.5Z"/><path class="cls-1" d="M27,26.32,23.3,15.26a3.79,3.79,0,0,1,7.18-2.45c0,.09.06.19.08.28l2.5,11.42A3.16,3.16,0,0,1,27,26.32Z"/><path class="cls-2" d="M30,29.15a3.91,3.91,0,0,1-3.67-2.61h0L22.65,15.47a4.39,4.39,0,0,1,.22-3.41,4.48,4.48,0,0,1,8.26.53c0,.11.07.22.1.33l2.5,11.44A3.85,3.85,0,0,1,31,29,3.79,3.79,0,0,1,30,29.15Zm-2.36-3.06a2.47,2.47,0,0,0,4.74-1.41l-2.5-11.44c0-.05,0-.13-.06-.21a3.13,3.13,0,0,0-1.57-1.78,3.05,3.05,0,0,0-2.37-.15A3.1,3.1,0,0,0,24,15Z"/><path class="cls-1" d="M20.94,28.69l-4.7-10.63a3.79,3.79,0,1,1,7-2.92l.09.25,3.62,11a3.21,3.21,0,0,1-6,2.27Z"/><path class="cls-2" d="M23.92,31.35A3.92,3.92,0,0,1,20.31,29l-4.7-10.62a4.48,4.48,0,1,1,8.26-3.47c0,.1.08.2.11.3l3.62,11a3.88,3.88,0,0,1-.2,3,3.93,3.93,0,0,1-2.25,2A4.06,4.06,0,0,1,23.92,31.35ZM19.74,13.49a3.13,3.13,0,0,0-1.2.24,3.08,3.08,0,0,0-1.67,1.69,3,3,0,0,0,0,2.37l4.7,10.63a2.53,2.53,0,0,0,3.13,1.42,2.48,2.48,0,0,0,1.46-1.27,2.53,2.53,0,0,0,.13-1.93l-3.62-11c0-.06-.05-.13-.08-.2a3.09,3.09,0,0,0-1.68-1.67A3,3,0,0,0,19.74,13.49Z"/><path class="cls-1" d="M18.52,23.21,10.69,2.93a3.12,3.12,0,0,0-6,1.51l7,22.85Z"/><path class="cls-2" d="M11.6,28a.68.68,0,0,1-.66-.49L4,4.64A3.85,3.85,0,0,1,6.63.15a3.81,3.81,0,0,1,2.9.32,3.75,3.75,0,0,1,1.82,2.27L19.16,23a.69.69,0,1,1-1.28.5L10.05,3.18a2.43,2.43,0,0,0-1.18-1.5A2.35,2.35,0,0,0,7,1.48,2.45,2.45,0,0,0,5.32,4.3l6.94,22.79a.7.7,0,0,1-.46.86Z"/><path class="cls-2" d="M35.17,49.24a.69.69,0,0,1-.68-.58c-1-5.82.06-9.7,8.21-14.77a.69.69,0,1,1,.73,1.17C35.85,39.78,35,43,35.85,48.44a.69.69,0,0,1-.57.79Z"/><path class="cls-1" d="M43.07,34.47a6.66,6.66,0,0,0-2.52-2.2,8.23,8.23,0,0,0-2,.32l-.68.14-.77.12a11.8,11.8,0,0,1-1.59.1c-.54,0-1.08-.09-1.6-.15s-1-.26-1.47-.39a2.46,2.46,0,0,1,.63-4.83h.38a5.12,5.12,0,0,0,2.9-1,14.31,14.31,0,0,1,2.35-1.22,9.41,9.41,0,0,1,1.82-.49,9.8,9.8,0,0,1,3.93.29l.87.25a8,8,0,0,1,.76.3c.48.21,1,.43,1.44.66l1.29.71c.81.48,1.54,1,2.31,1.48l2.1,1.55c2.45,1.8,2.58,5.09,1.18,8.1Z"/><path class="cls-2" d="M54.42,38.88a.59.59,0,0,1-.29-.07.68.68,0,0,1-.34-.91c1.1-2.36,1.43-5.51-1-7.26l-2.44-1.77c-.62-.41-1.24-.82-1.91-1.22L47.21,27a9.83,9.83,0,0,0-1-.46l-.65-.27a3.83,3.83,0,0,0-.45-.18l-.86-.25a8.88,8.88,0,0,0-1.77-.32,7.47,7.47,0,0,0-1.63,0l-.29,0A9.39,9.39,0,0,0,39,26a11.3,11.3,0,0,0-1.92,1l-.37.22a5.77,5.77,0,0,1-3.24,1.11H33.1a1.77,1.77,0,0,0-.45,3.48l1.44.38h.14a11.59,11.59,0,0,0,1.31.12h.31A8.2,8.2,0,0,0,37,32.17l1.79-.33a6,6,0,0,1,1.85-.25l.12,0A7,7,0,0,1,43.6,34a.69.69,0,0,1-1.06.87,6.86,6.86,0,0,0-2.13-2h0a8.2,8.2,0,0,0-1.32.24l-1,.22-.81.12a8.16,8.16,0,0,1-1.33.1h-.34a13.34,13.34,0,0,1-1.49-.13l-.21,0c-.59-.14-1.09-.27-1.58-.41a3.15,3.15,0,0,1,.81-6.18h.38A4.54,4.54,0,0,0,36,26l.36-.22a12.66,12.66,0,0,1,2.1-1.05,9.49,9.49,0,0,1,1.85-.51l.43-.05a7.7,7.7,0,0,1,1.92,0,9.79,9.79,0,0,1,2,.36l.85.25c.24.08.42.15.61.23l.63.27a11.7,11.7,0,0,1,1.12.53l1.27.7c.71.42,1.35.84,2,1.27l.37.24,2.13,1.56c2.51,1.85,3.06,5.36,1.39,8.95A.7.7,0,0,1,54.42,38.88Z"/><path class="cls-4" d="M7.46,68A7.56,7.56,0,0,1,2.28,55a7.45,7.45,0,0,1,5.37-2.15,7.57,7.57,0,0,1,7.47,7.65,7.37,7.37,0,0,1-.23,1.75l-2.2-.55a5.59,5.59,0,0,0,.16-1.22,5.29,5.29,0,0,0-9-3.86,5.24,5.24,0,0,0-1.6,3.72,5.3,5.3,0,0,0,5.22,5.36Z"/><polygon class="cls-4" points="13.93 64.58 9.06 59.58 10.69 58 13.97 61.37 17.34 58.08 18.93 59.71 13.93 64.58"/></svg>