<svg id="Layer_1" data-name="Layer 1" xmlns="http://www.w3.org/2000/svg" viewBox="0 0 38.5 83.3"><defs><style>.cls-1{fill:#fbbc95;}.cls-2{fill:#7b483c;}.cls-3{opacity:0.3;}</style></defs><path class="cls-1" d="M3.25,82.38l24.13.23-.52-8.1,9.88-16.59c-2.43-7.85-3.86-18-4.33-27.76-2-1.71-12.54,6-29.2,3L1.1,51c-1,7.31.13,10.86,1.24,16.42Z"/><path class="cls-2" d="M28.11,83.3,2.6,83.06l-1-15.64c-.14-.7-.3-1.45-.45-2.18-.95-4.47-1.7-8-.79-14.39l2.2-18.54.72.14c10.73,1.95,18.93-.63,23.83-2.17,3.05-1,4.73-1.48,5.7-.64l.22.19,0,.3c.5,10.46,2,20.26,4.3,27.59l.09.29L27.56,74.68ZM3.9,81.7l22.74.21-.48-7.57L36,57.83c-2.23-7.31-3.73-16.95-4.26-27.23a16.05,16.05,0,0,0-4.17,1c-4.91,1.55-13.06,4.11-23.76,2.33L1.78,51C.9,57.19,1.62,60.62,2.54,65c.16.73.32,1.48.48,2.28Z"/><path class="cls-1" d="M24.14,33.26l4-28.52a3.16,3.16,0,0,1,6.28.71l-2,25.42Z"/><path class="cls-2" d="M24.14,34H24a.69.69,0,0,1-.58-.78l4-28.51a3.85,3.85,0,0,1,7.65.86l-2,25.41a.69.69,0,1,1-1.37-.11l2-25.42a2.48,2.48,0,0,0-4.92-.56l-4,28.53A.69.69,0,0,1,24.14,34Z"/><path class="cls-1" d="M16.08,34.75,13.32,4.17a3.21,3.21,0,0,1,6.39-.65l4.43,29.74Z"/><path class="cls-2" d="M16.07,35.44a.69.69,0,0,1-.68-.63L12.64,4.24a3.9,3.9,0,0,1,7.75-.81l4.43,29.73a.68.68,0,0,1-.58.78.69.69,0,0,1-.78-.57L19,3.62a2.52,2.52,0,0,0-5,.5l2.75,30.57a.67.67,0,0,1-.62.74Z"/><g class="cls-3"><path class="cls-2" d="M26.43,49.18V49h8.15c-1.13-6-12.75-14-13.06-20.35-6.14.58-1.65,7.47-18.31,4.43L1.31,49.18c7,.41,11.45,5,13.75,13.58Z"/></g><path class="cls-1" d="M15.38,64.77C16,59.15,19.28,50.36,26.07,49Z"/><path class="cls-2" d="M15.38,65.46h-.07a.68.68,0,0,1-.61-.75c.55-5,3.6-14.84,11.23-16.38a.69.69,0,0,1,.81.54.68.68,0,0,1-.54.81C19.85,51,16.66,59.45,16.07,64.85A.69.69,0,0,1,15.38,65.46Z"/><path class="cls-1" d="M13.18,44l-3.4-12.9a3.43,3.43,0,1,0-6.57,2l0,.11L7.61,45.82A2.93,2.93,0,0,0,13.18,44Z"/><path class="cls-2" d="M10.39,48.5A3.62,3.62,0,0,1,7,46L2.55,33.32a4.12,4.12,0,0,1,5.88-4.83,4.08,4.08,0,0,1,2,2.44l3.42,12.91a3.61,3.61,0,0,1-2.31,4.47A3.55,3.55,0,0,1,10.39,48.5ZM6.5,29.38a2.84,2.84,0,0,0-.81.12,2.75,2.75,0,0,0-1.82,3.42L8.26,45.6a2.24,2.24,0,0,0,4.26-1.37v0L9.11,31.3A2.74,2.74,0,0,0,6.5,29.38Z"/><path class="cls-1" d="M18.85,40.43,16.17,25.94a3.79,3.79,0,0,0-7.4,1.65l0,.12,3.76,14.23a3.23,3.23,0,0,0,6.29-1.51Z"/><path class="cls-2" d="M15.69,45.06a3.94,3.94,0,0,1-3.8-3L8.1,27.74a4.48,4.48,0,1,1,8.74-1.95l2.68,14.5a3.9,3.9,0,0,1-2.85,4.64A3.67,3.67,0,0,1,15.69,45.06Zm-3.21-21.4a3.09,3.09,0,0,0-3,3.78l3.78,14.32a2.54,2.54,0,0,0,4.95-1.18v0L15.49,26.06a3.13,3.13,0,0,0-3-2.4Z"/><path class="cls-1" d="M26.6,49a23.56,23.56,0,0,0-1.27-6.25,24.46,24.46,0,0,0-1.18-2.51c-.46-.88-1-1.84-1.55-3a14.33,14.33,0,0,1-1.21-3.7,17.91,17.91,0,0,1-.22-1.87c0-.61,0-1.2,0-1.79A2.47,2.47,0,0,1,26,29.34l.07.29.33,1.28a11.73,11.73,0,0,0,.43,1.14A9.09,9.09,0,0,0,28.1,34a61,61,0,0,1,4.07,4.81,34.67,34.67,0,0,1,3.52,6.07c.53,1,.9,2.09,1.36,3.15,1.54,4.92.62,8.87-1.08,11.2Z"/><path class="cls-2" d="M36,59.9a.66.66,0,0,1-.4-.13.68.68,0,0,1-.15-1c1.88-2.59,2.24-6.55,1-10.59-.12-.28-.26-.63-.4-1-.3-.72-.57-1.39-.91-2.08a35.87,35.87,0,0,0-3.46-6,40.37,40.37,0,0,0-2.91-3.49c-.42-.46-.81-.89-1.14-1.28a9.92,9.92,0,0,1-1.35-2.1,5.55,5.55,0,0,1-.29-.73l-.15-.42-.43-1.66a1.77,1.77,0,0,0-1.71-1.35,1.83,1.83,0,0,0-1.26.52,1.74,1.74,0,0,0-.53,1.25v.39c0,.46,0,.91,0,1.38,0,.14,0,.34.06.54a7.72,7.72,0,0,0,.15,1.2A14,14,0,0,0,23.22,37c.37.77.75,1.47,1.11,2.11l.43.8c.52,1,.9,1.82,1.21,2.58A24.49,24.49,0,0,1,27.28,49a.67.67,0,0,1-.63.73.69.69,0,0,1-.74-.63,23,23,0,0,0-1.22-6,25.08,25.08,0,0,0-1.15-2.44l-.42-.79c-.36-.66-.75-1.38-1.14-2.18a15.09,15.09,0,0,1-1.27-3.89,10.41,10.41,0,0,1-.18-1.35c0-.18,0-.37-.05-.56,0-.54,0-1,0-1.48v-.38a3.15,3.15,0,0,1,3.15-3.14h0a3.14,3.14,0,0,1,3.05,2.38l.39,1.58a3.27,3.27,0,0,1,.15.39,5,5,0,0,0,.23.58,8.44,8.44,0,0,0,1.18,1.83c.31.36.68.78,1.09,1.22a40.36,40.36,0,0,1,3,3.62,35.34,35.34,0,0,1,3.59,6.19c.36.71.65,1.44.94,2.15.14.34.27.67.42,1,1.42,4.53,1,8.94-1.15,11.88A.72.72,0,0,1,36,59.9Z"/></svg>