<svg id="Layer_1" data-name="Layer 1" xmlns="http://www.w3.org/2000/svg" viewBox="0 0 40.02 76.5"><defs><style>.cls-1{fill:#fbbc95;}.cls-2{fill:#7b483c;}.cls-3{opacity:0.3;}</style></defs><path class="cls-1" d="M3.73,75.82h27l0-9.62L36.87,59c-2.72-7.76-4.56-21.33-5.57-30.15-9.74-1.58-18.94,5.21-29.36,11l-1.11,13c-.62,6.05.79,10.37,2.9,13.57Z"/><path class="cls-2" d="M31.43,76.5H3V66.6C.57,62.78-.4,58.12.15,52.76L1.29,39.43l.32-.18c1.75-1,3.46-2,5.15-2.94,8.39-4.86,16.31-9.45,24.65-8.1l.51.09.06.51c1.62,14.05,3.48,24.14,5.54,30l.13.38-6.26,7.26Zm-27-1.37H30L30,66l6.07-7.06c-2-5.93-3.84-15.81-5.42-29.39-7.66-1-15.23,3.37-23.22,8-1.59.92-3.21,1.86-4.85,2.77L1.52,52.89C1,58.09,1.9,62.38,4.3,66l.11.17Z"/><g class="cls-3"><path class="cls-2" d="M28.15,49.83h6.31c-1.43-7-2.48-15-3.16-20.94-4.88.55-6.65,5.75-8,8.91,0,0-.45,2.63-3.56,6.8A17.83,17.83,0,0,0,16.6,59.5l.1.39Z"/></g><path class="cls-1" d="M16.87,38.11l.6-34.28a3.16,3.16,0,0,1,6.32-.05l.92,32.84Z"/><path class="cls-2" d="M16.87,38.8h0a.68.68,0,0,1-.67-.7l.59-34.28a3.83,3.83,0,0,1,1.15-2.71A3.68,3.68,0,0,1,20.66,0a3.84,3.84,0,0,1,3.82,3.76L25.4,36.6a.68.68,0,0,1-.67.7h0a.68.68,0,0,1-.68-.66L23.11,3.8a2.48,2.48,0,0,0-2.46-2.42,2.51,2.51,0,0,0-1.76.71,2.47,2.47,0,0,0-.74,1.74l-.59,34.3A.68.68,0,0,1,16.87,38.8Z"/><path class="cls-1" d="M30.32,38,31.8,23.29a3.79,3.79,0,0,0-7.56-.48.45.45,0,0,0,0,.12l-.37,14.72a3.23,3.23,0,0,0,6.46.3Z"/><path class="cls-2" d="M27.09,41.67H27a3.93,3.93,0,0,1-3.79-4.05l.38-14.85a4.47,4.47,0,1,1,8.93.56L31,38A3.9,3.9,0,0,1,27.09,41.67ZM28,20a3.08,3.08,0,0,0-2,.77,3.14,3.14,0,0,0-1,2.13V23l-.38,14.71a2.57,2.57,0,0,0,.69,1.83,2.55,2.55,0,0,0,4.4-1.58v0l1.48-14.67A3.08,3.08,0,0,0,28.21,20Z"/><path class="cls-1" d="M9.44,38.56,10.72,7.65a3.21,3.21,0,0,1,6.42.16l-.27,30.3Z"/><path class="cls-2" d="M9.45,39.25h0a.69.69,0,0,1-.66-.72L10,7.62a3.9,3.9,0,0,1,7.8.19l-.27,30.31a.68.68,0,0,1-.69.68h0a.68.68,0,0,1-.68-.69L16.45,7.8A2.51,2.51,0,0,0,14,5.26a2.48,2.48,0,0,0-1.81.67,2.45,2.45,0,0,0-.81,1.75L10.13,38.59A.68.68,0,0,1,9.45,39.25Z"/><path class="cls-1" d="M1.87,40.81s0-.1,0-.15l2-25.21a3.29,3.29,0,0,1,6.56.37l-1,22.74Z"/><path class="cls-2" d="M1.87,41.5h0a.7.7,0,0,1-.68-.7v-.18l2-25.22a4,4,0,0,1,7.93.45l-1,22.74a.69.69,0,0,1-.69.66h0a.69.69,0,0,1-.65-.72l1-22.74a2.58,2.58,0,0,0-2.4-2.67,2.52,2.52,0,0,0-1.88.61,2.59,2.59,0,0,0-.9,1.78l-2,25.32A.69.69,0,0,1,1.87,41.5Z"/><path class="cls-1" d="M17.27,59.49c2-5.45,4.06-8.08,12-9.77Z"/><path class="cls-2" d="M17.27,60.18a.85.85,0,0,1-.23,0,.69.69,0,0,1-.42-.88c2-5.66,4.34-8.47,12.54-10.21a.68.68,0,0,1,.81.53.69.69,0,0,1-.53.82c-8,1.68-9.69,4.25-11.52,9.32A.7.7,0,0,1,17.27,60.18Z"/><path class="cls-1" d="M29.3,49.72c.2-.74.5-1.54.64-2.26a14.67,14.67,0,0,0,.51-4.14A11.51,11.51,0,0,0,29.22,39a17,17,0,0,1-1-3.23A15,15,0,0,1,28,34c0-.57,0-1.13,0-1.68a2.47,2.47,0,0,1,4.88-.46l.05.26a8.58,8.58,0,0,0,1.89,3.74,27.72,27.72,0,0,1,1.73,2.38c.3.46.58,1,.86,1.52s.52,1.1.7,1.67a22,22,0,0,1,1.17,6.74c.08,1.1,0,2.1,0,3.17l-.2,3.05c-.2,3-2.23,4.66-4.24,7Z"/><path class="cls-2" d="M34.86,62.06a.65.65,0,0,1-.45-.17.69.69,0,0,1-.07-1l1.06-1.18c1.6-1.76,2.86-3.14,3-5.4l.21-3.06c0-.31,0-.66,0-1,0-.7,0-1.37,0-2.08a21.74,21.74,0,0,0-1.14-6.55A10.87,10.87,0,0,0,37,40.51c-.08-.16-.15-.33-.22-.49-.26-.48-.53-1-.81-1.42-.5-.78-1-1.42-1.43-2l-.27-.35a9.12,9.12,0,0,1-2-4L32.23,32a1.78,1.78,0,0,0-1.71-1.41,1.85,1.85,0,0,0-1.27.5,1.77,1.77,0,0,0-.54,1.24v.35c0,.43,0,.86,0,1.3,0,.12,0,.3,0,.47a6.56,6.56,0,0,0,.15,1.13,16.36,16.36,0,0,0,1,3.14,12.1,12.1,0,0,1,1.28,4.6,15,15,0,0,1-.54,4.33,13.61,13.61,0,0,1-.39,1.44c-.09.28-.17.55-.24.82a.69.69,0,1,1-1.33-.36c.07-.28.16-.57.26-.87a13.49,13.49,0,0,0,.36-1.34,14.18,14.18,0,0,0,.51-4,11.33,11.33,0,0,0-1.18-4.11,18.18,18.18,0,0,1-1.05-3.38,8,8,0,0,1-.17-1.29c0-.16,0-.33-.05-.49,0-.52,0-1,0-1.44v-.34a3.17,3.17,0,0,1,3.22-3.09,3.13,3.13,0,0,1,3,2.51l.06.26a7.75,7.75,0,0,0,1.75,3.46l.27.34c.45.59,1,1.26,1.5,2.09.3.47.59,1,.86,1.52l.05.1.21.47a11.83,11.83,0,0,1,.51,1.26A22.4,22.4,0,0,1,40,48.14c0,.74,0,1.47,0,2.17,0,.34,0,.67,0,1l-.2,3.1c-.19,2.74-1.73,4.44-3.37,6.23l-1,1.16A.66.66,0,0,1,34.86,62.06Z"/></svg>