<svg id="Layer_1" data-name="Layer 1" xmlns="http://www.w3.org/2000/svg" viewBox="0 0 39.45 71.6"><defs><style>.cls-1{fill:#fbbc95;}.cls-2{fill:#7b483c;}.cls-3{opacity:0.3;}</style></defs><path class="cls-1" d="M1.6,70.91h24l-.86-10.83L37.52,43.6a6,6,0,0,0,1.19-4.42C38,33.45,35.88,30.59,34.31,23L9.85,26.21,6.13,33.9C-2.62,46.56,1.86,52.7,1.6,56Z"/><path class="cls-2" d="M26.33,71.6H.92V56a9.87,9.87,0,0,0-.33-2.54c-.74-3.69-2-9.86,5-19.91l3.86-8,25.46-3.32.13.62a63.18,63.18,0,0,0,2.38,8.35,36.38,36.38,0,0,1,2,7.87A6.67,6.67,0,0,1,38.06,44L25.43,60.29Zm-24-.69h0Zm0-.68H24.84L24,59.87,37,43.18A5.31,5.31,0,0,0,38,39.26a35.28,35.28,0,0,0-2-7.59,68.33,68.33,0,0,1-2.29-7.89L10.31,26.84,6.7,34.29C.06,43.89,1.2,49.49,1.94,53.2a11.22,11.22,0,0,1,.35,2.86Z"/><path class="cls-1" d="M3.69,41l-1.8-9.45a4.22,4.22,0,1,1,8.39-1,2.83,2.83,0,0,1,0,.3l.52,9.56A3.58,3.58,0,0,1,3.69,41Z"/><path class="cls-2" d="M7.25,44.8A4.29,4.29,0,0,1,3,41.07L1.22,31.64a4.84,4.84,0,0,1,1-3.67,4.9,4.9,0,0,1,6.89-.82A4.85,4.85,0,0,1,11,30.43l0,.34.52,9.56A4.28,4.28,0,0,1,7.45,44.8ZM6.09,27.47a3,3,0,0,0-.42,0,3.5,3.5,0,0,0-2.36,1.32,3.46,3.46,0,0,0-.73,2.61l1.79,9.44a2.89,2.89,0,0,0,5.76-.47l-.51-9.55c0-.09,0-.18,0-.26a3.55,3.55,0,0,0-1.33-2.36A3.48,3.48,0,0,0,6.09,27.47Z"/><path class="cls-1" d="M8.37,39.42l-.59-13A4.23,4.23,0,0,1,16.22,26c0,.1,0,.22,0,.32L18,40.17c-.05,1.95-4.2,2.64-6.15,2.59A3.53,3.53,0,0,1,8.37,39.42Z"/><path class="cls-2" d="M12,43.46h-.22a4.23,4.23,0,0,1-4.1-4h0l-.59-13a4.91,4.91,0,0,1,4.65-5.15A4.93,4.93,0,0,1,16.91,26v.38l1.73,13.79v0C18.57,42.67,14.21,43.46,12,43.46ZM9.06,39.38a2.86,2.86,0,0,0,2.76,2.7c2.07.05,5.33-.73,5.44-1.88L15.54,26.42a3.67,3.67,0,0,0,0-.38,3.53,3.53,0,0,0-3.71-3.35,3.56,3.56,0,0,0-3.35,3.72Z"/><path class="cls-1" d="M26.46,37.35a11.39,11.39,0,0,1-9,3,5.3,5.3,0,0,1-4.5-5.2l.9-12.34a4.21,4.21,0,0,1,4.35-4.08c2.33.07,8.37,2.86,8.3,5.2,0,.09,0,.2,0,.3Z"/><path class="cls-2" d="M18.69,41.16a12.55,12.55,0,0,1-1.36-.08,6,6,0,0,1-5.11-5.9l.9-12.37a4.89,4.89,0,0,1,5.06-4.72c2.49.08,9.06,3,9,5.91l0,.35a.68.68,0,0,1-1.36-.14c0-.08,0-.17,0-.25.06-1.69-5.38-4.42-7.63-4.5H18a3.54,3.54,0,0,0-3.54,3.42L13.6,35.25a4.6,4.6,0,0,0,3.88,4.47A10.88,10.88,0,0,0,26,36.83a.69.69,0,0,1,.9,1A12.35,12.35,0,0,1,18.69,41.16Z"/><g class="cls-3"><path class="cls-2" d="M20.15,31.34c-1.21,6.19-4,6.9-7.86,4.11-1.47,4.92-4.69,2.29-4.69,2.29C7,41.32,4.33,40.57,4,39.09l-.09,3.33,8.2,12.76c.54-10.15,6-14.62,13.34-17C24.93,33.91,22.69,31.74,20.15,31.34Z"/></g><path class="cls-1" d="M35.25,27.46c-1.41-6.09-2.44-13.71-4.73-18-4.06-4-5.73-5.29-13-8.29a3.12,3.12,0,0,0-3.44,5.19C20.17,9,22,11.14,24.28,13.09c.78,2.76,1.08,9,.75,14.2Z"/><path class="cls-2" d="M35.25,28.15a.69.69,0,0,1-.67-.53c-.38-1.62-.73-3.38-1.07-5.08-.95-4.72-1.94-9.6-3.55-12.69C26,5.91,24.31,4.68,17.3,1.77l-.1,0a2.43,2.43,0,0,0-2.73,4,30.07,30.07,0,0,1,9.14,5.86c.37.33.74.66,1.11,1l.16.14.06.2c.79,2.78,1.12,9,.78,14.43A.67.67,0,0,1,25,28a.69.69,0,0,1-.65-.73c.33-5.09,0-11.06-.67-13.77l-1-.85A28.84,28.84,0,0,0,13.84,7l-.12-.07A3.81,3.81,0,0,1,17.87.52c7.24,3,9,4.29,13.14,8.43l.12.16c1.73,3.27,2.75,8.3,3.73,13.16.34,1.69.69,3.44,1.06,5a.69.69,0,0,1-.52.82Z"/><path class="cls-2" d="M12.77,55.56h-.08a.7.7,0,0,1-.61-.77l.11-1c.59-5.39,1.33-12.1,10.35-14.69a.68.68,0,0,1,.85.47.69.69,0,0,1-.47.85c-8.14,2.34-8.79,8.28-9.36,13.52l-.11,1A.69.69,0,0,1,12.77,55.56Z"/><path class="cls-1" d="M25.43,38.16a7.17,7.17,0,0,0-2.24-5.1c-5.05,0-3-6.37-2.62-6.56a4.68,4.68,0,0,1,1.08-.35L22.2,26c.16,0,.32,0,.49,0a9.32,9.32,0,0,1,3.51.54,16.7,16.7,0,0,1,5.18,3.09A23.27,23.27,0,0,1,35.22,34c1.11,1.59,3,8.12-2.3,15.51Z"/><path class="cls-2" d="M32.92,50.16a.66.66,0,0,1-.4-.13.69.69,0,0,1-.16-1c5.26-7.29,3.11-13.55,2.29-14.71a22.49,22.49,0,0,0-3.72-4.2,15.75,15.75,0,0,0-5-3,8.83,8.83,0,0,0-3.24-.5,4.19,4.19,0,0,0-.46,0l-.68.15A3.74,3.74,0,0,0,21,27c-.27.58-.89,2.89-.14,4.26a2.36,2.36,0,0,0,2.29,1.07h.26l.19.17a7.78,7.78,0,0,1,2.49,5.6.7.7,0,0,1-.67.71h0a.7.7,0,0,1-.69-.67,6.55,6.55,0,0,0-1.83-4.43A3.53,3.53,0,0,1,19.31,31c-.44-1.81.2-4.71,1-5.09a3.64,3.64,0,0,1,1-.35l.8-.17a3.53,3.53,0,0,1,.51,0,10.19,10.19,0,0,1,3.83.56,17.3,17.3,0,0,1,5.42,3.22,24,24,0,0,1,4,4.47c1.52,2.16,3,9-2.3,16.3A.72.72,0,0,1,32.92,50.16Zm-12-23.06h0Z"/></svg>