<svg id="Layer_1" data-name="Layer 1" xmlns="http://www.w3.org/2000/svg" viewBox="0 0 49.07 53.67"><defs><style>.cls-1{fill:#fbbc95;}.cls-2{fill:#7b483c;}.cls-3{opacity:0.3;}</style></defs><path class="cls-1" d="M32.81,20.06a14.14,14.14,0,0,1-6.72,4.07,12.17,12.17,0,0,1-2.12.33,15.23,15.23,0,0,1-2.23-.12,10.12,10.12,0,0,1-4.21-1.77,10.71,10.71,0,0,1-.92-.71c-.27-.27-.53-.55-.79-.84a10.57,10.57,0,0,1-1.3-1.84,5,5,0,0,1-.48-1l-.39-1a13.44,13.44,0,0,1-.49-2,18.78,18.78,0,0,1,.56-7.61,3.7,3.7,0,0,1,7.17,1.82.74.74,0,0,1,0,.14l-.05.17a11.89,11.89,0,0,0-.6,4.47,4.23,4.23,0,0,0,1.4,3,3.47,3.47,0,0,0,3,.66,7.71,7.71,0,0,0,3.68-2.06l.07-.08a3.14,3.14,0,0,1,4.42,4.45Z"/><path class="cls-2" d="M23.62,25.15a16.67,16.67,0,0,1-2-.13,10.9,10.9,0,0,1-4.55-1.9L16.89,23a6,6,0,0,1-.74-.59c-.3-.3-.57-.59-.84-.88a7.32,7.32,0,0,1-1.13-1.55l-.24-.39a5.56,5.56,0,0,1-.54-1.1l-.39-1a8.05,8.05,0,0,1-.4-1.55l-.12-.59a19.17,19.17,0,0,1,.56-7.93,4.39,4.39,0,0,1,8.51,2.16l-.1.34a11.08,11.08,0,0,0-.58,4.2A3.68,3.68,0,0,0,22,16.56a2.83,2.83,0,0,0,2.47.52,7,7,0,0,0,3.34-1.89l.08-.08a3.82,3.82,0,0,1,5.38,5.42h0a14.62,14.62,0,0,1-7,4.27,8.92,8.92,0,0,1-1.64.28l-.57.06ZM17.3,5.43a3,3,0,0,0-1.53.42A3,3,0,0,0,14.39,7.7,18,18,0,0,0,13.84,15c0,.16.08.37.12.58a8.22,8.22,0,0,0,.33,1.32l.39,1a4.05,4.05,0,0,0,.42.86l.26.42a6.38,6.38,0,0,0,.95,1.31l.79.85c.17.15.39.31.6.46l.24.18a9.48,9.48,0,0,0,3.94,1.64,14.9,14.9,0,0,0,2.07.11l.53-.06a9.58,9.58,0,0,0,1.42-.23,13.45,13.45,0,0,0,6.41-3.9,2.44,2.44,0,0,0,0-3.36,2.41,2.41,0,0,0-1.71-.77,2.39,2.39,0,0,0-1.74.66l-.08.08a8.47,8.47,0,0,1-4,2.24,4.2,4.2,0,0,1-3.62-.82,5,5,0,0,1-1.64-3.41,12.59,12.59,0,0,1,.63-4.73l.08-.29a3,3,0,0,0-2.17-3.66A3.2,3.2,0,0,0,17.3,5.43ZM32.81,20.06h0Z"/><g class="cls-3"><path class="cls-2" d="M32.81,20.06a14.14,14.14,0,0,1-6.72,4.07,12.17,12.17,0,0,1-2.12.33,15.23,15.23,0,0,1-2.23-.12,10.12,10.12,0,0,1-4.21-1.77,10.71,10.71,0,0,1-.92-.71c-.27-.27-.53-.55-.79-.84a10.57,10.57,0,0,1-1.3-1.84,5,5,0,0,1-.48-1l-.39-1a13.44,13.44,0,0,1-.49-2,18.78,18.78,0,0,1,.56-7.61,3.7,3.7,0,0,1,7.17,1.82.74.74,0,0,1,0,.14l-.05.17a11.89,11.89,0,0,0-.6,4.47,4.23,4.23,0,0,0,1.4,3,3.47,3.47,0,0,0,3,.66,7.71,7.71,0,0,0,3.68-2.06l.07-.08a3.14,3.14,0,0,1,4.42,4.45Z"/></g><path class="cls-1" d="M48.24,53H24.15L19.7,25.29,38.47,14.07a1.64,1.64,0,0,1,2.45,1.1Z"/><path class="cls-2" d="M49.07,53.67H23.56L18.94,24.94,38.11,13.48A2.34,2.34,0,0,1,41.6,15ZM24.74,52.3H47.4l-7.16-37a.94.94,0,0,0-1.42-.63l-18.37,11Z"/><g class="cls-3"><path class="cls-2" d="M36.77,15.09,19.7,25.29,24.15,53h0a33.3,33.3,0,0,0,12.62-26.1Z"/></g><path class="cls-1" d="M27.57,26.45c-4.46-3.63-2.37-10.59-12.43-10.88C5.46,14.38,8.26,7.35,8.26,7.35s28-19.49,32.79,8.25Z"/><path class="cls-2" d="M27.57,27.14a.66.66,0,0,1-.43-.16,12.17,12.17,0,0,1-3.25-4.81c-1.41-3.08-2.62-5.74-8.76-5.92-3.58-.43-6-1.66-7.13-3.65a6.71,6.71,0,0,1-.38-5.5l.08-.2.17-.11c.58-.41,14.49-9.95,24.62-5.7,4.84,2,7.95,6.87,9.24,14.39a.69.69,0,1,1-1.35.24c-1.21-7-4-11.53-8.43-13.36C23.11-1.35,10.51,6.68,8.84,7.79a5.33,5.33,0,0,0,.35,4.12c1,1.6,3,2.6,6,3,6.93.2,8.45,3.52,9.91,6.72A11,11,0,0,0,28,25.92a.69.69,0,0,1,.1,1A.72.72,0,0,1,27.57,27.14Z"/><path class="cls-1" d="M13,11.66c-1,5.67-1.56,11.47-2.17,17.42-.32,3-.66,6-1.23,9.1a30.87,30.87,0,0,1-3.14,9.41A3.09,3.09,0,0,1,1,44.71l.06-.12a25.29,25.29,0,0,0,2.16-7.51c.41-2.77.64-5.66.85-8.59.4-5.88.77-11.93,1.62-18,.29-2,.8-2.19,3.88-4Z"/><path class="cls-2" d="M3.77,49.87A3.77,3.77,0,0,1,.41,44.4l.06-.12A24.5,24.5,0,0,0,2.56,37c.42-2.8.65-5.76.85-8.54L3.5,27C3.87,21.58,4.25,16,5,10.4c.32-2.22,1-2.63,3.65-4.14l.56-.33a.69.69,0,0,1,.69,1.19l-.57.33C6.82,8.92,6.62,9,6.4,10.6c-.78,5.54-1.16,11.1-1.52,16.48l-.1,1.45c-.2,2.82-.44,5.8-.86,8.65A25.65,25.65,0,0,1,1.7,44.9L1.64,45a2.4,2.4,0,0,0,4.24,2.24A30.66,30.66,0,0,0,9,38.05c.55-3,.89-6,1.22-9l.12-1.22c.57-5.63,1.12-10.94,2.05-16.25a.69.69,0,1,1,1.35.24c-.92,5.25-1.46,10.55-2,16.15l-.12,1.22c-.33,3.08-.67,6.09-1.24,9.15a31.93,31.93,0,0,1-3.22,9.62A3.77,3.77,0,0,1,3.77,49.87Z"/><path class="cls-1" d="M19.32,14.21a11.59,11.59,0,0,0-1,4.26,6,6,0,0,0,.94,3.47,6.79,6.79,0,0,0,3.08,2.36,18.68,18.68,0,0,0,4.71,1.14l.15,0a3.15,3.15,0,0,1-.67,6.27A25.15,25.15,0,0,1,20,30.42,13.52,13.52,0,0,1,13.78,26a13,13,0,0,1-2.55-7.41c-.19-5.59-.76-8.77,1-9.75L15,7.32Z"/><path class="cls-2" d="M26.82,32.43l-.31,0a25.69,25.69,0,0,1-6.79-1.34,14.4,14.4,0,0,1-6.49-4.64,13.73,13.73,0,0,1-2.69-7.8c0-1-.08-2-.13-2.84-.2-4.07-.33-6.52,1.47-7.53l2.76-1.54a.68.68,0,0,1,.93.26.69.69,0,0,1-.26.94L12.55,9.46c-1.05.59-.94,2.85-.76,6.26,0,.87.09,1.83.13,2.87a12.28,12.28,0,0,0,2.41,7,13,13,0,0,0,5.86,4.18A24.48,24.48,0,0,0,26.62,31a2.46,2.46,0,0,0,.52-4.9l-.15,0a19.26,19.26,0,0,1-4.88-1.18,7.6,7.6,0,0,1-3.4-2.62,6.73,6.73,0,0,1-1.05-3.85,12.15,12.15,0,0,1,1-4.53.69.69,0,0,1,.9-.37.7.7,0,0,1,.37.91,10.76,10.76,0,0,0-.92,4,5.28,5.28,0,0,0,.82,3.08,6.13,6.13,0,0,0,2.78,2.11,18.22,18.22,0,0,0,4.53,1.09l.15,0a3.84,3.84,0,0,1-.5,7.65Z"/><g class="cls-3"><path class="cls-2" d="M27.23,25.46l-.15,0a18.68,18.68,0,0,1-4.71-1.14,6.79,6.79,0,0,1-3.08-2.36,4.91,4.91,0,0,1-.28-.5c-1.84,1.09-4.57,1.08-6-.65A14.65,14.65,0,0,1,11.2,18c0,.19,0,.37,0,.57A13,13,0,0,0,13.78,26,13.52,13.52,0,0,0,20,30.42a25.15,25.15,0,0,0,6.6,1.31,3.15,3.15,0,0,0,.67-6.27Z"/></g><path class="cls-1" d="M37.14,17.07c.61,6.3-2.22,13.07-2.57,13.36,0,0-6.44,3.59-8.06,4.67s-3.15,2-4.29,3a7,7,0,0,0-2.44,3A13.39,13.39,0,0,0,19,45.76v.12a2.48,2.48,0,0,1-4.89.53,19.09,19.09,0,0,1-.61-6.67,13.82,13.82,0,0,1,.94-3.69,18,18,0,0,1,1.86-3.23c1.39-1.91,2.8-3.38,4-4.8,5.28-5.77,5-8.69,5-11.53Z"/><path class="cls-2" d="M16.52,49h-.06a3.18,3.18,0,0,1-3-2.43,20,20,0,0,1-.62-6.9,13.92,13.92,0,0,1,1-3.87,17.86,17.86,0,0,1,1.95-3.39,49,49,0,0,1,3.14-3.8c.32-.35.63-.69.92-1,4.88-5.34,4.87-8.07,4.86-10.71v-.37a.69.69,0,0,1,1.38,0v.36c0,2.77,0,5.91-5.21,11.64l-.92,1a44,44,0,0,0-3.06,3.7,16.61,16.61,0,0,0-1.79,3.1,12.52,12.52,0,0,0-.88,3.48,18.56,18.56,0,0,0,.59,6.44,1.78,1.78,0,0,0,1.71,1.37,1.84,1.84,0,0,0,1.83-1.76v-.11a14,14,0,0,1,.82-4.92,7.76,7.76,0,0,1,2.65-3.3c.91-.73,2.05-1.49,3.26-2.29l1.07-.71c1.52-1,7-4.1,8-4.63a27.54,27.54,0,0,0,2.35-12.76A.69.69,0,1,1,37.82,17c.62,6.34-2.18,13.43-2.82,14l-.1.07c-.06,0-6.43,3.59-8,4.64l-1.08.72c-1.18.78-2.3,1.52-3.16,2.22a6.34,6.34,0,0,0-2.23,2.74,12.49,12.49,0,0,0-.73,4.43v.11A3.17,3.17,0,0,1,16.52,49ZM34.57,30.43h0Zm0,0h0Z"/></svg>